Samaano-Thin-Slanted.ufo
<glyph name=".notdef" format="2">
  <advance width="2048"/>
  <unicode hex="0000"/>
  <outline>
    <contour>
      <point x="226.543945312" y="-100.0" type="line"/>
      <point x="1224.54394531" y="-100.0" type="line"/>
      <point x="1821.45605469" y="1540.0" type="line"/>
      <point x="823.456054688" y="1540.0" type="line"/>
    </contour>
    <contour>
      <point x="329.662109375" y="-20.0" type="line"/>
      <point x="869.065429688" y="1462.0" type="line"/>
      <point x="1000.37109375" y="743.0" type="line"/>
    </contour>
    <contour>
      <point x="421.662109375" y="-20.0" type="line"/>
      <point x="1010.34570312" y="666.0" type="line"/>
      <point x="1101.66210938" y="-20.0" type="line"/>
    </contour>
    <contour>
      <point x="993.43359375" y="1474.0" type="line"/>
      <point x="1624.43359375" y="1474.0" type="line"/>
      <point x="1070.21679688" y="825.0" type="line"/>
    </contour>
    <contour>
      <point x="1080.19140625" y="748.0" type="line"/>
      <point x="1720.79785156" y="1475.0" type="line"/>
      <point x="1176.66210938" y="-20.0" type="line"/>
    </contour>
  </outline>
</glyph>
<glyph name="exclam" format="2">
  <advance width="2048"/>
  <unicode hex="0021"/>
  <outline>
    <contour>
      <point x="742.7734375" y="9.0" type="line"/>
      <point x="809.7734375" y="9.0" type="line"/>
      <point x="845.443359375" y="107.0" type="line"/>
      <point x="778.443359375" y="107.0" type="line"/>
    </contour>
    <contour>
      <point x="862.705078125" y="344.0" type="line"/>
      <point x="934.705078125" y="344.0" type="line"/>
      <point x="1305.2265625" y="1362.0" type="line"/>
      <point x="1233.2265625" y="1362.0" type="line"/>
    </contour>
  </outline>
</glyph>
<glyph name="quotedbl" format="2">
  <advance width="1024"/>
  <unicode hex="0022"/>
  <outline>
    <contour>
      <point x="234.868" y="1326" type="line"/>
      <point x="300.868" y="1326" type="line"/>
      <point x="391.132" y="1574" type="line"/>
      <point x="325.132" y="1574" type="line"/>
    </contour>
    <contour>
      <point x="638.868" y="1326" type="line"/>
      <point x="698.868" y="1326" type="line"/>
      <point x="789.132" y="1574" type="line"/>
      <point x="729.132" y="1574" type="line"/>
    </contour>
  </outline>
</glyph>
<glyph name="numbersign" format="2">
  <advance width="2048"/>
  <unicode hex="0023"/>
  <outline>
    <contour>
      <point x="919.477539062" y="1184.0" type="line"/>
      <point x="524.5703125" y="99.0" type="line"/>
      <point x="583.5703125" y="99.0" type="line"/>
      <point x="978.477539062" y="1184.0" type="line"/>
    </contour>
    <contour>
      <point x="1417.38964844" y="1192.0" type="line"/>
      <point x="1018.11425781" y="95.0" type="line"/>
      <point x="1089.11425781" y="95.0" type="line"/>
      <point x="1488.38964844" y="1192.0" type="line"/>
    </contour>
    <contour>
      <point x="726.6875" y="995.0" type="line"/>
      <point x="705.577148438" y="937.0" type="line"/>
      <point x="1506.57714844" y="937.0" type="line"/>
      <point x="1527.6875" y="995.0" type="line"/>
    </contour>
    <contour>
      <point x="547.974609375" y="493.0" type="line"/>
      <point x="520.3125" y="417.0" type="line"/>
      <point x="1330.3125" y="417.0" type="line"/>
      <point x="1357.97460938" y="493.0" type="line"/>
    </contour>
  </outline>
</glyph>
<glyph name="dollar" format="2">
  <advance width="1024"/>
  <unicode hex="0024"/>
  <outline>
    <contour>
      <point x="479.075" y="1539" type="line"/>
      <point x="449.229" y="1457" type="line"/>
      <point x="1047.23" y="1457" type="line"/>
      <point x="1077.08" y="1539" type="line"/>
    </contour>
    <contour>
      <point x="480.167" y="1542" type="line"/>
      <point x="293.086" y="1028" type="line"/>
      <point x="377.086" y="1028" type="line"/>
      <point x="564.167" y="1542" type="line"/>
    </contour>
    <contour>
      <point x="-27.9609" y="69" type="line"/>
      <point x="-53.0752" y="0" type="line"/>
      <point x="654.925" y="0" type="line"/>
      <point x="680.039" y="69" type="line"/>
    </contour>
    <contour>
      <point x="610.925" y="0" type="line"/>
      <point x="690.925" y="0" type="line"/>
      <point x="820.134" y="355" type="line"/>
      <point x="740.134" y="355" type="line"/>
    </contour>
    <contour>
      <point x="293.086" y="1028" type="line"/>
      <point x="739.134" y="355" type="line"/>
      <point x="820.134" y="355" type="line"/>
      <point x="377.086" y="1028" type="line"/>
    </contour>
    <contour>
      <point x="809.38" y="1636" type="line"/>
      <point x="135.671" y="-215" type="line"/>
      <point x="205.671" y="-215" type="line"/>
      <point x="879.38" y="1636" type="line"/>
    </contour>
  </outline>
</glyph>
<glyph name="percent" format="2">
  <advance width="2048"/>
  <unicode hex="0025"/>
  <outline>
    <contour>
      <point x="575.762695312" y="444.0" type="line"/>
      <point x="594.935546875" y="417.0" type="line"/>
      <point x="1472.23730469" y="775.0" type="line"/>
      <point x="1462.70019531" y="801.0" type="line"/>
    </contour>
    <contour>
      <point x="937.998046875" y="1148.0" type="line"/>
      <point x="812.428710938" y="803.0" type="line"/>
      <point x="843.428710938" y="803.0" type="line"/>
      <point x="968.998046875" y="1148.0" type="line"/>
    </contour>
    <contour>
      <point x="939.454101562" y="1152.0" type="line"/>
      <point x="929.990234375" y="1126.0" type="line"/>
      <point x="1276.99023438" y="1126.0" type="line"/>
      <point x="1286.45410156" y="1152.0" type="line"/>
    </contour>
    <contour>
      <point x="820.799804688" y="826.0" type="line"/>
      <point x="807.333007812" y="789.0" type="line"/>
      <point x="1151.33300781" y="789.0" type="line"/>
      <point x="1164.79980469" y="826.0" type="line"/>
    </contour>
    <contour>
      <point x="1250.45410156" y="1152.0" type="line"/>
      <point x="1119.06054688" y="791.0" type="line"/>
      <point x="1155.06054688" y="791.0" type="line"/>
      <point x="1286.45410156" y="1152.0" type="line"/>
    </contour>
    <contour>
      <point x="1005.8515625" y="436.0" type="line"/>
      <point x="881.373046875" y="94.0" type="line"/>
      <point x="924.373046875" y="94.0" type="line"/>
      <point x="1048.8515625" y="436.0" type="line"/>
    </contour>
    <contour>
      <point x="1007.30664062" y="440.0" type="line"/>
      <point x="991.65625" y="397.0" type="line"/>
      <point x="1338.65625" y="397.0" type="line"/>
      <point x="1354.30664062" y="440.0" type="line"/>
    </contour>
    <contour>
      <point x="886.833007812" y="109.0" type="line"/>
      <point x="875.185546875" y="77.0" type="line"/>
      <point x="1219.18554688" y="77.0" type="line"/>
      <point x="1230.83300781" y="109.0" type="line"/>
    </contour>
    <contour>
      <point x="1320.30664062" y="440.0" type="line"/>
      <point x="1188.9140625" y="79.0" type="line"/>
      <point x="1222.9140625" y="79.0" type="line"/>
      <point x="1354.30664062" y="440.0" type="line"/>
    </contour>
  </outline>
</glyph>
<glyph name="ampersand" format="2">
  <advance width="1024"/>
  <unicode hex="0026"/>
  <outline>
    <contour>
      <point x="593.708984375" y="1534.0" type="line"/>
      <point x="569.029296875" y="43.0" type="line"/>
      <point x="649.76171875" y="56.0" type="line"/>
      <point x="671.708984375" y="1534.0" type="line"/>
    </contour>
    <contour>
      <point x="1113.32324219" y="1467.0" type="line"/>
      <point x="1138.4375" y="1536.0" type="line"/>
      <point x="672.4375" y="1536.0" type="line"/>
      <point x="647.323242188" y="1467.0" type="line"/>
    </contour>
    <contour>
      <point x="1061.875" y="1485.0" type="line"/>
      <point x="887.533203125" y="1006.0" type="line"/>
      <point x="945.533203125" y="1006.0" type="line"/>
      <point x="1119.875" y="1485.0" type="line"/>
    </contour>
    <contour>
      <point x="263.727539062" y="1045.0" type="line"/>
      <point x="241.889648438" y="985.0" type="line"/>
      <point x="937.889648438" y="985.0" type="line"/>
      <point x="959.727539062" y="1045.0" type="line"/>
    </contour>
    <contour>
      <point x="263.727539062" y="1045.0" type="line"/>
      <point x="-107.885742188" y="24.0" type="line"/>
      <point x="-17.8857421875" y="24.0" type="line"/>
      <point x="353.727539062" y="1045.0" type="line"/>
    </contour>
    <contour>
      <point x="-90.779296875" y="71.0" type="line"/>
      <point x="-114.4375" y="6.0" type="line"/>
      <point x="693.5625" y="6.0" type="line"/>
      <point x="717.220703125" y="71.0" type="line"/>
    </contour>
  </outline>
</glyph>
<glyph name="quotesingle" format="2">
  <advance width="2048"/>
  <unicode hex="0027"/>
  <outline>
    <contour>
      <point x="1024.57519531" y="1496.0" type="line"/>
      <point x="959.424804688" y="1317.0" type="line"/>
      <point x="1023.42480469" y="1317.0" type="line"/>
      <point x="1088.57519531" y="1496.0" type="line"/>
    </contour>
  </outline>
</glyph>
<glyph name="parenleft" format="2">
  <advance width="1024"/>
  <unicode hex="0028"/>
  <outline>
    <contour>
      <point x="358.585" y="1023" type="line"/>
      <point x="51.3936" y="179" type="line"/>
      <point x="179.394" y="179" type="line"/>
      <point x="486.585" y="1023" type="line"/>
    </contour>
    <contour>
      <point x="945.698" y="1636" type="line"/>
      <point x="358.585" y="1023" type="line"/>
      <point x="486.585" y="1023" type="line"/>
      <point x="972.606" y="1633" type="line"/>
    </contour>
    <contour>
      <point x="51.3936" y="179" type="line"/>
      <point x="211.776" y="-309" type="line"/>
      <point x="239.776" y="-309" type="line"/>
      <point x="179.394" y="179" type="line"/>
    </contour>
  </outline>
</glyph>
<glyph name="parenright" format="2">
  <advance width="1024"/>
  <unicode hex="0029"/>
  <outline>
    <contour>
      <point x="792.404" y="1023" type="line"/>
      <point x="485.213" y="179" type="line"/>
      <point x="613.213" y="179" type="line"/>
      <point x="920.404" y="1023" type="line"/>
    </contour>
    <contour>
      <point x="811.154" y="1635" type="line"/>
      <point x="792.404" y="1023" type="line"/>
      <point x="920.404" y="1023" type="line"/>
      <point x="849.154" y="1635" type="line"/>
    </contour>
    <contour>
      <point x="485.213" y="179" type="line"/>
      <point x="103.596" y="-309" type="line"/>
      <point x="131.596" y="-309" type="line"/>
      <point x="613.213" y="179" type="line"/>
    </contour>
  </outline>
</glyph>
<glyph name="asterisk" format="2">
  <advance width="2048"/>
  <unicode hex="002A"/>
  <outline>
    <contour>
      <point x="1201.98632812" y="1297.0" type="line"/>
      <point x="835.10546875" y="289.0" type="line"/>
      <point x="935.10546875" y="289.0" type="line"/>
      <point x="1301.98632812" y="1297.0" type="line"/>
    </contour>
    <contour>
      <point x="803.57421875" y="1153.0" type="line"/>
      <point x="1262.24023438" y="424.0" type="line"/>
      <point x="1356.44726562" y="496.0" type="line"/>
      <point x="888.689453125" y="1222.0" type="line"/>
    </contour>
    <contour>
      <point x="1520.68164062" y="1200.0" type="line"/>
      <point x="499.33984375" y="449.0" type="line"/>
      <point x="537.142578125" y="399.0" type="line"/>
      <point x="1548.66015625" y="1134.0" type="line"/>
    </contour>
  </outline>
</glyph>
<glyph name="plus" format="2">
  <advance width="2048"/>
  <unicode hex="002B"/>
  <outline>
    <contour>
      <point x="1119.43164062" y="1221.0" type="line"/>
      <point x="735.078125" y="165.0" type="line"/>
      <point x="845.078125" y="165.0" type="line"/>
      <point x="1229.43164062" y="1221.0" type="line"/>
    </contour>
    <contour>
      <point x="591.744140625" y="796.0" type="line"/>
      <point x="554.255859375" y="693.0" type="line"/>
      <point x="1456.25585938" y="693.0" type="line"/>
      <point x="1493.74414062" y="796.0" type="line"/>
    </contour>
  </outline>
</glyph>
<glyph name="comma" format="2">
  <advance width="1024"/>
  <unicode hex="002C"/>
  <outline>
    <contour>
      <point x="472.571289062" y="165.0" type="line"/>
      <point x="415.428710938" y="8.0" type="line"/>
      <point x="551.428710938" y="8.0" type="line"/>
      <point x="608.571289062" y="165.0" type="line"/>
    </contour>
    <contour>
      <point x="545.65234375" y="135.0" type="line"/>
      <point x="418.483398438" y="-99.0" type="line"/>
      <point x="450.649414062" y="-148.0" type="line"/>
      <point x="555.979492188" y="26.0" type="line"/>
    </contour>
  </outline>
</glyph>
<glyph name="hyphen" format="2">
  <advance width="2048"/>
  <unicode hex="002D"/>
  <outline>
    <contour>
      <point x="628.833984375" y="793.0" type="line"/>
      <point x="593.166015625" y="695.0" type="line"/>
      <point x="1419.16601562" y="695.0" type="line"/>
      <point x="1454.83398438" y="793.0" type="line"/>
    </contour>
  </outline>
</glyph>
<glyph name="period" format="2">
  <advance width="2048"/>
  <unicode hex="002E"/>
  <outline>
    <contour>
      <point x="972.564453125" y="113.0" type="line"/>
      <point x="931.435546875" y="0.0" type="line"/>
      <point x="1075.43554688" y="0.0" type="line"/>
      <point x="1116.56445312" y="113.0" type="line"/>
    </contour>
  </outline>
</glyph>
<glyph name="slash" format="2">
  <advance width="2048"/>
  <unicode hex="002F"/>
  <outline>
    <contour>
      <point x="1533.51757812" y="1480.0" type="line"/>
      <point x="411.482421875" y="10.0" type="line"/>
      <point x="514.482421875" y="10.0" type="line"/>
      <point x="1636.51757812" y="1480.0" type="line"/>
    </contour>
  </outline>
</glyph>
<glyph name="zero" format="2">
  <advance width="1024"/>
  <unicode hex="0030"/>
  <outline>
    <contour>
      <point x="748" y="883" type="line"/>
      <point x="895" y="883" type="line"/>
      <point x="843" y="740" type="line"/>
      <point x="696" y="740" type="line"/>
    </contour>
    <contour>
      <point x="698" y="1499" type="line"/>
      <point x="1416" y="1499" type="line"/>
      <point x="897" y="72" type="line"/>
      <point x="179" y="72" type="line"/>
    </contour>
    <contour>
      <point x="661" y="1559" type="line"/>
      <point x="96" y="7" type="line"/>
      <point x="933" y="7" type="line"/>
      <point x="1498" y="1559" type="line"/>
    </contour>
  </outline>
</glyph>
<glyph name="one" format="2">
  <advance width="1024"/>
  <unicode hex="0031"/>
  <outline>
    <contour>
      <point x="199.922851562" y="0.0" type="line"/>
      <point x="259.922851562" y="0.0" type="line"/>
      <point x="824.077148438" y="1550.0" type="line"/>
      <point x="764.077148438" y="1550.0" type="line"/>
    </contour>
    <contour>
      <point x="764.077148438" y="1550.0" type="line"/>
      <point x="599.944335938" y="1426.0" type="line"/>
      <point x="640.752929688" y="1398.0" type="line"/>
      <point x="824.077148438" y="1550.0" type="line"/>
    </contour>
  </outline>
</glyph>
<glyph name="two" format="2">
  <advance width="1024"/>
  <unicode hex="0032"/>
  <outline>
    <contour>
      <point x="655.131835938" y="1484.0" type="line"/>
      <point x="1389.13183594" y="1484.0" type="line"/>
      <point x="1179.48535156" y="908.0" type="line"/>
      <point x="452.485351562" y="908.0" type="line"/>
      <point x="122.000976562" y="0.0" type="line"/>
      <point x="895.000976562" y="0.0" type="line"/>
      <point x="916.475585938" y="59.0" type="line"/>
      <point x="203.475585938" y="59.0" type="line"/>
      <point x="491.010742188" y="849.0" type="line"/>
      <point x="1218.01074219" y="849.0" type="line"/>
      <point x="1470.96972656" y="1544.0" type="line"/>
      <point x="676.969726562" y="1544.0" type="line"/>
    </contour>
  </outline>
</glyph>
<glyph name="three" format="2">
  <advance width="1024"/>
  <unicode hex="0033"/>
  <outline>
    <contour>
      <point x="84.7607421875" y="736.0" type="line"/>
      <point x="886.760742188" y="736.0" type="line"/>
      <point x="637.805664062" y="52.0" type="line"/>
      <point x="-206.194335938" y="52.0" type="line"/>
      <point x="-219.033203125" y="-8.0" type="line"/>
      <point x="675.966796875" y="-8.0" type="line"/>
      <point x="1243.03320312" y="1550.0" type="line"/>
      <point x="369.033203125" y="1550.0" type="line"/>
      <point x="348.286132812" y="1493.0" type="line"/>
      <point x="1160.28613281" y="1493.0" type="line"/>
      <point x="906.599609375" y="796.0" type="line"/>
      <point x="106.599609375" y="796.0" type="line"/>
    </contour>
  </outline>
</glyph>
<glyph name="four" format="2">
  <advance width="1024"/>
  <unicode hex="0034"/>
  <outline>
    <contour>
      <point x="369.982421875" y="761.0" type="line"/>
      <point x="1150.98242188" y="761.0" type="line"/>
      <point x="876.548828125" y="7.0" type="line"/>
      <point x="933.548828125" y="7.0" type="line"/>
      <point x="1495.15429688" y="1550.0" type="line"/>
      <point x="1435.15429688" y="1550.0" type="line"/>
      <point x="1169.8203125" y="821.0" type="line"/>
      <point x="451.8203125" y="821.0" type="line"/>
      <point x="717.154296875" y="1550.0" type="line"/>
      <point x="657.154296875" y="1550.0" type="line"/>
    </contour>
  </outline>
</glyph>
<glyph name="five" format="2">
  <advance width="1024"/>
  <unicode hex="0035"/>
  <outline>
    <contour>
      <point x="1233.21" y="899" type="line"/>
      <point x="927.11" y="58" type="line"/>
      <point x="69.1104" y="58" type="line"/>
      <point x="48" y="0" type="line"/>
      <point x="966" y="0" type="line"/>
      <point x="1315.05" y="959" type="line"/>
      <point x="458.048" y="959" type="line"/>
      <point x="652.044" y="1492" type="line"/>
      <point x="1519.04" y="1492" type="line"/>
      <point x="1540.15" y="1550" type="line"/>
      <point x="613.154" y="1550" type="line"/>
      <point x="376.209" y="899" type="line"/>
    </contour>
  </outline>
</glyph>
<glyph name="six" format="2">
  <advance width="1024"/>
  <unicode hex="0036"/>
  <outline>
    <contour>
      <point x="604.154296875" y="1550.0" type="line"/>
      <point x="113.158203125" y="201.0" type="line"/>
      <point x="40.0" y="0.0" type="line"/>
      <point x="979.0" y="0.0" type="line"/>
      <point x="1277.09179688" y="819.0" type="line"/>
      <point x="400.091796875" y="819.0" type="line"/>
      <point x="643.587890625" y="1488.0" type="line"/>
      <point x="1525.58789062" y="1488.0" type="line"/>
      <point x="1548.15429688" y="1550.0" type="line"/>
    </contour>
    <contour>
      <point x="1193.25292969" y="759.0" type="line"/>
      <point x="939.9296875" y="63.0" type="line"/>
      <point x="130.9296875" y="63.0" type="line"/>
      <point x="384.252929688" y="759.0" type="line"/>
    </contour>
  </outline>
</glyph>
<glyph name="seven" format="2">
  <advance width="1024"/>
  <unicode hex="0037"/>
  <outline>
    <contour>
      <point x="44.9453125" y="1495.0" type="line"/>
      <point x="895.9453125" y="1495.0" type="line"/>
      <point x="351.80859375" y="0.0" type="line"/>
      <point x="413.80859375" y="0.0" type="line"/>
      <point x="979.0546875" y="1553.0" type="line"/>
      <point x="66.0546875" y="1553.0" type="line"/>
    </contour>
  </outline>
</glyph>
<glyph name="eight" format="2">
  <advance width="2048"/>
  <unicode hex="0038"/>
  <outline>
    <contour>
      <point x="849.577148438" y="1550.0" type="line"/>
      <point x="285.422851562" y="0.0" type="line"/>
      <point x="1198.42285156" y="0.0" type="line"/>
      <point x="1762.57714844" y="1550.0" type="line"/>
    </contour>
    <contour>
      <point x="1463.63183594" y="899.0" type="line"/>
      <point x="1157.16894531" y="57.0" type="line"/>
      <point x="369.168945312" y="57.0" type="line"/>
      <point x="675.631835938" y="899.0" type="line"/>
    </contour>
    <contour>
      <point x="1486.47070312" y="959.0" type="line"/>
      <point x="696.470703125" y="959.0" type="line"/>
      <point x="889.375" y="1489.0" type="line"/>
      <point x="1679.375" y="1489.0" type="line"/>
    </contour>
  </outline>
</glyph>
<glyph name="nine" format="2">
  <advance width="2048"/>
  <unicode hex="0039"/>
  <outline>
    <contour>
      <point x="1410.62988281" y="759.0" type="line"/>
      <point x="1155.8515625" y="59.0" type="line"/>
      <point x="313.8515625" y="59.0" type="line"/>
      <point x="292.376953125" y="0.0" type="line"/>
      <point x="1190.37695312" y="0.0" type="line"/>
      <point x="1755.62304688" y="1553.0" type="line"/>
      <point x="835.623046875" y="1553.0" type="line"/>
      <point x="831.254882812" y="1541.0" type="line"/>
      <point x="546.629882812" y="759.0" type="line"/>
    </contour>
    <contour>
      <point x="1429.10449219" y="818.0" type="line"/>
      <point x="628.104492188" y="818.0" type="line"/>
      <point x="874.512695312" y="1495.0" type="line"/>
      <point x="1675.51269531" y="1495.0" type="line"/>
    </contour>
  </outline>
</glyph>
<glyph name="colon" format="2">
  <advance width="2048"/>
  <unicode hex="003A"/>
  <outline>
    <contour>
      <point x="913.779296875" y="164.0" type="line"/>
      <point x="856.63671875" y="7.0" type="line"/>
      <point x="992.63671875" y="7.0" type="line"/>
      <point x="1049.77929688" y="164.0" type="line"/>
    </contour>
    <contour>
      <point x="1055.36328125" y="553.0" type="line"/>
      <point x="998.220703125" y="396.0" type="line"/>
      <point x="1134.22070312" y="396.0" type="line"/>
      <point x="1191.36328125" y="553.0" type="line"/>
    </contour>
  </outline>
</glyph>
<glyph name="semicolon" format="2">
  <advance width="1024"/>
  <unicode hex="003B"/>
  <outline>
    <contour>
      <point x="503.691" y="164" type="line"/>
      <point x="446.548" y="7" type="line"/>
      <point x="582.548" y="7" type="line"/>
      <point x="639.691" y="164" type="line"/>
    </contour>
    <contour>
      <point x="577.136" y="135" type="line"/>
      <point x="449.967" y="-99" type="line"/>
      <point x="482.133" y="-148" type="line"/>
      <point x="587.463" y="26" type="line"/>
    </contour>
    <contour>
      <point x="627.077" y="503" type="line"/>
      <point x="569.934" y="346" type="line"/>
      <point x="705.934" y="346" type="line"/>
      <point x="763.077" y="503" type="line"/>
    </contour>
  </outline>
</glyph>
<glyph name="less" format="2">
  <advance width="1024"/>
  <unicode hex="003C"/>
  <outline>
    <contour>
      <point x="340.309" y="652" type="line"/>
      <point x="310.099" y="569" type="line"/>
      <point x="1265.32" y="946" type="line"/>
      <point x="1289.7" y="1013" type="line"/>
    </contour>
    <contour>
      <point x="340.309" y="652" type="line"/>
      <point x="310.099" y="569" type="line"/>
      <point x="959.404" y="122" type="line"/>
      <point x="987.43" y="199" type="line"/>
    </contour>
  </outline>
</glyph>
<glyph name="equal" format="2">
  <advance width="2048"/>
  <unicode hex="003D"/>
  <outline>
    <contour>
      <point x="684.0625" y="824.0" type="line"/>
      <point x="647.666015625" y="724.0" type="line"/>
      <point x="1463.66601562" y="724.0" type="line"/>
      <point x="1500.0625" y="824.0" type="line"/>
    </contour>
    <contour>
      <point x="580.6953125" y="540.0" type="line"/>
      <point x="547.9375" y="450.0" type="line"/>
      <point x="1363.9375" y="450.0" type="line"/>
      <point x="1396.6953125" y="540.0" type="line"/>
    </contour>
  </outline>
</glyph>
<glyph name="greater" format="2">
  <advance width="1024"/>
  <unicode hex="003E"/>
  <outline>
    <contour>
      <point x="1151.03" y="632" type="line"/>
      <point x="473.702" y="1013" type="line"/>
      <point x="451.5" y="952" type="line"/>
      <point x="1128.1" y="569" type="line"/>
    </contour>
    <contour>
      <point x="1151.03" y="632" type="line"/>
      <point x="170.698" y="186" type="line"/>
      <point x="147.404" y="122" type="line"/>
      <point x="1128.1" y="569" type="line"/>
    </contour>
  </outline>
</glyph>
<glyph name="question" format="2">
  <advance width="1024"/>
  <unicode hex="003F"/>
  <outline>
    <contour>
      <point x="416.772460938" y="134.0" type="line"/>
      <point x="368.0" y="0.0" type="line"/>
      <point x="480.0" y="0.0" type="line"/>
      <point x="528.772460938" y="134.0" type="line"/>
    </contour>
    <contour>
      <point x="744.87109375" y="1519.0" type="line"/>
      <point x="711.021484375" y="1426.0" type="line"/>
      <point x="1347.02148438" y="1426.0" type="line"/>
      <point x="1380.87109375" y="1519.0" type="line"/>
    </contour>
    <contour>
      <point x="1297.05078125" y="1514.0" type="line"/>
      <point x="1097.59570312" y="966.0" type="line"/>
      <point x="1183.59570312" y="966.0" type="line"/>
      <point x="1383.05078125" y="1514.0" type="line"/>
    </contour>
    <contour>
      <point x="737.4296875" y="1015.0" type="line"/>
      <point x="713.043945312" y="948.0" type="line"/>
      <point x="1177.04394531" y="948.0" type="line"/>
      <point x="1201.4296875" y="1015.0" type="line"/>
    </contour>
    <contour>
      <point x="735.973632812" y="1011.0" type="line"/>
      <point x="510.676757812" y="392.0" type="line"/>
      <point x="606.676757812" y="392.0" type="line"/>
      <point x="831.973632812" y="1011.0" type="line"/>
    </contour>
  </outline>
</glyph>
<glyph name="at" format="2">
  <advance width="2048"/>
  <unicode hex="0040"/>
  <outline>
    <contour>
      <point x="825.302734375" y="1023.0" type="line"/>
      <point x="800.916015625" y="956.0" type="line"/>
      <point x="1698.91601562" y="956.0" type="line"/>
      <point x="1723.30273438" y="1023.0" type="line"/>
    </contour>
    <contour>
      <point x="1328.61523438" y="598.0" type="line"/>
      <point x="1110.9609375" y="0.0" type="line"/>
      <point x="1178.9609375" y="0.0" type="line"/>
      <point x="1396.61523438" y="598.0" type="line"/>
    </contour>
    <contour>
      <point x="909.70703125" y="601.0" type="line"/>
      <point x="891.509765625" y="551.0" type="line"/>
      <point x="1315.50976562" y="551.0" type="line"/>
      <point x="1333.70703125" y="601.0" type="line"/>
    </contour>
    <contour>
      <point x="901.33984375" y="589.0" type="line"/>
      <point x="691.328125" y="12.0" type="line"/>
      <point x="745.328125" y="12.0" type="line"/>
      <point x="955.33984375" y="589.0" type="line"/>
    </contour>
    <contour>
      <point x="712.623046875" y="76.0" type="line"/>
      <point x="684.9609375" y="0.0" type="line"/>
      <point x="1178.9609375" y="0.0" type="line"/>
      <point x="1206.62304688" y="76.0" type="line"/>
    </contour>
    <contour>
      <point x="771.302734375" y="1023.0" type="line"/>
      <point x="317.796875" y="-223.0" type="line"/>
      <point x="383.796875" y="-223.0" type="line"/>
      <point x="837.302734375" y="1023.0" type="line"/>
    </contour>
    <contour>
      <point x="331.810546875" y="-179.0" type="line"/>
      <point x="303.056640625" y="-258.0" type="line"/>
      <point x="1251.05664062" y="-258.0" type="line"/>
      <point x="1279.81054688" y="-179.0" type="line"/>
    </contour>
    <contour>
      <point x="1658.94335938" y="1033.0" type="line"/>
      <point x="1282.9609375" y="0.0" type="line"/>
      <point x="1368.9609375" y="0.0" type="line"/>
      <point x="1744.94335938" y="1033.0" type="line"/>
    </contour>
    <contour>
      <point x="1152.62304688" y="76.0" type="line"/>
      <point x="1124.9609375" y="0.0" type="line"/>
      <point x="1314.9609375" y="0.0" type="line"/>
      <point x="1342.62304688" y="76.0" type="line"/>
    </contour>
  </outline>
</glyph>
<glyph name="A" format="2">
  <advance width="2048"/>
  <unicode hex="0041"/>
  <outline>
    <contour>
      <point x="334.2890625" y="16.0" type="line"/>
      <point x="393.2890625" y="16.0" type="line"/>
      <point x="952.7109375" y="1553.0" type="line"/>
      <point x="893.7109375" y="1553.0" type="line"/>
    </contour>
    <contour>
      <point x="930.509765625" y="1492.0" type="line"/>
      <point x="1647.50976562" y="1492.0" type="line"/>
      <point x="1669.7109375" y="1553.0" type="line"/>
      <point x="952.7109375" y="1553.0" type="line"/>
    </contour>
    <contour>
      <point x="734.515625" y="970.0" type="line"/>
      <point x="713.04296875" y="911.0" type="line"/>
      <point x="1436.04296875" y="911.0" type="line"/>
      <point x="1457.515625" y="970.0" type="line"/>
    </contour>
    <contour>
      <point x="1090.28515625" y="5.0" type="line"/>
      <point x="1150.28515625" y="5.0" type="line"/>
      <point x="1713.7109375" y="1553.0" type="line"/>
      <point x="1653.7109375" y="1553.0" type="line"/>
    </contour>
  </outline>
</glyph>
<glyph name="B" format="2">
  <advance width="2048"/>
  <unicode hex="0042"/>
  <outline>
    <contour>
      <point x="359.7734375" y="0.0" type="line"/>
      <point x="416.7734375" y="0.0" type="line"/>
      <point x="982.01953125" y="1553.0" type="line"/>
      <point x="925.01953125" y="1553.0" type="line"/>
    </contour>
    <contour>
      <point x="999.544921875" y="1494.0" type="line"/>
      <point x="1667.11523438" y="1023.0" type="line"/>
      <point x="1688.2265625" y="1081.0" type="line"/>
      <point x="1019.92773438" y="1550.0" type="line"/>
    </contour>
    <contour>
      <point x="773.953125" y="811.0" type="line"/>
      <point x="1667.11523438" y="1023.0" type="line"/>
      <point x="1687.49804688" y="1079.0" type="line"/>
      <point x="795.427734375" y="870.0" type="line"/>
    </contour>
    <contour>
      <point x="483.33984375" y="62.0" type="line"/>
      <point x="460.7734375" y="0.0" type="line"/>
      <point x="1486.73632812" y="434.0" type="line"/>
      <point x="1510.75976562" y="500.0" type="line"/>
    </contour>
    <contour>
      <point x="745.294921875" y="746.0" type="line"/>
      <point x="1486.28125" y="430.0" type="line"/>
      <point x="1512.12304688" y="501.0" type="line"/>
      <point x="767.861328125" y="808.0" type="line"/>
    </contour>
    <contour>
      <point x="730.427734375" y="870.0" type="line"/>
      <point x="708.953125" y="811.0" type="line"/>
      <point x="773.953125" y="811.0" type="line"/>
      <point x="795.427734375" y="870.0" type="line"/>
    </contour>
    <contour>
      <point x="707.861328125" y="808.0" type="line"/>
      <point x="686.0234375" y="748.0" type="line"/>
      <point x="746.0234375" y="748.0" type="line"/>
      <point x="767.861328125" y="808.0" type="line"/>
    </contour>
    <contour>
      <point x="423.33984375" y="62.0" type="line"/>
      <point x="400.7734375" y="0.0" type="line"/>
      <point x="460.7734375" y="0.0" type="line"/>
      <point x="483.33984375" y="62.0" type="line"/>
    </contour>
    <contour>
      <point x="961.01953125" y="1553.0" type="line"/>
      <point x="939.544921875" y="1494.0" type="line"/>
      <point x="999.544921875" y="1494.0" type="line"/>
      <point x="1021.01953125" y="1553.0" type="line"/>
    </contour>
  </outline>
</glyph>
<glyph name="C" format="2">
  <advance width="2048"/>
  <unicode hex="0043"/>
  <outline>
    <contour>
      <point x="865.623046875" y="1553.0" type="line"/>
      <point x="300.376953125" y="0.0" type="line"/>
      <point x="360.376953125" y="0.0" type="line"/>
      <point x="925.623046875" y="1553.0" type="line"/>
    </contour>
    <contour>
      <point x="894.623046875" y="1553.0" type="line"/>
      <point x="873.512695312" y="1495.0" type="line"/>
      <point x="1726.51269531" y="1495.0" type="line"/>
      <point x="1747.62304688" y="1553.0" type="line"/>
    </contour>
    <contour>
      <point x="355.487304688" y="58.0" type="line"/>
      <point x="334.376953125" y="0.0" type="line"/>
      <point x="1180.37695312" y="0.0" type="line"/>
      <point x="1201.48730469" y="58.0" type="line"/>
    </contour>
  </outline>
</glyph>
<glyph name="D" format="2">
  <advance width="1024"/>
  <unicode hex="0044"/>
  <outline>
    <contour>
      <point x="661.24609375" y="1553.0" type="line"/>
      <point x="96.0" y="0.0" type="line"/>
      <point x="156.0" y="0.0" type="line"/>
      <point x="721.24609375" y="1553.0" type="line"/>
    </contour>
    <contour>
      <point x="800.154296875" y="1550.0" type="line"/>
      <point x="779.407226562" y="1493.0" type="line"/>
      <point x="1275.77539062" y="961.0" type="line"/>
      <point x="1298.34179688" y="1023.0" type="line"/>
    </contour>
    <contour>
      <point x="257.110351562" y="58.0" type="line"/>
      <point x="236.0" y="0.0" type="line"/>
      <point x="1277.41113281" y="960.0" type="line"/>
      <point x="1300.34179688" y="1023.0" type="line"/>
    </contour>
    <contour>
      <point x="721.24609375" y="1553.0" type="line"/>
      <point x="699.407226562" y="1493.0" type="line"/>
      <point x="779.407226562" y="1493.0" type="line"/>
      <point x="801.24609375" y="1553.0" type="line"/>
    </contour>
    <contour>
      <point x="179.110351562" y="58.0" type="line"/>
      <point x="158.0" y="0.0" type="line"/>
      <point x="236.0" y="0.0" type="line"/>
      <point x="257.110351562" y="58.0" type="line"/>
    </contour>
  </outline>
</glyph>
<glyph name="E" format="2">
  <advance width="1024"/>
  <unicode hex="0045"/>
  <anchor x="1007.12" y="1633" name="top"/>
  <anchor x="565.123" y="-80" name="base"/>
  <outline>
    <contour>
      <point x="670.154" y="1550" type="line"/>
      <point x="106" y="0" type="line"/>
      <point x="165" y="0" type="line"/>
      <point x="729.154" y="1550" type="line"/>
    </contour>
    <contour>
      <point x="707.246" y="1553" type="line"/>
      <point x="691.315" y="1490" type="line"/>
      <point x="1445.32" y="1490" type="line"/>
      <point x="1468.25" y="1553" type="line"/>
    </contour>
    <contour>
      <point x="170.838" y="60" type="line"/>
      <point x="149" y="0" type="line"/>
      <point x="918" y="0" type="line"/>
      <point x="939.838" y="60" type="line"/>
    </contour>
    <contour>
      <point x="460.65" y="859" type="line"/>
      <point x="438.448" y="798" type="line"/>
      <point x="962.448" y="798" type="line"/>
      <point x="984.65" y="859" type="line"/>
    </contour>
  </outline>
</glyph>
<glyph name="F" format="2">
  <advance width="1024"/>
  <unicode hex="0046"/>
  <outline>
    <contour>
      <point x="388.623046875" y="1553.0" type="line"/>
      <point x="-176.623046875" y="0.0" type="line"/>
      <point x="-118.623046875" y="0.0" type="line"/>
      <point x="446.623046875" y="1553.0" type="line"/>
    </contour>
    <contour>
      <point x="446.623046875" y="1553.0" type="line"/>
      <point x="426.240234375" y="1497.0" type="line"/>
      <point x="1180.24023438" y="1497.0" type="line"/>
      <point x="1200.62304688" y="1553.0" type="line"/>
    </contour>
    <contour>
      <point x="187.84765625" y="864.0" type="line"/>
      <point x="166.737304688" y="806.0" type="line"/>
      <point x="756.737304688" y="806.0" type="line"/>
      <point x="777.84765625" y="864.0" type="line"/>
    </contour>
  </outline>
</glyph>
<glyph name="G" format="2">
  <advance width="1024"/>
  <unicode hex="0047"/>
  <anchor x="1014" y="1653" name="top"/>
  <anchor x="556" y="-50" name="base"/>
  <outline>
    <contour>
      <point x="672" y="1529" type="line"/>
      <point x="115" y="0" type="line"/>
      <point x="174" y="0" type="line"/>
      <point x="731" y="1529" type="line"/>
    </contour>
    <contour>
      <point x="725" y="1529" type="line"/>
      <point x="703" y="1469" type="line"/>
      <point x="1408" y="1469" type="line"/>
      <point x="1430" y="1529" type="line"/>
    </contour>
    <contour>
      <point x="168" y="60" type="line"/>
      <point x="146" y="0" type="line"/>
      <point x="909" y="0" type="line"/>
      <point x="931" y="60" type="line"/>
    </contour>
    <contour>
      <point x="1052" y="561" type="line"/>
      <point x="855" y="18" type="line"/>
      <point x="916" y="18" type="line"/>
      <point x="1113" y="561" type="line"/>
    </contour>
  </outline>
</glyph>
<glyph name="H" format="2">
  <advance width="1024"/>
  <unicode hex="0048"/>
  <anchor x="1004.62" y="1626" name="top"/>
  <anchor x="550.623" y="-54" name="base"/>
  <outline>
    <contour>
      <point x="679.246" y="1553" type="line"/>
      <point x="114" y="0" type="line"/>
      <point x="173" y="0" type="line"/>
      <point x="738.246" y="1553" type="line"/>
    </contour>
    <contour>
      <point x="1414.25" y="1553" type="line"/>
      <point x="849" y="0" type="line"/>
      <point x="910" y="0" type="line"/>
      <point x="1475.25" y="1553" type="line"/>
    </contour>
    <contour>
      <point x="491.944" y="923" type="line"/>
      <point x="470.471" y="864" type="line"/>
      <point x="1187.47" y="864" type="line"/>
      <point x="1208.94" y="923" type="line"/>
    </contour>
  </outline>
</glyph>
<glyph name="I" format="2">
  <advance width="1024"/>
  <unicode hex="0049"/>
  <anchor x="1042" y="1653" name="top"/>
  <anchor x="496" y="-82" name="base"/>
  <outline>
    <contour>
      <point x="718" y="1550" type="line"/>
      <point x="696" y="1489" type="line"/>
      <point x="1397" y="1489" type="line"/>
      <point x="1419" y="1550" type="line"/>
    </contour>
    <contour>
      <point x="1029" y="1515" type="line"/>
      <point x="490" y="34" type="line"/>
      <point x="549" y="34" type="line"/>
      <point x="1088" y="1515" type="line"/>
    </contour>
    <contour>
      <point x="158" y="66" type="line"/>
      <point x="136" y="6" type="line"/>
      <point x="892" y="6" type="line"/>
      <point x="914" y="66" type="line"/>
    </contour>
  </outline>
</glyph>
<glyph name="J" format="2">
  <advance width="1024"/>
  <unicode hex="004A"/>
  <anchor x="493" y="-72" name="base"/>
  <anchor x="1480" y="1625" name="top"/>
  <outline>
    <contour>
      <point x="1396" y="1527" type="line"/>
      <point x="840" y="0" type="line"/>
      <point x="900" y="0" type="line"/>
      <point x="1456" y="1527" type="line"/>
    </contour>
    <contour>
      <point x="146" y="60" type="line"/>
      <point x="124" y="0" type="line"/>
      <point x="866" y="0" type="line"/>
      <point x="888" y="60" type="line"/>
    </contour>
    <contour>
      <point x="307" y="503" type="line"/>
      <point x="134" y="27" type="line"/>
      <point x="194" y="27" type="line"/>
      <point x="367" y="503" type="line"/>
    </contour>
  </outline>
</glyph>
<glyph name="K" format="2">
  <advance width="2048"/>
  <unicode hex="004B"/>
  <outline>
    <contour>
      <point x="983.258789062" y="1553.0" type="line"/>
      <point x="419.833007812" y="5.0" type="line"/>
      <point x="479.833007812" y="5.0" type="line"/>
      <point x="1043.25878906" y="1553.0" type="line"/>
    </contour>
    <contour>
      <point x="845.442382812" y="1015.0" type="line"/>
      <point x="819.600585938" y="944.0" type="line"/>
      <point x="1628.16699219" y="1550.0" type="line"/>
      <point x="1558.16699219" y="1550.0" type="line"/>
    </contour>
    <contour>
      <point x="815.9609375" y="934.0" type="line"/>
      <point x="763.203125" y="844.0" type="line"/>
      <point x="1048.01269531" y="0.0" type="line"/>
      <point x="1098.01269531" y="0.0" type="line"/>
    </contour>
  </outline>
</glyph>
<glyph name="L" format="2">
  <advance width="1024"/>
  <unicode hex="004C"/>
  <outline>
    <contour>
      <point x="686.14453125" y="1553.0" type="line"/>
      <point x="120.8984375" y="0.0" type="line"/>
      <point x="180.8984375" y="0.0" type="line"/>
      <point x="746.14453125" y="1553.0" type="line"/>
    </contour>
    <contour>
      <point x="158.1015625" y="61.0" type="line"/>
      <point x="135.8984375" y="0.0" type="line"/>
      <point x="880.8984375" y="0.0" type="line"/>
      <point x="903.1015625" y="61.0" type="line"/>
    </contour>
  </outline>
</glyph>
<glyph name="M" format="2">
  <advance width="1024"/>
  <unicode hex="004D"/>
  <anchor x="505" y="-48" name="base"/>
  <anchor x="1015" y="1630" name="top"/>
  <outline>
    <contour>
      <point x="665" y="1553" type="line"/>
      <point x="100" y="0" type="line"/>
      <point x="160" y="0" type="line"/>
      <point x="725" y="1553" type="line"/>
    </contour>
    <contour>
      <point x="1427" y="1553" type="line"/>
      <point x="862" y="0" type="line"/>
      <point x="924" y="0" type="line"/>
      <point x="1489" y="1553" type="line"/>
    </contour>
    <contour>
      <point x="665" y="1553" type="line"/>
      <point x="852" y="1033" type="line"/>
      <point x="920" y="1033" type="line"/>
      <point x="725" y="1553" type="line"/>
    </contour>
    <contour>
      <point x="1427" y="1553" type="line"/>
      <point x="852" y="1033" type="line"/>
      <point x="920" y="1033" type="line"/>
      <point x="1489" y="1553" type="line"/>
    </contour>
  </outline>
</glyph>
<glyph name="N" format="2">
  <advance width="1024"/>
  <unicode hex="004E"/>
  <anchor x="1013.12" y="1642" name="top"/>
  <anchor x="541.123" y="-48" name="base"/>
  <outline>
    <contour>
      <point x="663.123" y="1553" type="line"/>
      <point x="98.123" y="0" type="line"/>
      <point x="158.123" y="0" type="line"/>
      <point x="723.123" y="1553" type="line"/>
    </contour>
    <contour>
      <point x="1431.12" y="1553" type="line"/>
      <point x="866.123" y="0" type="line"/>
      <point x="926.123" y="0" type="line"/>
      <point x="1491.12" y="1553" type="line"/>
    </contour>
    <contour>
      <point x="663.123" y="1553" type="line"/>
      <point x="866.123" y="0" type="line"/>
      <point x="926.123" y="0" type="line"/>
      <point x="723.123" y="1553" type="line"/>
    </contour>
  </outline>
</glyph>
<glyph name="O" format="2">
  <advance width="1024"/>
  <unicode hex="004F"/>
  <outline>
    <contour>
      <point x="394.623046875" y="1553.0" type="line"/>
      <point x="-170.623046875" y="0.0" type="line"/>
      <point x="-111.623046875" y="0.0" type="line"/>
      <point x="453.623046875" y="1553.0" type="line"/>
    </contour>
    <contour>
      <point x="1135.62304688" y="1553.0" type="line"/>
      <point x="570.376953125" y="0.0" type="line"/>
      <point x="629.376953125" y="0.0" type="line"/>
      <point x="1194.62304688" y="1553.0" type="line"/>
    </contour>
    <contour>
      <point x="432.623046875" y="1553.0" type="line"/>
      <point x="410.784179688" y="1493.0" type="line"/>
      <point x="1142.78417969" y="1493.0" type="line"/>
      <point x="1164.62304688" y="1553.0" type="line"/>
    </contour>
    <contour>
      <point x="-108.420898438" y="61.0" type="line"/>
      <point x="-130.623046875" y="0.0" type="line"/>
      <point x="607.376953125" y="0.0" type="line"/>
      <point x="629.579101562" y="61.0" type="line"/>
    </contour>
  </outline>
</glyph>
<glyph name="P" format="2">
  <advance width="1024"/>
  <unicode hex="0050"/>
  <outline>
    <contour>
      <point x="408.6171875" y="1535.0" type="line"/>
      <point x="-150.077148438" y="0.0" type="line"/>
      <point x="-91.0771484375" y="0.0" type="line"/>
      <point x="467.6171875" y="1535.0" type="line"/>
    </contour>
    <contour>
      <point x="414.077148438" y="1550.0" type="line"/>
      <point x="385.6875" y="1472.0" type="line"/>
      <point x="1145.6875" y="1472.0" type="line"/>
      <point x="1174.07714844" y="1550.0" type="line"/>
    </contour>
    <contour>
      <point x="1107.98144531" y="1536.0" type="line"/>
      <point x="866.3046875" y="872.0" type="line"/>
      <point x="927.3046875" y="872.0" type="line"/>
      <point x="1168.98144531" y="1536.0" type="line"/>
    </contour>
    <contour>
      <point x="233.779296875" y="931.0" type="line"/>
      <point x="211.94140625" y="871.0" type="line"/>
      <point x="898.94140625" y="871.0" type="line"/>
      <point x="920.779296875" y="931.0" type="line"/>
    </contour>
  </outline>
</glyph>
<glyph name="Q" format="2">
  <advance width="1024"/>
  <unicode hex="0051"/>
  <anchor x="499" y="-41" name="base"/>
  <anchor x="1066" y="1652" name="top"/>
  <outline>
    <contour>
      <point x="677" y="1553" type="line"/>
      <point x="112" y="0" type="line"/>
      <point x="170" y="0" type="line"/>
      <point x="735" y="1553" type="line"/>
    </contour>
    <contour>
      <point x="1419" y="1553" type="line"/>
      <point x="854" y="0" type="line"/>
      <point x="912" y="0" type="line"/>
      <point x="1477" y="1553" type="line"/>
    </contour>
    <contour>
      <point x="717" y="1553" type="line"/>
      <point x="696" y="1496" type="line"/>
      <point x="1406" y="1496" type="line"/>
      <point x="1427" y="1553" type="line"/>
    </contour>
    <contour>
      <point x="175" y="62" type="line"/>
      <point x="152" y="0" type="line"/>
      <point x="864" y="0" type="line"/>
      <point x="887" y="62" type="line"/>
    </contour>
    <contour>
      <point x="621" y="13" type="line"/>
      <point x="648" y="-204" type="line"/>
      <point x="724" y="-165" type="line"/>
      <point x="683" y="52" type="line"/>
    </contour>
  </outline>
</glyph>
<glyph name="R" format="2">
  <advance width="1024"/>
  <unicode hex="0052"/>
  <anchor x="469.077" y="-36" name="base"/>
  <anchor x="1024.08" y="1634" name="top"/>
  <outline>
    <contour>
      <point x="686.077" y="1550" type="line"/>
      <point x="122.077" y="0" type="line"/>
      <point x="182.077" y="0" type="line"/>
      <point x="746.077" y="1550" type="line"/>
    </contour>
    <contour>
      <point x="728.077" y="1550" type="line"/>
      <point x="707.077" y="1491" type="line"/>
      <point x="1399.08" y="1491" type="line"/>
      <point x="1420.08" y="1550" type="line"/>
    </contour>
    <contour>
      <point x="1386.08" y="1550" type="line"/>
      <point x="1139.08" y="872" type="line"/>
      <point x="1201.08" y="872" type="line"/>
      <point x="1448.08" y="1550" type="line"/>
    </contour>
    <contour>
      <point x="490.077" y="929" type="line"/>
      <point x="468.077" y="868" type="line"/>
      <point x="1188.08" y="868" type="line"/>
      <point x="1210.08" y="929" type="line"/>
    </contour>
    <contour>
      <point x="732.077" y="875" type="line"/>
      <point x="846.077" y="0" type="line"/>
      <point x="902.077" y="0" type="line"/>
      <point x="790.077" y="875" type="line"/>
    </contour>
  </outline>
</glyph>
<glyph name="S" format="2">
  <advance width="1024"/>
  <unicode hex="0053"/>
  <anchor x="993.623" y="1638" name="top"/>
  <anchor x="545.623" y="-54" name="base"/>
  <outline>
    <contour>
      <point x="691.246" y="1553" type="line"/>
      <point x="669.771" y="1494" type="line"/>
      <point x="1267.77" y="1494" type="line"/>
      <point x="1289.25" y="1553" type="line"/>
    </contour>
    <contour>
      <point x="687.242" y="1542" type="line"/>
      <point x="500.161" y="1028" type="line"/>
      <point x="559.161" y="1028" type="line"/>
      <point x="746.242" y="1542" type="line"/>
    </contour>
    <contour>
      <point x="175.838" y="60" type="line"/>
      <point x="154" y="0" type="line"/>
      <point x="862" y="0" type="line"/>
      <point x="883.838" y="60" type="line"/>
    </contour>
    <contour>
      <point x="839" y="0" type="line"/>
      <point x="898" y="0" type="line"/>
      <point x="1027.21" y="355" type="line"/>
      <point x="968.209" y="355" type="line"/>
    </contour>
    <contour>
      <point x="500.161" y="1028" type="line"/>
      <point x="968.209" y="355" type="line"/>
      <point x="1027.21" y="355" type="line"/>
      <point x="559.161" y="1028" type="line"/>
    </contour>
  </outline>
</glyph>
<glyph name="T" format="2">
  <advance width="1024"/>
  <unicode hex="0054"/>
  <anchor x="1067.01" y="1634" name="top"/>
  <anchor x="491.009" y="-70" name="base"/>
  <outline>
    <contour>
      <point x="685.009" y="1553" type="line"/>
      <point x="664.009" y="1494" type="line"/>
      <point x="1448.01" y="1494" type="line"/>
      <point x="1469.01" y="1553" type="line"/>
    </contour>
    <contour>
      <point x="1034.01" y="1512" type="line"/>
      <point x="488.009" y="12" type="line"/>
      <point x="546.009" y="12" type="line"/>
      <point x="1092.01" y="1512" type="line"/>
    </contour>
  </outline>
</glyph>
<glyph name="U" format="2">
  <advance width="1024"/>
  <unicode hex="0055"/>
  <outline>
    <contour>
      <point x="722.24609375" y="1553.0" type="line"/>
      <point x="157.0" y="0.0" type="line"/>
      <point x="219.0" y="0.0" type="line"/>
      <point x="784.24609375" y="1553.0" type="line"/>
    </contour>
    <contour>
      <point x="1372.24609375" y="1553.0" type="line"/>
      <point x="807.0" y="0.0" type="line"/>
      <point x="867.0" y="0.0" type="line"/>
      <point x="1432.24609375" y="1553.0" type="line"/>
    </contour>
    <contour>
      <point x="226.202148438" y="61.0" type="line"/>
      <point x="204.0" y="0.0" type="line"/>
      <point x="824.0" y="0.0" type="line"/>
      <point x="846.202148438" y="61.0" type="line"/>
    </contour>
  </outline>
</glyph>
<glyph name="V" format="2">
  <advance width="1024"/>
  <unicode hex="0056"/>
  <anchor x="983" y="1642" name="top"/>
  <anchor x="531" y="-78" name="base"/>
  <outline>
    <contour>
      <point x="671" y="1553" type="line"/>
      <point x="514" y="0" type="line"/>
      <point x="574" y="0" type="line"/>
      <point x="735" y="1553" type="line"/>
    </contour>
    <contour>
      <point x="1413" y="1553" type="line"/>
      <point x="514" y="0" type="line"/>
      <point x="574" y="0" type="line"/>
      <point x="1483" y="1553" type="line"/>
    </contour>
  </outline>
</glyph>
<glyph name="W" format="2">
  <advance width="1024"/>
  <unicode hex="0057"/>
  <outline>
    <contour>
      <point x="388.170898438" y="1550.0" type="line"/>
      <point x="-175.983398438" y="0.0" type="line"/>
      <point x="-115.983398438" y="0.0" type="line"/>
      <point x="448.170898438" y="1550.0" type="line"/>
    </contour>
    <contour>
      <point x="1139.98339844" y="1533.0" type="line"/>
      <point x="586.383789062" y="12.0" type="line"/>
      <point x="646.383789062" y="12.0" type="line"/>
      <point x="1199.98339844" y="1533.0" type="line"/>
    </contour>
    <contour>
      <point x="577.177734375" y="1028.0" type="line"/>
      <point x="203.016601562" y="0.0" type="line"/>
      <point x="263.016601562" y="0.0" type="line"/>
      <point x="637.177734375" y="1028.0" type="line"/>
    </contour>
    <contour>
      <point x="-146.145507812" y="60.0" type="line"/>
      <point x="-167.983398438" y="0.0" type="line"/>
      <point x="642.016601562" y="0.0" type="line"/>
      <point x="663.854492188" y="60.0" type="line"/>
    </contour>
  </outline>
</glyph>
<glyph name="X" format="2">
  <advance width="2048"/>
  <unicode hex="0058"/>
  <outline>
    <contour>
      <point x="888.623046875" y="1553.0" type="line"/>
      <point x="1165.37695312" y="0.0" type="line"/>
      <point x="1239.37695312" y="0.0" type="line"/>
      <point x="960.623046875" y="1553.0" type="line"/>
    </contour>
    <contour>
      <point x="339.376953125" y="0.0" type="line"/>
      <point x="397.376953125" y="0.0" type="line"/>
      <point x="1708.62304688" y="1553.0" type="line"/>
      <point x="1632.62304688" y="1553.0" type="line"/>
    </contour>
  </outline>
</glyph>
<glyph name="Y" format="2">
  <advance width="1024"/>
  <unicode hex="0059"/>
  <outline>
    <contour>
      <point x="805.752929688" y="895.0" type="line"/>
      <point x="480.0" y="0.0" type="line"/>
      <point x="539.0" y="0.0" type="line"/>
      <point x="864.752929688" y="895.0" type="line"/>
    </contour>
    <contour>
      <point x="735.154296875" y="1550.0" type="line"/>
      <point x="483.650390625" y="859.0" type="line"/>
      <point x="544.650390625" y="859.0" type="line"/>
      <point x="796.154296875" y="1550.0" type="line"/>
    </contour>
    <contour>
      <point x="1352.05859375" y="1536.0" type="line"/>
      <point x="1105.65039062" y="859.0" type="line"/>
      <point x="1165.65039062" y="859.0" type="line"/>
      <point x="1412.05859375" y="1536.0" type="line"/>
    </contour>
    <contour>
      <point x="551.48828125" y="919.0" type="line"/>
      <point x="529.650390625" y="859.0" type="line"/>
      <point x="1138.65039062" y="859.0" type="line"/>
      <point x="1160.48828125" y="919.0" type="line"/>
    </contour>
  </outline>
</glyph>
<glyph name="Z" format="2">
  <advance width="2048"/>
  <unicode hex="005A"/>
  <outline>
    <contour>
      <point x="891.577148438" y="1550.0" type="line"/>
      <point x="870.102539062" y="1491.0" type="line"/>
      <point x="1698.10253906" y="1491.0" type="line"/>
      <point x="1719.57714844" y="1550.0" type="line"/>
    </contour>
    <contour>
      <point x="350.260742188" y="60.0" type="line"/>
      <point x="328.422851562" y="0.0" type="line"/>
      <point x="1155.42285156" y="0.0" type="line"/>
      <point x="1177.26074219" y="60.0" type="line"/>
    </contour>
    <contour>
      <point x="1638.10253906" y="1491.0" type="line"/>
      <point x="350.260742188" y="60.0" type="line"/>
      <point x="410.260742188" y="60.0" type="line"/>
      <point x="1698.10253906" y="1491.0" type="line"/>
    </contour>
  </outline>
</glyph>
<glyph name="bracketleft" format="2">
  <advance width="1024"/>
  <unicode hex="005B"/>
  <outline>
    <contour>
      <point x="704.979" y="1542" type="line"/>
      <point x="55.6562" y="-242" type="line"/>
      <point x="112.656" y="-242" type="line"/>
      <point x="761.979" y="1542" type="line"/>
    </contour>
    <contour>
      <point x="759.344" y="1543" type="line"/>
      <point x="736.777" y="1481" type="line"/>
      <point x="945.777" y="1481" type="line"/>
      <point x="968.344" y="1543" type="line"/>
    </contour>
    <contour>
      <point x="118.59" y="-168" type="line"/>
      <point x="91.6562" y="-242" type="line"/>
      <point x="323.656" y="-242" type="line"/>
      <point x="350.59" y="-168" type="line"/>
    </contour>
  </outline>
</glyph>
<glyph name="backslash" format="2">
  <advance width="1024"/>
  <unicode hex="005C"/>
  <outline>
    <contour>
      <point x="474.577148438" y="1550.0" type="line"/>
      <point x="466.422851562" y="0.0" type="line"/>
      <point x="544.422851562" y="0.0" type="line"/>
      <point x="557.577148438" y="1550.0" type="line"/>
    </contour>
  </outline>
</glyph>
<glyph name="bracketright" format="2">
  <advance width="1024"/>
  <unicode hex="005D"/>
  <outline>
    <contour>
      <point x="912" y="1542" type="line"/>
      <point x="262" y="-242" type="line"/>
      <point x="324" y="-242" type="line"/>
      <point x="974" y="1542" type="line"/>
    </contour>
    <contour>
      <point x="700" y="1543" type="line"/>
      <point x="676" y="1478" type="line"/>
      <point x="904" y="1478" type="line"/>
      <point x="928" y="1543" type="line"/>
    </contour>
    <contour>
      <point x="78" y="-165" type="line"/>
      <point x="50" y="-242" type="line"/>
      <point x="289" y="-242" type="line"/>
      <point x="317" y="-165" type="line"/>
    </contour>
  </outline>
</glyph>
<glyph name="asciicircum" format="2">
  <advance width="2048"/>
  <unicode hex="005E"/>
  <outline>
    <contour>
      <point x="1247.48046875" y="1023.0" type="line"/>
      <point x="1175.48046875" y="1023.0" type="line"/>
      <point x="687.2734375" y="407.0" type="line"/>
      <point x="728.8984375" y="373.0" type="line"/>
    </contour>
    <contour>
      <point x="1184.02734375" y="1030.0" type="line"/>
      <point x="1265.62304688" y="364.0" type="line"/>
      <point x="1360.7265625" y="400.0" type="line"/>
      <point x="1258.02734375" y="1030.0" type="line"/>
    </contour>
  </outline>
</glyph>
<glyph name="underscore" format="2">
  <advance width="1024"/>
  <unicode hex="005F"/>
  <outline>
    <contour>
      <point x="7" y="0" type="line"/>
      <point x="-7" y="-40" type="line"/>
      <point x="1017" y="-40" type="line"/>
      <point x="1031" y="0" type="line"/>
    </contour>
  </outline>
</glyph>
<glyph name="grave" format="2">
  <advance width="1024"/>
  <unicode hex="0060"/>
  <outline>
    <contour>
      <point x="457.665039062" y="1286.0" type="line"/>
      <point x="458.31640625" y="1057.0" type="line"/>
      <point x="566.334960938" y="1112.0" type="line"/>
      <point x="557.319335938" y="1340.0" type="line"/>
    </contour>
  </outline>
</glyph>
<glyph name="a" format="2">
  <advance width="2048"/>
  <unicode hex="0061"/>
  <outline>
    <contour>
      <point x="864.534179688" y="1024.0" type="line"/>
      <point x="840.1484375" y="957.0" type="line"/>
      <point x="1489.1484375" y="957.0" type="line"/>
      <point x="1513.17089844" y="1023.0" type="line"/>
    </contour>
    <contour>
      <point x="1475.17089844" y="1023.0" type="line"/>
      <point x="1102.82910156" y="0.0" type="line"/>
      <point x="1179.82910156" y="0.0" type="line"/>
      <point x="1552.17089844" y="1023.0" type="line"/>
    </contour>
    <contour>
      <point x="713.2109375" y="600.0" type="line"/>
      <point x="690.645507812" y="538.0" type="line"/>
      <point x="1314.64550781" y="538.0" type="line"/>
      <point x="1337.2109375" y="600.0" type="line"/>
    </contour>
    <contour>
      <point x="705.83984375" y="577.0" type="line"/>
      <point x="495.829101562" y="0.0" type="line"/>
      <point x="566.829101562" y="0.0" type="line"/>
      <point x="776.83984375" y="577.0" type="line"/>
    </contour>
    <contour>
      <point x="531.762695312" y="74.0" type="line"/>
      <point x="504.829101562" y="0.0" type="line"/>
      <point x="1168.82910156" y="0.0" type="line"/>
      <point x="1195.76269531" y="74.0" type="line"/>
    </contour>
  </outline>
</glyph>
<glyph name="b" format="2">
  <advance width="1024"/>
  <unicode hex="0062"/>
  <anchor x="469" y="-72" name="base"/>
  <anchor x="745.98" y="1622" name="top"/>
  <outline>
    <contour>
      <point x="694.059" y="1536" type="line"/>
      <point x="135" y="0" type="line"/>
      <point x="195" y="0" type="line"/>
      <point x="754.059" y="1536" type="line"/>
    </contour>
    <contour>
      <point x="553.98" y="1033" type="line"/>
      <point x="531.779" y="972" type="line"/>
      <point x="1195.78" y="972" type="line"/>
      <point x="1217.98" y="1033" type="line"/>
    </contour>
    <contour>
      <point x="1204.98" y="1033" type="line"/>
      <point x="829" y="0" type="line"/>
      <point x="889" y="0" type="line"/>
      <point x="1264.98" y="1033" type="line"/>
    </contour>
    <contour>
      <point x="191.838" y="60" type="line"/>
      <point x="170" y="0" type="line"/>
      <point x="867" y="0" type="line"/>
      <point x="888.838" y="60" type="line"/>
    </contour>
  </outline>
</glyph>
<glyph name="c" format="2">
  <advance width="1024"/>
  <unicode hex="0063"/>
  <outline>
    <contour>
      <point x="349.170898438" y="1023.0" type="line"/>
      <point x="328.788085938" y="967.0" type="line"/>
      <point x="1024.78808594" y="967.0" type="line"/>
      <point x="1045.17089844" y="1023.0" type="line"/>
    </contour>
    <contour>
      <point x="336.975585938" y="984.0" type="line"/>
      <point x="-21.1708984375" y="0.0" type="line"/>
      <point x="38.8291015625" y="0.0" type="line"/>
      <point x="396.975585938" y="984.0" type="line"/>
    </contour>
    <contour>
      <point x="48.6669921875" y="60.0" type="line"/>
      <point x="26.8291015625" y="0.0" type="line"/>
      <point x="666.829101562" y="0.0" type="line"/>
      <point x="688.666992188" y="60.0" type="line"/>
    </contour>
  </outline>
</glyph>
<glyph name="d" format="2">
  <advance width="1024"/>
  <unicode hex="0064"/>
  <outline>
    <contour>
      <point x="1387.78125" y="1527.0" type="line"/>
      <point x="832.0" y="0.0" type="line"/>
      <point x="892.0" y="0.0" type="line"/>
      <point x="1447.78125" y="1527.0" type="line"/>
    </contour>
    <contour>
      <point x="548.341796875" y="1023.0" type="line"/>
      <point x="527.595703125" y="966.0" type="line"/>
      <point x="1217.59570312" y="966.0" type="line"/>
      <point x="1238.34179688" y="1023.0" type="line"/>
    </contour>
    <contour>
      <point x="504.341796875" y="1023.0" type="line"/>
      <point x="132.0" y="0.0" type="line"/>
      <point x="192.0" y="0.0" type="line"/>
      <point x="564.341796875" y="1023.0" type="line"/>
    </contour>
    <contour>
      <point x="193.474609375" y="59.0" type="line"/>
      <point x="172.0" y="0.0" type="line"/>
      <point x="844.0" y="0.0" type="line"/>
      <point x="865.474609375" y="59.0" type="line"/>
    </contour>
  </outline>
</glyph>
<glyph name="e" format="2">
  <advance width="1024"/>
  <unicode hex="0065"/>
  <anchor x="713" y="1133" name="top"/>
  <anchor x="366" y="-87" name="base"/>
  <outline>
    <contour>
      <point x="404.171" y="1023" type="line"/>
      <point x="371.608" y="972" type="line"/>
      <point x="1010.61" y="972" type="line"/>
      <point x="1043.17" y="1023" type="line"/>
    </contour>
    <contour>
      <point x="352.171" y="1023" type="line"/>
      <point x="-20.1709" y="0" type="line"/>
      <point x="37.8291" y="0" type="line"/>
      <point x="410.171" y="1023" type="line"/>
    </contour>
    <contour>
      <point x="44.0312" y="61" type="line"/>
      <point x="21.8291" y="0" type="line"/>
      <point x="666.829" y="0" type="line"/>
      <point x="689.031" y="61" type="line"/>
    </contour>
    <contour>
      <point x="184.998" y="506" type="line"/>
      <point x="171.16" y="446" type="line"/>
      <point x="800.16" y="446" type="line"/>
      <point x="821.998" y="506" type="line"/>
    </contour>
    <contour>
      <point x="985.171" y="1023" type="line"/>
      <point x="774.796" y="445" type="line"/>
      <point x="833.796" y="445" type="line"/>
      <point x="1044.17" y="1023" type="line"/>
    </contour>
  </outline>
</glyph>
<glyph name="f" format="2">
  <advance width="1024"/>
  <unicode hex="0066"/>
  <outline>
    <contour>
      <point x="573.056640625" y="1023.0" type="line"/>
      <point x="52.943359375" y="-406.0" type="line"/>
      <point x="112.943359375" y="-406.0" type="line"/>
      <point x="633.056640625" y="1023.0" type="line"/>
    </contour>
    <contour>
      <point x="573.056640625" y="1023.0" type="line"/>
      <point x="551.217773438" y="963.0" type="line"/>
      <point x="949.217773438" y="963.0" type="line"/>
      <point x="971.056640625" y="1023.0" type="line"/>
    </contour>
    <contour>
      <point x="158.869140625" y="462.0" type="line"/>
      <point x="137.03125" y="402.0" type="line"/>
      <point x="615.03125" y="402.0" type="line"/>
      <point x="636.869140625" y="462.0" type="line"/>
    </contour>
  </outline>
</glyph>
<glyph name="g" format="2">
  <advance width="1024"/>
  <unicode hex="0067"/>
  <anchor x="578" y="1176" name="top"/>
  <anchor x="570" y="-460" name="base"/>
  <outline>
    <contour>
      <point x="464" y="1023" type="line"/>
      <point x="92" y="0" type="line"/>
      <point x="152" y="0" type="line"/>
      <point x="524" y="1023" type="line"/>
    </contour>
    <contour>
      <point x="504" y="1023" type="line"/>
      <point x="482" y="962" type="line"/>
      <point x="998" y="962" type="line"/>
      <point x="1020" y="1023" type="line"/>
    </contour>
    <contour>
      <point x="982" y="1023" type="line"/>
      <point x="460" y="-411" type="line"/>
      <point x="520" y="-411" type="line"/>
      <point x="1042" y="1023" type="line"/>
    </contour>
    <contour>
      <point x="176" y="58" type="line"/>
      <point x="155" y="0" type="line"/>
      <point x="612" y="0" type="line"/>
      <point x="633" y="58" type="line"/>
    </contour>
    <contour>
      <point x="3" y="-354" type="line"/>
      <point x="-18" y="-413" type="line"/>
      <point x="471" y="-413" type="line"/>
      <point x="492" y="-354" type="line"/>
    </contour>
  </outline>
</glyph>
<glyph name="h" format="2">
  <advance width="1024"/>
  <unicode hex="0068"/>
  <anchor x="590" y="1631" name="top"/>
  <anchor x="341" y="-52" name="base"/>
  <outline>
    <contour>
      <point x="540.883" y="1525" type="line"/>
      <point x="-11.9883" y="6" type="line"/>
      <point x="47.0117" y="6" type="line"/>
      <point x="599.883" y="1525" type="line"/>
    </contour>
    <contour>
      <point x="399.988" y="1028" type="line"/>
      <point x="378.15" y="968" type="line"/>
      <point x="967.15" y="968" type="line"/>
      <point x="988.988" y="1028" type="line"/>
    </contour>
    <contour>
      <point x="976.988" y="1028" type="line"/>
      <point x="602.828" y="0" type="line"/>
      <point x="661.828" y="0" type="line"/>
      <point x="1035.99" y="1028" type="line"/>
    </contour>
  </outline>
</glyph>
<glyph name="i" format="2">
  <advance width="1024"/>
  <unicode hex="0069"/>
  <anchor x="847" y="1405" name="top"/>
  <anchor x="548" y="-78" name="base"/>
  <outline>
    <contour>
      <point x="852.671" y="1023" type="line"/>
      <point x="499.256" y="52" type="line"/>
      <point x="559.256" y="52" type="line"/>
      <point x="912.671" y="1023" type="line"/>
    </contour>
    <contour>
      <point x="133.167" y="60" type="line"/>
      <point x="111.329" y="0" type="line"/>
      <point x="853.329" y="0" type="line"/>
      <point x="875.167" y="60" type="line"/>
    </contour>
    <contour>
      <point x="764.579" y="1292" type="line"/>
      <point x="721.63" y="1174" type="line"/>
      <point x="834.63" y="1174" type="line"/>
      <point x="877.579" y="1292" type="line"/>
    </contour>
    <contour>
      <point x="533.671" y="1023" type="line"/>
      <point x="511.469" y="962" type="line"/>
      <point x="847.469" y="962" type="line"/>
      <point x="869.671" y="1023" type="line"/>
    </contour>
  </outline>
</glyph>
<glyph name="j" format="2">
  <advance width="2048"/>
  <unicode hex="006A"/>
  <outline>
    <contour>
      <point x="1507.6640625" y="1023.0" type="line"/>
      <point x="985.73046875" y="-411.0" type="line"/>
      <point x="1043.73046875" y="-411.0" type="line"/>
      <point x="1565.6640625" y="1023.0" type="line"/>
    </contour>
    <contour>
      <point x="438.66015625" y="-348.0" type="line"/>
      <point x="417.55078125" y="-406.0" type="line"/>
      <point x="1007.55078125" y="-406.0" type="line"/>
      <point x="1028.66015625" y="-348.0" type="line"/>
    </contour>
    <contour>
      <point x="563.138671875" y="-6.0" type="line"/>
      <point x="427.740234375" y="-378.0" type="line"/>
      <point x="487.740234375" y="-378.0" type="line"/>
      <point x="623.138671875" y="-6.0" type="line"/>
    </contour>
    <contour>
      <point x="1570.44921875" y="1201.0" type="line"/>
      <point x="1548.9765625" y="1142.0" type="line"/>
      <point x="1608.9765625" y="1142.0" type="line"/>
      <point x="1630.44921875" y="1201.0" type="line"/>
    </contour>
  </outline>
</glyph>
<glyph name="k" format="2">
  <advance width="2048"/>
  <unicode hex="006B"/>
  <outline>
    <contour>
      <point x="1042.61328125" y="1535.0" type="line"/>
      <point x="485.739257812" y="5.0" type="line"/>
      <point x="545.739257812" y="5.0" type="line"/>
      <point x="1102.61328125" y="1535.0" type="line"/>
    </contour>
    <contour>
      <point x="686.150390625" y="421.0" type="line"/>
      <point x="661.036132812" y="352.0" type="line"/>
      <point x="1562.26074219" y="1023.0" type="line"/>
      <point x="1502.26074219" y="1023.0" type="line"/>
    </contour>
    <contour>
      <point x="1002.66894531" y="612.0" type="line"/>
      <point x="945.017578125" y="569.0" type="line"/>
      <point x="1294.91894531" y="0.0" type="line"/>
      <point x="1355.91894531" y="0.0" type="line"/>
    </contour>
  </outline>
</glyph>
<glyph name="l" format="2">
  <advance width="2048"/>
  <unicode hex="006C"/>
  <outline>
    <contour>
      <point x="594.083007812" y="72.0" type="line"/>
      <point x="567.876953125" y="0.0" type="line"/>
      <point x="1201.87695312" y="0.0" type="line"/>
      <point x="1228.08300781" y="72.0" type="line"/>
    </contour>
    <contour>
      <point x="1420.12304688" y="1553.0" type="line"/>
      <point x="875.623046875" y="57.0" type="line"/>
      <point x="935.623046875" y="57.0" type="line"/>
      <point x="1480.12304688" y="1553.0" type="line"/>
    </contour>
    <contour>
      <point x="1194.12304688" y="1553.0" type="line"/>
      <point x="1172.6484375" y="1494.0" type="line"/>
      <point x="1407.6484375" y="1494.0" type="line"/>
      <point x="1429.12304688" y="1553.0" type="line"/>
    </contour>
  </outline>
</glyph>
<glyph name="m" format="2">
  <advance width="1024"/>
  <unicode hex="006D"/>
  <anchor x="307" y="-108" name="base"/>
  <anchor x="715" y="1116" name="top"/>
  <outline>
    <contour>
      <point x="272" y="993" type="line"/>
      <point x="-89" y="0" type="line"/>
      <point x="-29" y="0" type="line"/>
      <point x="332" y="993" type="line"/>
    </contour>
    <contour>
      <point x="649" y="972" type="line"/>
      <point x="295" y="0" type="line"/>
      <point x="355" y="0" type="line"/>
      <point x="709" y="972" type="line"/>
    </contour>
    <contour>
      <point x="1036" y="976" type="line"/>
      <point x="681" y="0" type="line"/>
      <point x="741" y="0" type="line"/>
      <point x="1096" y="976" type="line"/>
    </contour>
    <contour>
      <point x="209" y="1023" type="line"/>
      <point x="188" y="966" type="line"/>
      <point x="1092" y="966" type="line"/>
      <point x="1113" y="1023" type="line"/>
    </contour>
  </outline>
</glyph>
<glyph name="n" format="2">
  <advance width="1024"/>
  <unicode hex="006E"/>
  <anchor x="295" y="-57" name="base"/>
  <anchor x="720" y="1113" name="top"/>
  <outline>
    <contour>
      <point x="387" y="990" type="line"/>
      <point x="27" y="0" type="line"/>
      <point x="88" y="0" type="line"/>
      <point x="448" y="990" type="line"/>
    </contour>
    <contour>
      <point x="922" y="976" type="line"/>
      <point x="567" y="0" type="line"/>
      <point x="627" y="0" type="line"/>
      <point x="982" y="976" type="line"/>
    </contour>
    <contour>
      <point x="219" y="1023" type="line"/>
      <point x="199" y="967" type="line"/>
      <point x="977" y="967" type="line"/>
      <point x="997" y="1023" type="line"/>
    </contour>
  </outline>
</glyph>
<glyph name="o" format="2">
  <advance width="1024"/>
  <unicode hex="006F"/>
  <anchor x="744" y="1128" name="top"/>
  <anchor x="335" y="-50" name="base"/>
  <outline>
    <contour>
      <point x="289" y="1023" type="line"/>
      <point x="-83" y="0" type="line"/>
      <point x="-24" y="0" type="line"/>
      <point x="348" y="1023" type="line"/>
    </contour>
    <contour>
      <point x="1046" y="1023" type="line"/>
      <point x="674" y="0" type="line"/>
      <point x="735" y="0" type="line"/>
      <point x="1107" y="1023" type="line"/>
    </contour>
    <contour>
      <point x="350" y="1023" type="line"/>
      <point x="330" y="967" type="line"/>
      <point x="1031" y="967" type="line"/>
      <point x="1051" y="1023" type="line"/>
    </contour>
    <contour>
      <point x="-15" y="62" type="line"/>
      <point x="-37" y="0" type="line"/>
      <point x="682" y="0" type="line"/>
      <point x="704" y="62" type="line"/>
    </contour>
  </outline>
</glyph>
<glyph name="p" format="2">
  <advance width="2048"/>
  <unicode hex="0070"/>
  <outline>
    <contour>
      <point x="1021.56347656" y="1181.0" type="line"/>
      <point x="443.943359375" y="-406.0" type="line"/>
      <point x="503.943359375" y="-406.0" type="line"/>
      <point x="1081.56347656" y="1181.0" type="line"/>
    </contour>
    <contour>
      <point x="1008.05664062" y="1023.0" type="line"/>
      <point x="986.58203125" y="964.0" type="line"/>
      <point x="1572.58203125" y="964.0" type="line"/>
      <point x="1594.05664062" y="1023.0" type="line"/>
    </contour>
    <contour>
      <point x="659.916992188" y="61.0" type="line"/>
      <point x="637.71484375" y="0.0" type="line"/>
      <point x="1233.71484375" y="0.0" type="line"/>
      <point x="1255.91699219" y="61.0" type="line"/>
    </contour>
    <contour>
      <point x="1546.05664062" y="1023.0" type="line"/>
      <point x="1173.71484375" y="0.0" type="line"/>
      <point x="1231.71484375" y="0.0" type="line"/>
      <point x="1604.05664062" y="1023.0" type="line"/>
    </contour>
  </outline>
</glyph>
<glyph name="q" format="2">
  <advance width="1024"/>
  <unicode hex="0071"/>
  <anchor x="1039" y="1300" name="top"/>
  <anchor x="457" y="-496" name="base"/>
  <outline>
    <contour>
      <point x="1004.2" y="1188" type="line"/>
      <point x="424.03" y="-406" type="line"/>
      <point x="484.03" y="-406" type="line"/>
      <point x="1064.2" y="1188" type="line"/>
    </contour>
    <contour>
      <point x="340.144" y="1023" type="line"/>
      <point x="317.577" y="961" type="line"/>
      <point x="965.577" y="961" type="line"/>
      <point x="988.144" y="1023" type="line"/>
    </contour>
    <contour>
      <point x="-5.45215" y="57" type="line"/>
      <point x="-26.1982" y="0" type="line"/>
      <point x="589.802" y="0" type="line"/>
      <point x="610.548" y="57" type="line"/>
    </contour>
    <contour>
      <point x="332.144" y="1023" type="line"/>
      <point x="-40.1982" y="0" type="line"/>
      <point x="17.8018" y="0" type="line"/>
      <point x="390.144" y="1023" type="line"/>
    </contour>
    <contour>
      <point x="450.596" y="-344" type="line"/>
      <point x="428.03" y="-406" type="line"/>
      <point x="560.03" y="-406" type="line"/>
      <point x="582.596" y="-344" type="line"/>
    </contour>
  </outline>
</glyph>
<glyph name="r" format="2">
  <advance width="1024"/>
  <unicode hex="0072"/>
  <anchor x="675" y="1114" name="top"/>
  <anchor x="77" y="-91" name="base"/>
  <outline>
    <contour>
      <point x="225" y="1023" type="line"/>
      <point x="203" y="961" type="line"/>
      <point x="935" y="961" type="line"/>
      <point x="957" y="1023" type="line"/>
    </contour>
    <contour>
      <point x="427" y="989" type="line"/>
      <point x="67" y="0" type="line"/>
      <point x="127" y="0" type="line"/>
      <point x="487" y="989" type="line"/>
    </contour>
    <contour>
      <point x="880" y="976" type="line"/>
      <point x="761" y="650" type="line"/>
      <point x="821" y="650" type="line"/>
      <point x="940" y="976" type="line"/>
    </contour>
  </outline>
</glyph>
<glyph name="s" format="2">
  <advance width="1024"/>
  <unicode hex="0073"/>
  <outline>
    <contour>
      <point x="394.170898438" y="1023.0" type="line"/>
      <point x="372.696289062" y="964.0" type="line"/>
      <point x="980.696289062" y="964.0" type="line"/>
      <point x="1002.17089844" y="1023.0" type="line"/>
    </contour>
    <contour>
      <point x="394.170898438" y="1023.0" type="line"/>
      <point x="289.7109375" y="736.0" type="line"/>
      <point x="349.7109375" y="736.0" type="line"/>
      <point x="454.170898438" y="1023.0" type="line"/>
    </contour>
    <contour>
      <point x="43.3037109375" y="59.0" type="line"/>
      <point x="21.8291015625" y="0.0" type="line"/>
      <point x="627.829101562" y="0.0" type="line"/>
      <point x="649.303710938" y="59.0" type="line"/>
    </contour>
    <contour>
      <point x="674.65625" y="299.0" type="line"/>
      <point x="570.196289062" y="12.0" type="line"/>
      <point x="632.196289062" y="12.0" type="line"/>
      <point x="736.65625" y="299.0" type="line"/>
    </contour>
    <contour>
      <point x="289.7109375" y="736.0" type="line"/>
      <point x="674.65625" y="299.0" type="line"/>
      <point x="736.65625" y="299.0" type="line"/>
      <point x="349.7109375" y="736.0" type="line"/>
    </contour>
  </outline>
</glyph>
<glyph name="t" format="2">
  <advance width="2048"/>
  <unicode hex="0074"/>
  <outline>
    <contour>
      <point x="1211.33984375" y="1529.0" type="line"/>
      <point x="654.829101562" y="0.0" type="line"/>
      <point x="714.829101562" y="0.0" type="line"/>
      <point x="1271.33984375" y="1529.0" type="line"/>
    </contour>
    <contour>
      <point x="688.666992188" y="60.0" type="line"/>
      <point x="666.829101562" y="0.0" type="line"/>
      <point x="1058.82910156" y="0.0" type="line"/>
      <point x="1080.66699219" y="60.0" type="line"/>
    </contour>
    <contour>
      <point x="719.170898438" y="1023.0" type="line"/>
      <point x="698.060546875" y="965.0" type="line"/>
      <point x="1372.06054688" y="965.0" type="line"/>
      <point x="1393.17089844" y="1023.0" type="line"/>
    </contour>
  </outline>
</glyph>
<glyph name="u" format="2">
  <advance width="1024"/>
  <unicode hex="0075"/>
  <anchor x="689" y="1128" name="top"/>
  <anchor x="355" y="-74" name="base"/>
  <outline>
    <contour>
      <point x="384" y="1034" type="line"/>
      <point x="8" y="0" type="line"/>
      <point x="68" y="0" type="line"/>
      <point x="444" y="1034" type="line"/>
    </contour>
    <contour>
      <point x="958" y="1033" type="line"/>
      <point x="582" y="0" type="line"/>
      <point x="640" y="0" type="line"/>
      <point x="1016" y="1033" type="line"/>
    </contour>
    <contour>
      <point x="76" y="61" type="line"/>
      <point x="54" y="0" type="line"/>
      <point x="756" y="0" type="line"/>
      <point x="778" y="61" type="line"/>
    </contour>
  </outline>
</glyph>
<glyph name="v" format="2">
  <advance width="2048"/>
  <unicode hex="0076"/>
  <outline>
    <contour>
      <point x="608.0" y="1023.0" type="line"/>
      <point x="623.658203125" y="0.0" type="line"/>
      <point x="681.658203125" y="0.0" type="line"/>
      <point x="668.0" y="1023.0" type="line"/>
    </contour>
    <contour>
      <point x="1380.0" y="1023.0" type="line"/>
      <point x="623.658203125" y="0.0" type="line"/>
      <point x="681.658203125" y="0.0" type="line"/>
      <point x="1440.0" y="1023.0" type="line"/>
    </contour>
  </outline>
</glyph>
<glyph name="w" format="2">
  <advance width="1024"/>
  <unicode hex="0077"/>
  <anchor x="304" y="-96" name="base"/>
  <anchor x="711" y="1104" name="top"/>
  <outline>
    <contour>
      <point x="289" y="1023" type="line"/>
      <point x="-83" y="0" type="line"/>
      <point x="-23" y="0" type="line"/>
      <point x="349" y="1023" type="line"/>
    </contour>
    <contour>
      <point x="1049" y="1028" type="line"/>
      <point x="679" y="12" type="line"/>
      <point x="739" y="12" type="line"/>
      <point x="1109" y="1028" type="line"/>
    </contour>
    <contour>
      <point x="517" y="610" type="line"/>
      <point x="295" y="0" type="line"/>
      <point x="355" y="0" type="line"/>
      <point x="577" y="610" type="line"/>
    </contour>
    <contour>
      <point x="-64" y="59" type="line"/>
      <point x="-85" y="0" type="line"/>
      <point x="735" y="0" type="line"/>
      <point x="756" y="59" type="line"/>
    </contour>
  </outline>
</glyph>
<glyph name="x" format="2">
  <advance width="2048"/>
  <unicode hex="0078"/>
  <outline>
    <contour>
      <point x="331.829101562" y="0.0" type="line"/>
      <point x="395.829101562" y="0.0" type="line"/>
      <point x="1716.17089844" y="1023.0" type="line"/>
      <point x="1656.17089844" y="1023.0" type="line"/>
    </contour>
    <contour>
      <point x="714.170898438" y="1023.0" type="line"/>
      <point x="1289.82910156" y="0.0" type="line"/>
      <point x="1353.82910156" y="0.0" type="line"/>
      <point x="774.170898438" y="1023.0" type="line"/>
    </contour>
  </outline>
</glyph>
<glyph name="y" format="2">
  <advance width="2048"/>
  <unicode hex="0079"/>
  <outline>
    <contour>
      <point x="1589.05664062" y="1023.0" type="line"/>
      <point x="1068.94335938" y="-406.0" type="line"/>
      <point x="1128.94335938" y="-406.0" type="line"/>
      <point x="1649.05664062" y="1023.0" type="line"/>
    </contour>
    <contour>
      <point x="418.9609375" y="-351.0" type="line"/>
      <point x="398.943359375" y="-406.0" type="line"/>
      <point x="1115.94335938" y="-406.0" type="line"/>
      <point x="1135.9609375" y="-351.0" type="line"/>
    </contour>
    <contour>
      <point x="919.056640625" y="1023.0" type="line"/>
      <point x="642.802734375" y="264.0" type="line"/>
      <point x="702.802734375" y="264.0" type="line"/>
      <point x="979.056640625" y="1023.0" type="line"/>
    </contour>
    <contour>
      <point x="664.641601562" y="324.0" type="line"/>
      <point x="642.802734375" y="264.0" type="line"/>
      <point x="1332.80273438" y="264.0" type="line"/>
      <point x="1354.64160156" y="324.0" type="line"/>
    </contour>
  </outline>
</glyph>
<glyph name="z" format="2">
  <advance width="1024"/>
  <unicode hex="007A"/>
  <anchor x="744" y="1121" name="top"/>
  <anchor x="460" y="-60" name="base"/>
  <outline>
    <contour>
      <point x="284" y="1023" type="line"/>
      <point x="263" y="964" type="line"/>
      <point x="1091" y="964" type="line"/>
      <point x="1112" y="1023" type="line"/>
    </contour>
    <contour>
      <point x="-67" y="59" type="line"/>
      <point x="-88" y="0" type="line"/>
      <point x="740" y="0" type="line"/>
      <point x="761" y="59" type="line"/>
    </contour>
    <contour>
      <point x="1014" y="964" type="line"/>
      <point x="-67" y="59" type="line"/>
      <point x="11" y="59" type="line"/>
      <point x="1091" y="964" type="line"/>
    </contour>
  </outline>
</glyph>
<glyph name="braceleft" format="2">
  <advance width="1024"/>
  <unicode hex="007B"/>
  <outline>
    <contour>
      <point x="691.794921875" y="1544.0" type="line"/>
      <point x="434.83203125" y="838.0" type="line"/>
      <point x="518.83203125" y="838.0" type="line"/>
      <point x="775.794921875" y="1544.0" type="line"/>
    </contour>
    <contour>
      <point x="296.1484375" y="424.0" type="line"/>
      <point x="37.73046875" y="-286.0" type="line"/>
      <point x="127.73046875" y="-286.0" type="line"/>
      <point x="386.1484375" y="424.0" type="line"/>
    </contour>
    <contour>
      <point x="91.96484375" y="690.0" type="line"/>
      <point x="70.126953125" y="630.0" type="line"/>
      <point x="518.83203125" y="838.0" type="line"/>
      <point x="434.83203125" y="838.0" type="line"/>
    </contour>
    <contour>
      <point x="91.96484375" y="690.0" type="line"/>
      <point x="70.126953125" y="630.0" type="line"/>
      <point x="294.513671875" y="425.0" type="line"/>
      <point x="387.513671875" y="425.0" type="line"/>
    </contour>
    <contour>
      <point x="714.26953125" y="1603.0" type="line"/>
      <point x="659.310546875" y="1452.0" type="line"/>
      <point x="971.71484375" y="1574.0" type="line"/>
      <point x="986.26953125" y="1603.0" type="line"/>
    </contour>
    <contour>
      <point x="91.869140625" y="-140.0" type="line"/>
      <point x="38.3671875" y="-287.0" type="line"/>
      <point x="314.3671875" y="-287.0" type="line"/>
      <point x="319.09765625" y="-274.0" type="line"/>
    </contour>
  </outline>
</glyph>
<glyph name="bar" format="2">
  <advance width="1024"/>
  <unicode hex="007C"/>
  <outline>
    <contour>
      <point x="749.52734375" y="1435.0" type="line"/>
      <point x="194.47265625" y="-90.0" type="line"/>
      <point x="274.47265625" y="-90.0" type="line"/>
      <point x="829.52734375" y="1435.0" type="line"/>
    </contour>
  </outline>
</glyph>
<glyph name="braceright" format="2">
  <advance width="1024"/>
  <unicode hex="007D"/>
  <outline>
    <contour>
      <point x="985.931640625" y="1544.0" type="line"/>
      <point x="885.931640625" y="1544.0" type="line"/>
      <point x="628.96875" y="838.0" type="line"/>
      <point x="728.96875" y="838.0" type="line"/>
    </contour>
    <contour>
      <point x="564.28515625" y="424.0" type="line"/>
      <point x="471.28515625" y="424.0" type="line"/>
      <point x="212.865234375" y="-286.0" type="line"/>
      <point x="305.865234375" y="-286.0" type="line"/>
    </contour>
    <contour>
      <point x="948.1015625" y="690.0" type="line"/>
      <point x="723.96875" y="838.0" type="line"/>
      <point x="624.96875" y="838.0" type="line"/>
      <point x="926.26171875" y="630.0" type="line"/>
    </contour>
    <contour>
      <point x="948.1015625" y="690.0" type="line"/>
      <point x="471.28515625" y="424.0" type="line"/>
      <point x="564.28515625" y="424.0" type="line"/>
      <point x="926.26171875" y="630.0" type="line"/>
    </contour>
    <contour>
      <point x="1008.40625" y="1603.0" type="line"/>
      <point x="733.40625" y="1603.0" type="line"/>
      <point x="726.849609375" y="1574.0" type="line"/>
      <point x="953.4453125" y="1452.0" type="line"/>
    </contour>
    <contour>
      <point x="344.005859375" y="-140.0" type="line"/>
      <point x="19.234375" y="-274.0" type="line"/>
      <point x="15.59375" y="-284.0" type="line"/>
      <point x="291.59375" y="-284.0" type="line"/>
    </contour>
  </outline>
</glyph>
<glyph name="asciitilde" format="2">
  <advance width="1024"/>
  <unicode hex="007E"/>
  <outline>
    <contour>
      <point x="372.732421875" y="766.0" type="line"/>
      <point x="354.53515625" y="716.0" type="line"/>
      <point x="678.693359375" y="645.0" type="line"/>
      <point x="696.890625" y="695.0" type="line"/>
    </contour>
    <contour>
      <point x="112.3515625" y="710.0" type="line"/>
      <point x="105.240234375" y="652.0" type="line"/>
      <point x="354.53515625" y="716.0" type="line"/>
      <point x="372.732421875" y="766.0" type="line"/>
    </contour>
    <contour>
      <point x="696.890625" y="695.0" type="line"/>
      <point x="678.693359375" y="645.0" type="line"/>
      <point x="915.65234375" y="796.0" type="line"/>
      <point x="918.759765625" y="843.0" type="line"/>
    </contour>
  </outline>
</glyph>
<glyph name="exclamdown" format="2">
  <advance width="1024"/>
  <unicode hex="00A1"/>
  <outline>
    <contour>
      <point x="814.523" y="1520" type="line"/>
      <point x="754.523" y="1520" type="line"/>
      <point x="664.259" y="1272" type="line"/>
      <point x="724.259" y="1272" type="line"/>
    </contour>
    <contour>
      <point x="633.998" y="1035" type="line"/>
      <point x="579.998" y="1035" type="line"/>
      <point x="209.477" y="17" type="line"/>
      <point x="267.477" y="17" type="line"/>
    </contour>
  </outline>
</glyph>
<glyph name="cent" format="2">
  <advance width="1024"/>
  <unicode hex="00A2"/>
  <outline>
    <contour>
      <point x="847.406" y="1183" type="line"/>
      <point x="787.406" y="1183" type="line"/>
      <point x="325.527" y="-86" type="line"/>
      <point x="385.527" y="-86" type="line"/>
    </contour>
    <contour>
      <point x="349.171" y="1023" type="line"/>
      <point x="328.425" y="966" type="line"/>
      <point x="1024.42" y="966" type="line"/>
      <point x="1045.17" y="1023" type="line"/>
    </contour>
    <contour>
      <point x="336.976" y="984" type="line"/>
      <point x="-21.1709" y="0" type="line"/>
      <point x="43.8291" y="0" type="line"/>
      <point x="401.976" y="984" type="line"/>
    </contour>
    <contour>
      <point x="50.0312" y="61" type="line"/>
      <point x="27.8291" y="0" type="line"/>
      <point x="666.829" y="0" type="line"/>
      <point x="689.031" y="61" type="line"/>
    </contour>
  </outline>
</glyph>
<glyph name="sterling" format="2">
  <advance width="1024"/>
  <unicode hex="00A3"/>
  <outline>
    <contour>
      <point x="815.302734375" y="1543.0" type="line"/>
      <point x="793.1015625" y="1482.0" type="line"/>
      <point x="982.1015625" y="1482.0" type="line"/>
      <point x="1004.30273438" y="1543.0" type="line"/>
    </contour>
    <contour>
      <point x="195.953125" y="770.0" type="line"/>
      <point x="172.294921875" y="705.0" type="line"/>
      <point x="898.294921875" y="705.0" type="line"/>
      <point x="921.953125" y="770.0" type="line"/>
    </contour>
    <contour>
      <point x="790.939453125" y="1542.0" type="line"/>
      <point x="229.697265625" y="0.0" type="line"/>
      <point x="305.697265625" y="0.0" type="line"/>
      <point x="866.939453125" y="1542.0" type="line"/>
    </contour>
    <contour>
      <point x="45.90234375" y="72.0" type="line"/>
      <point x="19.697265625" y="0.0" type="line"/>
      <point x="745.697265625" y="0.0" type="line"/>
      <point x="771.90234375" y="72.0" type="line"/>
    </contour>
  </outline>
</glyph>
<glyph name="currency" format="2">
  <advance width="2048"/>
  <unicode hex="00A4"/>
  <outline>
    <contour>
      <point x="796.533203125" y="1182.0" type="line"/>
      <point x="424.5546875" y="160.0" type="line"/>
      <point x="484.5546875" y="160.0" type="line"/>
      <point x="856.533203125" y="1182.0" type="line"/>
    </contour>
    <contour>
      <point x="1555.25976562" y="1184.0" type="line"/>
      <point x="1182.5546875" y="160.0" type="line"/>
      <point x="1242.5546875" y="160.0" type="line"/>
      <point x="1615.25976562" y="1184.0" type="line"/>
    </contour>
    <contour>
      <point x="860.3515625" y="1187.0" type="line"/>
      <point x="838.513671875" y="1127.0" type="line"/>
      <point x="1538.51367188" y="1127.0" type="line"/>
      <point x="1560.3515625" y="1187.0" type="line"/>
    </contour>
    <contour>
      <point x="493.12109375" y="222.0" type="line"/>
      <point x="470.5546875" y="160.0" type="line"/>
      <point x="1190.5546875" y="160.0" type="line"/>
      <point x="1213.12109375" y="222.0" type="line"/>
    </contour>
    <contour>
      <point x="747.646484375" y="1251.0" type="line"/>
      <point x="706.154296875" y="1137.0" type="line"/>
      <point x="850.154296875" y="1137.0" type="line"/>
      <point x="891.646484375" y="1251.0" type="line"/>
    </contour>
    <contour>
      <point x="1580.0078125" y="1241.0" type="line"/>
      <point x="1538.51367188" y="1127.0" type="line"/>
      <point x="1680.51367188" y="1127.0" type="line"/>
      <point x="1722.0078125" y="1241.0" type="line"/>
    </contour>
    <contour>
      <point x="367.484375" y="223.0" type="line"/>
      <point x="325.9921875" y="109.0" type="line"/>
      <point x="469.9921875" y="109.0" type="line"/>
      <point x="511.484375" y="223.0" type="line"/>
    </contour>
    <contour>
      <point x="1210.39257812" y="220.0" type="line"/>
      <point x="1168.90039062" y="106.0" type="line"/>
      <point x="1312.90039062" y="106.0" type="line"/>
      <point x="1354.39257812" y="220.0" type="line"/>
    </contour>
  </outline>
</glyph>
<glyph name="yen" format="2">
  <advance width="2048"/>
  <unicode hex="00A5"/>
  <outline>
    <contour>
      <point x="599.720703125" y="673.0" type="line"/>
      <point x="578.610351562" y="615.0" type="line"/>
      <point x="1124.61035156" y="615.0" type="line"/>
      <point x="1145.72070312" y="673.0" type="line"/>
    </contour>
    <contour>
      <point x="514.1875" y="438.0" type="line"/>
      <point x="493.077148438" y="380.0" type="line"/>
      <point x="1039.07714844" y="380.0" type="line"/>
      <point x="1060.1875" y="438.0" type="line"/>
    </contour>
    <contour>
      <point x="936.25" y="897.0" type="line"/>
      <point x="609.768554688" y="0.0" type="line"/>
      <point x="670.768554688" y="0.0" type="line"/>
      <point x="997.25" y="897.0" type="line"/>
    </contour>
    <contour>
      <point x="850.922851562" y="1550.0" type="line"/>
      <point x="599.418945312" y="859.0" type="line"/>
      <point x="658.418945312" y="859.0" type="line"/>
      <point x="909.922851562" y="1550.0" type="line"/>
    </contour>
    <contour>
      <point x="1493.92285156" y="1550.0" type="line"/>
      <point x="1242.41894531" y="859.0" type="line"/>
      <point x="1303.41894531" y="859.0" type="line"/>
      <point x="1554.92285156" y="1550.0" type="line"/>
    </contour>
    <contour>
      <point x="661.256835938" y="919.0" type="line"/>
      <point x="639.0546875" y="858.0" type="line"/>
      <point x="1279.0546875" y="858.0" type="line"/>
      <point x="1301.25683594" y="919.0" type="line"/>
    </contour>
  </outline>
</glyph>
<glyph name="brokenbar" format="2">
  <advance width="1024"/>
  <unicode hex="00A6"/>
  <outline>
    <contour>
      <point x="131.853515625" y="-332.0" type="line"/>
      <point x="175.853515625" y="-332.0" type="line"/>
      <point x="544.918945312" y="682.0" type="line"/>
      <point x="500.918945312" y="682.0" type="line"/>
    </contour>
    <contour>
      <point x="547.227539062" y="790.0" type="line"/>
      <point x="584.227539062" y="790.0" type="line"/>
      <point x="892.146484375" y="1636.0" type="line"/>
      <point x="855.146484375" y="1636.0" type="line"/>
    </contour>
  </outline>
</glyph>
<glyph name="section" format="2">
  <advance width="1024"/>
  <unicode hex="00A7"/>
  <outline>
    <contour>
      <point x="396.14" y="1237" type="line"/>
      <point x="374.665" y="1178" type="line"/>
      <point x="972.665" y="1178" type="line"/>
      <point x="994.14" y="1237" type="line"/>
    </contour>
    <contour>
      <point x="396.14" y="1237" type="line"/>
      <point x="166.11" y="605" type="line"/>
      <point x="229.11" y="605" type="line"/>
      <point x="459.14" y="1237" type="line"/>
    </contour>
    <contour>
      <point x="-89.8857" y="-200" type="line"/>
      <point x="-111.724" y="-260" type="line"/>
      <point x="596.276" y="-260" type="line"/>
      <point x="618.114" y="-200" type="line"/>
    </contour>
    <contour>
      <point x="563.64" y="-259" type="line"/>
      <point x="623.64" y="-259" type="line"/>
      <point x="752.485" y="95" type="line"/>
      <point x="692.485" y="95" type="line"/>
    </contour>
    <contour>
      <point x="166.475" y="606" type="line"/>
      <point x="688.938" y="88" type="line"/>
      <point x="749.938" y="88" type="line"/>
      <point x="224.475" y="606" type="line"/>
    </contour>
    <contour>
      <point x="537.724" y="1626" type="line"/>
      <point x="515.886" y="1566" type="line"/>
      <point x="1113.89" y="1566" type="line"/>
      <point x="1135.72" y="1626" type="line"/>
    </contour>
    <contour>
      <point x="538.815" y="1629" type="line"/>
      <point x="396.14" y="1237" type="line"/>
      <point x="459.14" y="1237" type="line"/>
      <point x="601.815" y="1629" type="line"/>
    </contour>
    <contour>
      <point x="5.9375" y="88" type="line"/>
      <point x="-11.8965" y="39" type="line"/>
      <point x="696.104" y="39" type="line"/>
      <point x="713.938" y="88" type="line"/>
    </contour>
    <contour>
      <point x="688.938" y="88" type="line"/>
      <point x="749.938" y="88" type="line"/>
      <point x="878.783" y="442" type="line"/>
      <point x="817.783" y="442" type="line"/>
    </contour>
    <contour>
      <point x="396.14" y="1237" type="line"/>
      <point x="818.783" y="442" type="line"/>
      <point x="878.783" y="442" type="line"/>
      <point x="459.14" y="1237" type="line"/>
    </contour>
  </outline>
</glyph>
<glyph name="dieresis" format="2">
  <advance width="1024"/>
  <unicode hex="00A8"/>
  <outline>
    <contour>
      <point x="353.199" y="1023" type="line"/>
      <point x="316.801" y="923" type="line"/>
      <point x="428.801" y="923" type="line"/>
      <point x="465.199" y="1023" type="line"/>
    </contour>
    <contour>
      <point x="595.199" y="1023" type="line"/>
      <point x="558.801" y="923" type="line"/>
      <point x="670.801" y="923" type="line"/>
      <point x="707.199" y="1023" type="line"/>
    </contour>
  </outline>
</glyph>
<glyph name="copyright" format="2">
  <advance width="1024"/>
  <unicode hex="00A9"/>
  <outline>
    <contour>
      <point x="292.804" y="1540" type="line"/>
      <point x="-267.711" y="0" type="line"/>
      <point x="-207.711" y="0" type="line"/>
      <point x="352.804" y="1540" type="line"/>
    </contour>
    <contour>
      <point x="1231.71" y="1537" type="line"/>
      <point x="672.289" y="0" type="line"/>
      <point x="732.289" y="0" type="line"/>
      <point x="1291.71" y="1537" type="line"/>
    </contour>
    <contour>
      <point x="344.075" y="1538" type="line"/>
      <point x="321.509" y="1476" type="line"/>
      <point x="1265.51" y="1476" type="line"/>
      <point x="1288.08" y="1538" type="line"/>
    </contour>
    <contour>
      <point x="-233.873" y="60" type="line"/>
      <point x="-255.711" y="0" type="line"/>
      <point x="714.289" y="0" type="line"/>
      <point x="736.127" y="60" type="line"/>
    </contour>
    <contour>
      <point x="413.962" y="1197" type="line"/>
      <point x="391.396" y="1135" type="line"/>
      <point x="825.396" y="1135" type="line"/>
      <point x="847.962" y="1197" type="line"/>
    </contour>
    <contour>
      <point x="398.311" y="1154" type="line"/>
      <point x="102.039" y="340" type="line"/>
      <point x="162.039" y="340" type="line"/>
      <point x="458.311" y="1154" type="line"/>
    </contour>
    <contour>
      <point x="107.862" y="356" type="line"/>
      <point x="85.2959" y="294" type="line"/>
      <point x="525.296" y="294" type="line"/>
      <point x="547.862" y="356" type="line"/>
    </contour>
  </outline>
</glyph>
<glyph name="ordfeminine" format="2">
  <advance width="2048"/>
  <unicode hex="00AA"/>
  <outline>
    <contour>
      <point x="971.357421875" y="1319.0" type="line"/>
      <point x="946.970703125" y="1252.0" type="line"/>
      <point x="1595.97070312" y="1252.0" type="line"/>
      <point x="1620.35742188" y="1319.0" type="line"/>
    </contour>
    <contour>
      <point x="1582.72070312" y="1320.0" type="line"/>
      <point x="1210.015625" y="296.0" type="line"/>
      <point x="1287.015625" y="296.0" type="line"/>
      <point x="1659.72070312" y="1320.0" type="line"/>
    </contour>
    <contour>
      <point x="820.033203125" y="895.0" type="line"/>
      <point x="797.466796875" y="833.0" type="line"/>
      <point x="1421.46679688" y="833.0" type="line"/>
      <point x="1444.03320312" y="895.0" type="line"/>
    </contour>
    <contour>
      <point x="812.662109375" y="872.0" type="line"/>
      <point x="602.287109375" y="294.0" type="line"/>
      <point x="673.287109375" y="294.0" type="line"/>
      <point x="883.662109375" y="872.0" type="line"/>
    </contour>
    <contour>
      <point x="638.583984375" y="369.0" type="line"/>
      <point x="611.287109375" y="294.0" type="line"/>
      <point x="1275.28710938" y="294.0" type="line"/>
      <point x="1302.58398438" y="369.0" type="line"/>
    </contour>
    <contour>
      <point x="412.666015625" y="67.0" type="line"/>
      <point x="388.279296875" y="0.0" type="line"/>
      <point x="1256.27929688" y="0.0" type="line"/>
      <point x="1280.66601562" y="67.0" type="line"/>
    </contour>
  </outline>
</glyph>
<glyph name="guillemotleft" format="2">
  <advance width="1024"/>
  <unicode hex="00AB"/>
  <outline>
    <contour>
      <point x="47.5898" y="509" type="line"/>
      <point x="34.123" y="472" type="line"/>
      <point x="574.854" y="757" type="line"/>
      <point x="584.682" y="784" type="line"/>
    </contour>
    <contour>
      <point x="47.5898" y="509" type="line"/>
      <point x="34.123" y="472" type="line"/>
      <point x="274.733" y="122" type="line"/>
      <point x="296.564" y="160" type="line"/>
    </contour>
    <contour>
      <point x="472.142" y="527" type="line"/>
      <point x="461.586" y="498" type="line"/>
      <point x="975.317" y="783" type="line"/>
      <point x="989.877" y="823" type="line"/>
    </contour>
    <contour>
      <point x="471.142" y="527" type="line"/>
      <point x="460.223" y="497" type="line"/>
      <point x="689.733" y="122" type="line"/>
      <point x="716.561" y="149" type="line"/>
    </contour>
  </outline>
</glyph>
<glyph name="logicalnot" format="2">
  <advance width="1024"/>
  <unicode hex="00AC"/>
  <outline>
    <contour>
      <point x="739.92" y="935" type="line"/>
      <point x="632.549" y="640" type="line"/>
      <point x="685.549" y="640" type="line"/>
      <point x="792.92" y="935" type="line"/>
    </contour>
    <contour>
      <point x="252.92" y="935" type="line"/>
      <point x="231.08" y="875" type="line"/>
      <point x="765.08" y="875" type="line"/>
      <point x="786.92" y="935" type="line"/>
    </contour>
  </outline>
</glyph>
<glyph name="registered" format="2">
  <advance width="1024"/>
  <unicode hex="00AE"/>
  <outline>
    <contour>
      <point x="493" y="1032" type="line"/>
      <point x="300" y="501" type="line"/>
      <point x="337" y="501" type="line"/>
      <point x="530" y="1032" type="line"/>
    </contour>
    <contour>
      <point x="518" y="1032" type="line"/>
      <point x="504" y="994" type="line"/>
      <point x="733" y="994" type="line"/>
      <point x="747" y="1032" type="line"/>
    </contour>
    <contour>
      <point x="718" y="1032" type="line"/>
      <point x="634" y="802" type="line"/>
      <point x="672" y="802" type="line"/>
      <point x="756" y="1032" type="line"/>
    </contour>
    <contour>
      <point x="447" y="848" type="line"/>
      <point x="430" y="801" type="line"/>
      <point x="668" y="801" type="line"/>
      <point x="685" y="848" type="line"/>
    </contour>
    <contour>
      <point x="480" y="809" type="line"/>
      <point x="566" y="500" type="line"/>
      <point x="609" y="500" type="line"/>
      <point x="515" y="809" type="line"/>
    </contour>
    <contour>
      <point x="322" y="1540" type="line"/>
      <point x="-239" y="0" type="line"/>
      <point x="-177" y="0" type="line"/>
      <point x="384" y="1540" type="line"/>
    </contour>
    <contour>
      <point x="1201" y="1537" type="line"/>
      <point x="641" y="0" type="line"/>
      <point x="703" y="0" type="line"/>
      <point x="1263" y="1537" type="line"/>
    </contour>
    <contour>
      <point x="360" y="1538" type="line"/>
      <point x="338" y="1478" type="line"/>
      <point x="1210" y="1478" type="line"/>
      <point x="1232" y="1538" type="line"/>
    </contour>
    <contour>
      <point x="-182" y="61" type="line"/>
      <point x="-204" y="0" type="line"/>
      <point x="688" y="0" type="line"/>
      <point x="710" y="61" type="line"/>
    </contour>
  </outline>
</glyph>
<glyph name="macron" format="2">
  <advance width="1024"/>
  <unicode hex="00AF"/>
  <outline>
    <contour>
      <point x="240.189453125" y="1015.0" type="line"/>
      <point x="223.810546875" y="970.0" type="line"/>
      <point x="783.810546875" y="970.0" type="line"/>
      <point x="800.189453125" y="1015.0" type="line"/>
    </contour>
  </outline>
</glyph>
<glyph name="degree" format="2">
  <advance width="2048"/>
  <unicode hex="00B0"/>
  <outline>
    <contour>
      <point x="941.3984375" y="1439.0" type="line"/>
      <point x="1191.3984375" y="1439.0" type="line"/>
      <point x="1115.69238281" y="1231.0" type="line"/>
      <point x="865.692382812" y="1231.0" type="line"/>
    </contour>
    <contour>
      <point x="900.233398438" y="1488.0" type="line"/>
      <point x="787.766601562" y="1179.0" type="line"/>
      <point x="1147.76660156" y="1179.0" type="line"/>
      <point x="1260.23339844" y="1488.0" type="line"/>
    </contour>
  </outline>
</glyph>
<glyph name="plusminus" format="2">
  <advance width="1024"/>
  <unicode hex="00B1"/>
  <outline>
    <contour>
      <point x="-24.0957" y="110" type="line"/>
      <point x="-46.6621" y="48" type="line"/>
      <point x="779.338" y="48" type="line"/>
      <point x="801.904" y="110" type="line"/>
    </contour>
    <contour>
      <point x="747.275" y="1221" type="line"/>
      <point x="385.854" y="228" type="line"/>
      <point x="446.854" y="228" type="line"/>
      <point x="808.275" y="1221" type="line"/>
    </contour>
    <contour>
      <point x="168.662" y="744" type="line"/>
      <point x="147.551" y="686" type="line"/>
      <point x="1049.55" y="686" type="line"/>
      <point x="1070.66" y="744" type="line"/>
    </contour>
  </outline>
</glyph>
<glyph name="uni00B2" format="2">
  <advance width="1024"/>
  <unicode hex="00B2"/>
  <outline>
    <contour>
      <point x="416.135" y="1522" type="line"/>
      <point x="769.135" y="1522" type="line"/>
      <point x="690.881" y="1307" type="line"/>
      <point x="340.881" y="1307" type="line"/>
      <point x="217.859" y="969" type="line"/>
      <point x="589.859" y="969" type="line"/>
      <point x="597.865" y="991" type="line"/>
      <point x="254.865" y="991" type="line"/>
      <point x="361.873" y="1285" type="line"/>
      <point x="711.873" y="1285" type="line"/>
      <point x="806.141" y="1544" type="line"/>
      <point x="424.141" y="1544" type="line"/>
    </contour>
  </outline>
</glyph>
<glyph name="uni00B3" format="2">
  <advance width="2048"/>
  <unicode hex="00B3"/>
  <outline>
    <contour>
      <point x="783.450195312" y="1246.0" type="line"/>
      <point x="1240.45019531" y="1246.0" type="line"/>
      <point x="1146.91015625" y="989.0" type="line"/>
      <point x="664.91015625" y="989.0" type="line"/>
      <point x="662.90234375" y="967.0" type="line"/>
      <point x="1172.90234375" y="967.0" type="line"/>
      <point x="1385.09765625" y="1550.0" type="line"/>
      <point x="886.09765625" y="1550.0" type="line"/>
      <point x="878.454101562" y="1529.0" type="line"/>
      <point x="1341.45410156" y="1529.0" type="line"/>
      <point x="1246.45800781" y="1268.0" type="line"/>
      <point x="791.458007812" y="1268.0" type="line"/>
    </contour>
  </outline>
</glyph>
<glyph name="acute" format="2">
  <advance width="1024"/>
  <unicode hex="00B4"/>
  <outline>
    <contour>
      <point x="586" y="1553" type="line"/>
      <point x="364" y="1302" type="line"/>
      <point x="436" y="1256" type="line"/>
      <point x="660" y="1511" type="line"/>
    </contour>
  </outline>
</glyph>
<glyph name="mu" format="2">
  <advance width="1024"/>
  <unicode hex="00B5"/>
  <outline>
    <contour>
      <point x="1022.41" y="935" type="line"/>
      <point x="682.098" y="0" type="line"/>
      <point x="742.098" y="0" type="line"/>
      <point x="1082.41" y="935" type="line"/>
    </contour>
    <contour>
      <point x="165.936" y="60" type="line"/>
      <point x="144.098" y="0" type="line"/>
      <point x="712.098" y="0" type="line"/>
      <point x="733.936" y="60" type="line"/>
    </contour>
    <contour>
      <point x="438.41" y="935" type="line"/>
      <point x="-58.4102" y="-430" type="line"/>
      <point x="3.58984" y="-430" type="line"/>
      <point x="500.41" y="935" type="line"/>
    </contour>
  </outline>
</glyph>
<glyph name="paragraph" format="2">
  <advance width="1024"/>
  <unicode hex="00B6"/>
  <outline>
    <contour>
      <point x="8.65234375" y="1044.0" type="line"/>
      <point x="-12.822265625" y="985.0" type="line"/>
      <point x="551.177734375" y="985.0" type="line"/>
      <point x="572.65234375" y="1044.0" type="line"/>
    </contour>
    <contour>
      <point x="192.822265625" y="1550.0" type="line"/>
      <point x="-7.361328125" y="1000.0" type="line"/>
      <point x="54.638671875" y="1000.0" type="line"/>
      <point x="254.822265625" y="1550.0" type="line"/>
    </contour>
    <contour>
      <point x="192.822265625" y="1550.0" type="line"/>
      <point x="172.07421875" y="1493.0" type="line"/>
      <point x="992.07421875" y="1493.0" type="line"/>
      <point x="1012.82226562" y="1550.0" type="line"/>
    </contour>
    <contour>
      <point x="742.822265625" y="1550.0" type="line"/>
      <point x="178.66796875" y="0.0" type="line"/>
      <point x="242.66796875" y="0.0" type="line"/>
      <point x="806.822265625" y="1550.0" type="line"/>
    </contour>
    <contour>
      <point x="974.822265625" y="1550.0" type="line"/>
      <point x="410.66796875" y="0.0" type="line"/>
      <point x="472.66796875" y="0.0" type="line"/>
      <point x="1036.82226562" y="1550.0" type="line"/>
    </contour>
  </outline>
</glyph>
<glyph name="periodcentered" format="2">
  <advance width="1024"/>
  <unicode hex="00B7"/>
  <outline>
    <contour>
      <point x="482.381" y="1056" type="line"/>
      <point x="445.619" y="955" type="line"/>
      <point x="541.619" y="955" type="line"/>
      <point x="578.381" y="1056" type="line"/>
    </contour>
  </outline>
</glyph>
<glyph name="cedilla" format="2">
  <advance width="1024"/>
  <unicode hex="00B8"/>
  <outline>
    <contour>
      <point x="422.764648438" y="236.0" type="line"/>
      <point x="336.8671875" y="0.0" type="line"/>
      <point x="394.8671875" y="0.0" type="line"/>
      <point x="480.764648438" y="236.0" type="line"/>
    </contour>
    <contour>
      <point x="236.952148438" y="-291.0" type="line"/>
      <point x="214.75" y="-352.0" type="line"/>
      <point x="660.75" y="-352.0" type="line"/>
      <point x="682.952148438" y="-291.0" type="line"/>
    </contour>
    <contour>
      <point x="750.25" y="56.0" type="line"/>
      <point x="614.852539062" y="-316.0" type="line"/>
      <point x="673.852539062" y="-316.0" type="line"/>
      <point x="809.25" y="56.0" type="line"/>
    </contour>
    <contour>
      <point x="363.25" y="56.0" type="line"/>
      <point x="342.8671875" y="0.0" type="line"/>
      <point x="788.8671875" y="0.0" type="line"/>
      <point x="809.25" y="56.0" type="line"/>
    </contour>
  </outline>
</glyph>
<glyph name="uni00B9" format="2">
  <advance width="2048"/>
  <unicode hex="00B9"/>
  <outline>
    <contour>
      <point x="867.9609375" y="887.5" type="line"/>
      <point x="897.9609375" y="887.5" type="line"/>
      <point x="1180.0390625" y="1662.5" type="line"/>
      <point x="1150.0390625" y="1662.5" type="line"/>
    </contour>
    <contour>
      <point x="1150.0390625" y="1662.5" type="line"/>
      <point x="1067.97265625" y="1600.5" type="line"/>
      <point x="1088.37695312" y="1586.5" type="line"/>
      <point x="1180.0390625" y="1662.5" type="line"/>
    </contour>
  </outline>
</glyph>
<glyph name="ordmasculine" format="2">
  <advance width="1024"/>
  <unicode hex="00BA"/>
  <outline>
    <contour>
      <point x="634" y="1550" type="line"/>
      <point x="262" y="527" type="line"/>
      <point x="321" y="527" type="line"/>
      <point x="693" y="1550" type="line"/>
    </contour>
    <contour>
      <point x="1391" y="1550" type="line"/>
      <point x="1019" y="527" type="line"/>
      <point x="1080" y="527" type="line"/>
      <point x="1452" y="1550" type="line"/>
    </contour>
    <contour>
      <point x="695" y="1550" type="line"/>
      <point x="675" y="1494" type="line"/>
      <point x="1376" y="1494" type="line"/>
      <point x="1396" y="1550" type="line"/>
    </contour>
    <contour>
      <point x="330" y="589" type="line"/>
      <point x="308" y="527" type="line"/>
      <point x="1027" y="527" type="line"/>
      <point x="1049" y="589" type="line"/>
    </contour>
    <contour>
      <point x="119" y="364" type="line"/>
      <point x="95" y="298" type="line"/>
      <point x="1119" y="298" type="line"/>
      <point x="1143" y="364" type="line"/>
    </contour>
  </outline>
</glyph>
<glyph name="guillemotright" format="2">
  <advance width="1024"/>
  <unicode hex="00BB"/>
  <outline>
    <contour>
      <point x="977.515" y="509" type="line"/>
      <point x="640.606" y="784" type="line"/>
      <point x="630.779" y="757" type="line"/>
      <point x="963.048" y="472" type="line"/>
    </contour>
    <contour>
      <point x="977.515" y="509" type="line"/>
      <point x="474.489" y="160" type="line"/>
      <point x="468.658" y="122" type="line"/>
      <point x="963.048" y="472" type="line"/>
    </contour>
    <contour>
      <point x="566.066" y="527" type="line"/>
      <point x="263.802" y="823" type="line"/>
      <point x="249.242" y="783" type="line"/>
      <point x="556.511" y="498" type="line"/>
    </contour>
    <contour>
      <point x="567.066" y="527" type="line"/>
      <point x="46.4854" y="149" type="line"/>
      <point x="53.6582" y="122" type="line"/>
      <point x="556.147" y="497" type="line"/>
    </contour>
  </outline>
</glyph>
<glyph name="onequarter" format="2">
  <advance width="1024"/>
  <unicode hex="00BC"/>
  <outline>
    <contour>
      <point x="1021.51757812" y="1480.0" type="line"/>
      <point x="-100.517578125" y="10.0" type="line"/>
      <point x="2.482421875" y="10.0" type="line"/>
      <point x="1124.51757812" y="1480.0" type="line"/>
    </contour>
    <contour>
      <point x="504.19140625" y="1045.0" type="line"/>
      <point x="558.19140625" y="1045.0" type="line"/>
      <point x="741.99609375" y="1550.0" type="line"/>
      <point x="687.99609375" y="1550.0" type="line"/>
    </contour>
    <contour>
      <point x="692.99609375" y="1550.0" type="line"/>
      <point x="538.591796875" y="1428.0" type="line"/>
      <point x="545.125" y="1391.0" type="line"/>
      <point x="718.720703125" y="1541.0" type="line"/>
    </contour>
    <contour>
      <point x="522.787109375" y="379.0" type="line"/>
      <point x="861.787109375" y="379.0" type="line"/>
      <point x="726.390625" y="7.0" type="line"/>
      <point x="751.390625" y="7.0" type="line"/>
      <point x="1028.37109375" y="768.0" type="line"/>
      <point x="1002.37109375" y="768.0" type="line"/>
      <point x="871.70703125" y="409.0" type="line"/>
      <point x="559.70703125" y="409.0" type="line"/>
      <point x="691.099609375" y="770.0" type="line"/>
      <point x="665.099609375" y="770.0" type="line"/>
    </contour>
  </outline>
</glyph>
<glyph name="onehalf" format="2">
  <advance width="1024"/>
  <unicode hex="00BD"/>
  <outline>
    <contour>
      <point x="1021.51757812" y="1480.0" type="line"/>
      <point x="-100.517578125" y="10.0" type="line"/>
      <point x="2.482421875" y="10.0" type="line"/>
      <point x="1124.51757812" y="1480.0" type="line"/>
    </contour>
    <contour>
      <point x="466.0" y="1017.0" type="line"/>
      <point x="530.0" y="1017.0" type="line"/>
      <point x="723.99609375" y="1550.0" type="line"/>
      <point x="659.99609375" y="1550.0" type="line"/>
    </contour>
    <contour>
      <point x="659.99609375" y="1550.0" type="line"/>
      <point x="517.708984375" y="1508.0" type="line"/>
      <point x="568.0703125" y="1498.0" type="line"/>
      <point x="723.99609375" y="1550.0" type="line"/>
    </contour>
    <contour>
      <point x="630.595703125" y="623.0" type="line"/>
      <point x="920.595703125" y="623.0" type="line"/>
      <point x="832.515625" y="381.0" type="line"/>
      <point x="545.515625" y="381.0" type="line"/>
      <point x="406.841796875" y="0.0" type="line"/>
      <point x="711.841796875" y="0.0" type="line"/>
      <point x="720.94140625" y="25.0" type="line"/>
      <point x="438.94140625" y="25.0" type="line"/>
      <point x="559.416015625" y="356.0" type="line"/>
      <point x="846.416015625" y="356.0" type="line"/>
      <point x="952.6953125" y="648.0" type="line"/>
      <point x="639.6953125" y="648.0" type="line"/>
    </contour>
  </outline>
</glyph>
<glyph name="questiondown" format="2">
  <advance width="1024"/>
  <unicode hex="00BF"/>
  <outline>
    <contour>
      <point x="929.988" y="1273" type="line"/>
      <point x="1019.53" y="1519" type="line"/>
      <point x="961.525" y="1519" type="line"/>
      <point x="871.624" y="1272" type="line"/>
    </contour>
    <contour>
      <point x="642.654" y="0" type="line"/>
      <point x="664.856" y="61" type="line"/>
      <point x="28.8564" y="61" type="line"/>
      <point x="6.6543" y="0" type="line"/>
    </contour>
    <contour>
      <point x="64.4746" y="5" type="line"/>
      <point x="263.93" y="553" type="line"/>
      <point x="203.93" y="553" type="line"/>
      <point x="4.47461" y="5" type="line"/>
    </contour>
    <contour>
      <point x="650.096" y="504" type="line"/>
      <point x="672.661" y="566" type="line"/>
      <point x="208.661" y="566" type="line"/>
      <point x="186.096" y="504" type="line"/>
    </contour>
    <contour>
      <point x="651.551" y="508" type="line"/>
      <point x="876.849" y="1127" type="line"/>
      <point x="818.849" y="1127" type="line"/>
      <point x="593.551" y="508" type="line"/>
    </contour>
  </outline>
</glyph>
<glyph name="AE" format="2">
  <advance width="1024"/>
  <unicode hex="00C6"/>
  <outline>
    <contour>
      <point x="582" y="62" type="line"/>
      <point x="560" y="0" type="line"/>
      <point x="980" y="0" type="line"/>
      <point x="1002" y="62" type="line"/>
    </contour>
    <contour>
      <point x="108" y="0" type="line"/>
      <point x="170" y="0" type="line"/>
      <point x="734" y="1550" type="line"/>
      <point x="672" y="1550" type="line"/>
    </contour>
    <contour>
      <point x="694" y="1489" type="line"/>
      <point x="1500" y="1489" type="line"/>
      <point x="1522" y="1550" type="line"/>
      <point x="716" y="1550" type="line"/>
    </contour>
    <contour>
      <point x="528" y="1023" type="line"/>
      <point x="507" y="964" type="line"/>
      <point x="1257" y="964" type="line"/>
      <point x="1278" y="1023" type="line"/>
    </contour>
    <contour>
      <point x="534" y="0" type="line"/>
      <point x="594" y="0" type="line"/>
      <point x="1158" y="1550" type="line"/>
      <point x="1098" y="1550" type="line"/>
    </contour>
  </outline>
</glyph>
<glyph name="Eth" format="2">
  <advance width="2048"/>
  <unicode hex="00D0"/>
  <outline>
    <contour>
      <point x="667.641601562" y="935.0" type="line"/>
      <point x="645.075195312" y="873.0" type="line"/>
      <point x="952.075195312" y="873.0" type="line"/>
      <point x="974.641601562" y="935.0" type="line"/>
    </contour>
    <contour>
      <point x="999.575195312" y="1553.0" type="line"/>
      <point x="434.329101562" y="0.0" type="line"/>
      <point x="495.329101562" y="0.0" type="line"/>
      <point x="1060.57519531" y="1553.0" type="line"/>
    </contour>
    <contour>
      <point x="1325.57519531" y="1553.0" type="line"/>
      <point x="1300.4609375" y="1484.0" type="line"/>
      <point x="1592.19628906" y="964.0" type="line"/>
      <point x="1613.67089844" y="1023.0" type="line"/>
    </contour>
    <contour>
      <point x="790.166992188" y="60.0" type="line"/>
      <point x="768.329101562" y="0.0" type="line"/>
      <point x="1592.19628906" y="964.0" type="line"/>
      <point x="1613.67089844" y="1023.0" type="line"/>
    </contour>
    <contour>
      <point x="1039.57519531" y="1553.0" type="line"/>
      <point x="1014.4609375" y="1484.0" type="line"/>
      <point x="1300.4609375" y="1484.0" type="line"/>
      <point x="1325.57519531" y="1553.0" type="line"/>
    </contour>
    <contour>
      <point x="504.166992188" y="60.0" type="line"/>
      <point x="482.329101562" y="0.0" type="line"/>
      <point x="768.329101562" y="0.0" type="line"/>
      <point x="790.166992188" y="60.0" type="line"/>
    </contour>
  </outline>
</glyph>
<glyph name="multiply" format="2">
  <advance width="1024"/>
  <unicode hex="00D7"/>
  <outline>
    <contour>
      <point x="-87.080078125" y="295.0" type="line"/>
      <point x="8.919921875" y="295.0" type="line"/>
      <point x="1111.08007812" y="1323.0" type="line"/>
      <point x="1029.08007812" y="1323.0" type="line"/>
    </contour>
    <contour>
      <point x="284.716796875" y="1322.0" type="line"/>
      <point x="656.37109375" y="288.0" type="line"/>
      <point x="744.37109375" y="288.0" type="line"/>
      <point x="368.716796875" y="1322.0" type="line"/>
    </contour>
  </outline>
</glyph>
<glyph name="Oslash" format="2">
  <advance width="1024"/>
  <unicode hex="00D8"/>
  <anchor x="794" y="1656" name="top"/>
  <anchor x="210" y="-70" name="base"/>
  <outline>
    <contour>
      <point x="1212.01" y="1630" type="line"/>
      <point x="-228.728" y="-48" type="line"/>
      <point x="-198.555" y="-75" type="line"/>
      <point x="1252.73" y="1588" type="line"/>
    </contour>
    <contour>
      <point x="387.258" y="1540" type="line"/>
      <point x="-173.257" y="0" type="line"/>
      <point x="-113.257" y="0" type="line"/>
      <point x="447.258" y="1540" type="line"/>
    </contour>
    <contour>
      <point x="1127.17" y="1537" type="line"/>
      <point x="567.743" y="0" type="line"/>
      <point x="626.743" y="0" type="line"/>
      <point x="1186.17" y="1537" type="line"/>
    </contour>
    <contour>
      <point x="416.529" y="1538" type="line"/>
      <point x="394.691" y="1478" type="line"/>
      <point x="1134.69" y="1478" type="line"/>
      <point x="1156.53" y="1538" type="line"/>
    </contour>
    <contour>
      <point x="-105.959" y="75" type="line"/>
      <point x="-133.257" y="0" type="line"/>
      <point x="567.743" y="0" type="line"/>
      <point x="595.041" y="75" type="line"/>
    </contour>
  </outline>
</glyph>
<glyph name="Thorn" format="2">
  <advance width="2048"/>
  <unicode hex="00DE"/>
  <outline>
    <contour>
      <point x="979.579101562" y="1542.0" type="line"/>
      <point x="421.612304688" y="9.0" type="line"/>
      <point x="481.612304688" y="9.0" type="line"/>
      <point x="1039.57910156" y="1542.0" type="line"/>
    </contour>
    <contour>
      <point x="917.66015625" y="1240.0" type="line"/>
      <point x="898.369140625" y="1187.0" type="line"/>
      <point x="1586.36914062" y="1187.0" type="line"/>
      <point x="1605.66015625" y="1240.0" type="line"/>
    </contour>
    <contour>
      <point x="1566.38769531" y="1242.0" type="line"/>
      <point x="1307.60546875" y="531.0" type="line"/>
      <point x="1367.60546875" y="531.0" type="line"/>
      <point x="1626.38769531" y="1242.0" type="line"/>
    </contour>
    <contour>
      <point x="684.336914062" y="544.0" type="line"/>
      <point x="662.498046875" y="484.0" type="line"/>
      <point x="1348.49804688" y="484.0" type="line"/>
      <point x="1370.33691406" y="544.0" type="line"/>
    </contour>
  </outline>
</glyph>
<glyph name="germandbls" format="2">
  <advance width="1024"/>
  <unicode hex="00DF"/>
  <outline>
    <contour>
      <point x="96.4668" y="1084" type="line"/>
      <point x="74.2646" y="1023" type="line"/>
      <point x="325.265" y="1023" type="line"/>
      <point x="347.467" y="1084" type="line"/>
    </contour>
    <contour>
      <point x="451.077" y="1550" type="line"/>
      <point x="-113.077" y="0" type="line"/>
      <point x="-49.0771" y="0" type="line"/>
      <point x="515.077" y="1550" type="line"/>
    </contour>
    <contour>
      <point x="503.077" y="1550" type="line"/>
      <point x="480.511" y="1488" type="line"/>
      <point x="1087.51" y="1488" type="line"/>
      <point x="1110.08" y="1550" type="line"/>
    </contour>
    <contour>
      <point x="1076.08" y="1550" type="line"/>
      <point x="884.265" y="1023" type="line"/>
      <point x="945.265" y="1023" type="line"/>
      <point x="1137.08" y="1550" type="line"/>
    </contour>
    <contour>
      <point x="902.459" y="1062" type="line"/>
      <point x="664.459" y="1062" type="line"/>
      <point x="578.562" y="826" type="line"/>
      <point x="816.562" y="826" type="line"/>
    </contour>
    <contour>
      <point x="822.569" y="848" type="line"/>
      <point x="577.617" y="175" type="line"/>
      <point x="635.617" y="175" type="line"/>
      <point x="880.569" y="848" type="line"/>
    </contour>
    <contour>
      <point x="298.985" y="187" type="line"/>
      <point x="278.603" y="131" type="line"/>
      <point x="621.603" y="131" type="line"/>
      <point x="641.985" y="187" type="line"/>
    </contour>
  </outline>
</glyph>
<glyph name="ae" format="2">
  <advance width="1024"/>
  <unicode hex="00E6"/>
  <anchor x="501" y="-84" name="base"/>
  <anchor x="910" y="1125" name="top"/>
  <outline>
    <contour>
      <point x="387" y="1023" type="line"/>
      <point x="365" y="961" type="line"/>
      <point x="1255" y="961" type="line"/>
      <point x="1277" y="1023" type="line"/>
    </contour>
    <contour>
      <point x="857" y="1023" type="line"/>
      <point x="485" y="0" type="line"/>
      <point x="545" y="0" type="line"/>
      <point x="917" y="1023" type="line"/>
    </contour>
    <contour>
      <point x="257" y="599" type="line"/>
      <point x="235" y="538" type="line"/>
      <point x="1075" y="538" type="line"/>
      <point x="1097" y="599" type="line"/>
    </contour>
    <contour>
      <point x="248" y="575" type="line"/>
      <point x="39" y="0" type="line"/>
      <point x="99" y="0" type="line"/>
      <point x="308" y="575" type="line"/>
    </contour>
    <contour>
      <point x="59" y="61" type="line"/>
      <point x="37" y="0" type="line"/>
      <point x="957" y="0" type="line"/>
      <point x="979" y="61" type="line"/>
    </contour>
    <contour>
      <point x="1245" y="1023" type="line"/>
      <point x="1069" y="538" type="line"/>
      <point x="1131" y="538" type="line"/>
      <point x="1307" y="1023" type="line"/>
    </contour>
  </outline>
</glyph>
<glyph name="eth" format="2">
  <advance width="1024"/>
  <unicode hex="00F0"/>
  <anchor x="767" y="1633" name="top"/>
  <anchor x="503" y="-143" name="base"/>
  <outline>
    <contour>
      <point x="740.463" y="1550" type="line"/>
      <point x="780.309" y="0" type="line"/>
      <point x="828.309" y="0" type="line"/>
      <point x="796.463" y="1550" type="line"/>
    </contour>
    <contour>
      <point x="480.65" y="1023" type="line"/>
      <point x="459.176" y="964" type="line"/>
      <point x="783.176" y="964" type="line"/>
      <point x="804.65" y="1023" type="line"/>
    </contour>
    <contour>
      <point x="440.65" y="1023" type="line"/>
      <point x="68.3086" y="0" type="line"/>
      <point x="128.309" y="0" type="line"/>
      <point x="500.65" y="1023" type="line"/>
    </contour>
    <contour>
      <point x="135.783" y="59" type="line"/>
      <point x="114.309" y="0" type="line"/>
      <point x="780.309" y="0" type="line"/>
      <point x="801.783" y="59" type="line"/>
    </contour>
    <contour>
      <point x="611.691" y="1416" type="line"/>
      <point x="588.033" y="1351" type="line"/>
      <point x="932.033" y="1351" type="line"/>
      <point x="955.691" y="1416" type="line"/>
    </contour>
  </outline>
</glyph>
<glyph name="divide" format="2">
  <advance width="1024"/>
  <unicode hex="00F7"/>
  <outline>
    <contour>
      <point x="343" y="264" type="line"/>
      <point x="320" y="201" type="line"/>
      <point x="422" y="201" type="line"/>
      <point x="445" y="264" type="line"/>
    </contour>
    <contour>
      <point x="641" y="1111" type="line"/>
      <point x="617" y="1047" type="line"/>
      <point x="708" y="1047" type="line"/>
      <point x="732" y="1111" type="line"/>
    </contour>
    <contour>
      <point x="110" y="662" type="line"/>
      <point x="88" y="600" type="line"/>
      <point x="914" y="600" type="line"/>
      <point x="936" y="662" type="line"/>
    </contour>
  </outline>
</glyph>
<glyph name="oslash" format="2">
  <advance width="1024"/>
  <unicode hex="00F8"/>
  <outline>
    <contour>
      <point x="1136.74804688" y="1125.0" type="line"/>
      <point x="-135.821289062" y="-36.0" type="line"/>
      <point x="-108.196289062" y="-70.0" type="line"/>
      <point x="1159.82128906" y="1073.0" type="line"/>
    </contour>
    <contour>
      <point x="283.623046875" y="1023.0" type="line"/>
      <point x="-88.71875" y="0.0" type="line"/>
      <point x="-28.71875" y="0.0" type="line"/>
      <point x="343.623046875" y="1023.0" type="line"/>
    </contour>
    <contour>
      <point x="1039.62304688" y="1023.0" type="line"/>
      <point x="667.28125" y="0.0" type="line"/>
      <point x="727.28125" y="0.0" type="line"/>
      <point x="1099.62304688" y="1023.0" type="line"/>
    </contour>
    <contour>
      <point x="325.623046875" y="1023.0" type="line"/>
      <point x="303.784179688" y="963.0" type="line"/>
      <point x="1049.78417969" y="963.0" type="line"/>
      <point x="1071.62304688" y="1023.0" type="line"/>
    </contour>
    <contour>
      <point x="-21.7890625" y="63.0" type="line"/>
      <point x="-44.71875" y="0.0" type="line"/>
      <point x="703.28125" y="0.0" type="line"/>
      <point x="726.2109375" y="63.0" type="line"/>
    </contour>
  </outline>
</glyph>
<glyph name="thorn" format="2">
  <advance width="2048"/>
  <unicode hex="00FE"/>
  <outline>
    <contour>
      <point x="982.84765625" y="1034.0" type="line"/>
      <point x="458.73046875" y="-406.0" type="line"/>
      <point x="516.73046875" y="-406.0" type="line"/>
      <point x="1040.84765625" y="1034.0" type="line"/>
    </contour>
    <contour>
      <point x="901.26953125" y="667.0" type="line"/>
      <point x="878.703125" y="605.0" type="line"/>
      <point x="1566.703125" y="605.0" type="line"/>
      <point x="1589.26953125" y="667.0" type="line"/>
    </contour>
    <contour>
      <point x="595.365234375" y="-135.0" type="line"/>
      <point x="573.52734375" y="-195.0" type="line"/>
      <point x="1275.52734375" y="-195.0" type="line"/>
      <point x="1297.36523438" y="-135.0" type="line"/>
    </contour>
    <contour>
      <point x="1521.62695312" y="646.0" type="line"/>
      <point x="1224.62695312" y="-170.0" type="line"/>
      <point x="1284.62695312" y="-170.0" type="line"/>
      <point x="1581.62695312" y="646.0" type="line"/>
    </contour>
  </outline>
</glyph>
<glyph name="dcaron" format="2">
  <advance width="1024"/>
  <unicode hex="010F"/>
  <outline>
    <contour>
      <point x="1041.53320312" y="1527.0" type="line"/>
      <point x="485.75" y="0.0" type="line"/>
      <point x="545.75" y="0.0" type="line"/>
      <point x="1101.53320312" y="1527.0" type="line"/>
    </contour>
    <contour>
      <point x="202.091796875" y="1023.0" type="line"/>
      <point x="179.890625" y="962.0" type="line"/>
      <point x="855.890625" y="962.0" type="line"/>
      <point x="878.091796875" y="1023.0" type="line"/>
    </contour>
    <contour>
      <point x="158.091796875" y="1023.0" type="line"/>
      <point x="-214.25" y="0.0" type="line"/>
      <point x="-156.25" y="0.0" type="line"/>
      <point x="216.091796875" y="1023.0" type="line"/>
    </contour>
    <contour>
      <point x="-176.412109375" y="60.0" type="line"/>
      <point x="-198.25" y="0.0" type="line"/>
      <point x="497.75" y="0.0" type="line"/>
      <point x="519.587890625" y="60.0" type="line"/>
    </contour>
    <contour>
      <point x="1188.25" y="1496.0" type="line"/>
      <point x="1103.80859375" y="1264.0" type="line"/>
      <point x="1153.80859375" y="1264.0" type="line"/>
      <point x="1238.25" y="1496.0" type="line"/>
    </contour>
  </outline>
</glyph>
<glyph name="Dcroat" format="2">
  <advance width="2048"/>
  <unicode hex="0110"/>
  <outline>
    <contour>
      <point x="669.141601562" y="935.0" type="line"/>
      <point x="647.666992188" y="876.0" type="line"/>
      <point x="1123.66699219" y="876.0" type="line"/>
      <point x="1145.14160156" y="935.0" type="line"/>
    </contour>
    <contour>
      <point x="998.983398438" y="1550.0" type="line"/>
      <point x="434.829101562" y="0.0" type="line"/>
      <point x="496.829101562" y="0.0" type="line"/>
      <point x="1060.98339844" y="1550.0" type="line"/>
    </contour>
    <contour>
      <point x="1324.98339844" y="1550.0" type="line"/>
      <point x="1302.41699219" y="1488.0" type="line"/>
      <point x="1570.5859375" y="906.0" type="line"/>
      <point x="1613.17089844" y="1023.0" type="line"/>
    </contour>
    <contour>
      <point x="791.03125" y="61.0" type="line"/>
      <point x="768.829101562" y="0.0" type="line"/>
      <point x="1573.86230469" y="915.0" type="line"/>
      <point x="1613.17089844" y="1023.0" type="line"/>
    </contour>
    <contour>
      <point x="1044.98339844" y="1550.0" type="line"/>
      <point x="1022.41699219" y="1488.0" type="line"/>
      <point x="1302.41699219" y="1488.0" type="line"/>
      <point x="1324.98339844" y="1550.0" type="line"/>
    </contour>
    <contour>
      <point x="499.03125" y="61.0" type="line"/>
      <point x="476.829101562" y="0.0" type="line"/>
      <point x="768.829101562" y="0.0" type="line"/>
      <point x="791.03125" y="61.0" type="line"/>
    </contour>
  </outline>
</glyph>
<glyph name="dcroat" format="2">
  <advance width="1024"/>
  <unicode hex="0111"/>
  <outline>
    <contour>
      <point x="1106.48046875" y="1527.0" type="line"/>
      <point x="550.69921875" y="0.0" type="line"/>
      <point x="610.69921875" y="0.0" type="line"/>
      <point x="1166.48046875" y="1527.0" type="line"/>
    </contour>
    <contour>
      <point x="253.041015625" y="1023.0" type="line"/>
      <point x="230.837890625" y="962.0" type="line"/>
      <point x="922.837890625" y="962.0" type="line"/>
      <point x="945.041015625" y="1023.0" type="line"/>
    </contour>
    <contour>
      <point x="221.041015625" y="1023.0" type="line"/>
      <point x="-151.30078125" y="0.0" type="line"/>
      <point x="-91.30078125" y="0.0" type="line"/>
      <point x="281.041015625" y="1023.0" type="line"/>
    </contour>
    <contour>
      <point x="-81.099609375" y="61.0" type="line"/>
      <point x="-103.30078125" y="0.0" type="line"/>
      <point x="562.69921875" y="0.0" type="line"/>
      <point x="584.900390625" y="61.0" type="line"/>
    </contour>
    <contour>
      <point x="867.30078125" y="1260.0" type="line"/>
      <point x="846.19140625" y="1202.0" type="line"/>
      <point x="1154.19140625" y="1202.0" type="line"/>
      <point x="1175.30078125" y="1260.0" type="line"/>
    </contour>
  </outline>
</glyph>
<glyph name="uni0123" format="2">
  <advance width="2048"/>
  <unicode hex="0123"/>
  <outline>
    <contour>
      <point x="999.330078125" y="1023.0" type="line"/>
      <point x="626.98828125" y="0.0" type="line"/>
      <point x="685.98828125" y="0.0" type="line"/>
      <point x="1058.33007812" y="1023.0" type="line"/>
    </contour>
    <contour>
      <point x="1039.33007812" y="1023.0" type="line"/>
      <point x="1017.85546875" y="964.0" type="line"/>
      <point x="1533.85546875" y="964.0" type="line"/>
      <point x="1555.33007812" y="1023.0" type="line"/>
    </contour>
    <contour>
      <point x="1516.33007812" y="1023.0" type="line"/>
      <point x="994.396484375" y="-411.0" type="line"/>
      <point x="1055.39648438" y="-411.0" type="line"/>
      <point x="1577.33007812" y="1023.0" type="line"/>
    </contour>
    <contour>
      <point x="712.19140625" y="61.0" type="line"/>
      <point x="689.98828125" y="0.0" type="line"/>
      <point x="1146.98828125" y="0.0" type="line"/>
      <point x="1169.19140625" y="61.0" type="line"/>
    </contour>
    <contour>
      <point x="492.142578125" y="-354.0" type="line"/>
      <point x="470.669921875" y="-413.0" type="line"/>
      <point x="1005.66992188" y="-413.0" type="line"/>
      <point x="1027.14257812" y="-354.0" type="line"/>
    </contour>
    <contour>
      <point x="1355.18359375" y="1399.0" type="line"/>
      <point x="1282.02539062" y="1198.0" type="line"/>
      <point x="1343.02539062" y="1198.0" type="line"/>
      <point x="1416.18359375" y="1399.0" type="line"/>
    </contour>
  </outline>
</glyph>
<glyph name="Hbar" format="2">
  <advance width="1024"/>
  <unicode hex="0126"/>
  <outline>
    <contour>
      <point x="379.547851562" y="1540.0" type="line"/>
      <point x="-180.966796875" y="0.0" type="line"/>
      <point x="-120.966796875" y="0.0" type="line"/>
      <point x="439.547851562" y="1540.0" type="line"/>
    </contour>
    <contour>
      <point x="1115.54785156" y="1540.0" type="line"/>
      <point x="555.033203125" y="0.0" type="line"/>
      <point x="615.033203125" y="0.0" type="line"/>
      <point x="1175.54785156" y="1540.0" type="line"/>
    </contour>
    <contour>
      <point x="231.375" y="1023.0" type="line"/>
      <point x="208.081054688" y="959.0" type="line"/>
      <point x="920.081054688" y="959.0" type="line"/>
      <point x="943.375" y="1023.0" type="line"/>
    </contour>
    <contour>
      <point x="280.966796875" y="1434.0" type="line"/>
      <point x="259.127929688" y="1374.0" type="line"/>
      <point x="1183.12792969" y="1374.0" type="line"/>
      <point x="1204.96679688" y="1434.0" type="line"/>
    </contour>
  </outline>
</glyph>
<glyph name="hbar" format="2">
  <advance width="1024"/>
  <unicode hex="0127"/>
  <outline>
    <contour>
      <point x="547.615" y="1541" type="line"/>
      <point x="-11.0791" y="6" type="line"/>
      <point x="48.9209" y="6" type="line"/>
      <point x="607.615" y="1541" type="line"/>
    </contour>
    <contour>
      <point x="393.079" y="1023" type="line"/>
      <point x="372.333" y="966" type="line"/>
      <point x="1006.33" y="966" type="line"/>
      <point x="1027.08" y="1023" type="line"/>
    </contour>
    <contour>
      <point x="976.079" y="1023" type="line"/>
      <point x="603.737" y="0" type="line"/>
      <point x="662.737" y="0" type="line"/>
      <point x="1035.08" y="1023" type="line"/>
    </contour>
    <contour>
      <point x="370.851" y="1429" type="line"/>
      <point x="349.013" y="1369" type="line"/>
      <point x="805.013" y="1369" type="line"/>
      <point x="826.851" y="1429" type="line"/>
    </contour>
  </outline>
</glyph>
<glyph name="dotlessi" format="2">
  <advance width="1024"/>
  <unicode hex="0131"/>
  <anchor x="912" y="1155" name="top"/>
  <anchor x="482" y="-93" name="base"/>
  <outline>
    <contour>
      <point x="853" y="1023" type="line"/>
      <point x="499" y="52" type="line"/>
      <point x="559" y="52" type="line"/>
      <point x="913" y="1023" type="line"/>
    </contour>
    <contour>
      <point x="133" y="60" type="line"/>
      <point x="111" y="0" type="line"/>
      <point x="853" y="0" type="line"/>
      <point x="875" y="60" type="line"/>
    </contour>
    <contour>
      <point x="534" y="1023" type="line"/>
      <point x="511" y="962" type="line"/>
      <point x="847" y="962" type="line"/>
      <point x="870" y="1023" type="line"/>
    </contour>
  </outline>
</glyph>
<glyph name="kgreenlandic" format="2">
  <advance width="1024"/>
  <unicode hex="0138"/>
  <outline>
    <contour>
      <point x="451.981445312" y="1033.0" type="line"/>
      <point x="77.8203125" y="5.0" type="line"/>
      <point x="137.8203125" y="5.0" type="line"/>
      <point x="511.981445312" y="1033.0" type="line"/>
    </contour>
    <contour>
      <point x="278.231445312" y="421.0" type="line"/>
      <point x="253.1171875" y="352.0" type="line"/>
      <point x="1357.34179688" y="1023.0" type="line"/>
      <point x="1297.34179688" y="1023.0" type="line"/>
    </contour>
    <contour>
      <point x="583.831054688" y="582.0" type="line"/>
      <point x="526.1796875" y="539.0" type="line"/>
      <point x="887.0" y="0.0" type="line"/>
      <point x="948.0" y="0.0" type="line"/>
    </contour>
  </outline>
</glyph>
<glyph name="Lcaron" format="2">
  <advance width="2048"/>
  <unicode hex="013D"/>
  <outline>
    <contour>
      <point x="1095.9921875" y="1542.0" type="line"/>
      <point x="534.75" y="0.0" type="line"/>
      <point x="596.75" y="0.0" type="line"/>
      <point x="1157.9921875" y="1542.0" type="line"/>
    </contour>
    <contour>
      <point x="585.31640625" y="62.0" type="line"/>
      <point x="562.75" y="0.0" type="line"/>
      <point x="1370.75" y="0.0" type="line"/>
      <point x="1393.31640625" y="62.0" type="line"/>
    </contour>
    <contour>
      <point x="1473.25" y="1496.0" type="line"/>
      <point x="1388.80859375" y="1264.0" type="line"/>
      <point x="1428.80859375" y="1264.0" type="line"/>
      <point x="1513.25" y="1496.0" type="line"/>
    </contour>
  </outline>
</glyph>
<glyph name="lcaron" format="2">
  <advance width="1024"/>
  <unicode hex="013E"/>
  <outline>
    <contour>
      <point x="19.31640625" y="62.0" type="line"/>
      <point x="-3.25" y="0.0" type="line"/>
      <point x="630.75" y="0.0" type="line"/>
      <point x="653.31640625" y="62.0" type="line"/>
    </contour>
    <contour>
      <point x="856.904296875" y="1550.0" type="line"/>
      <point x="309.4921875" y="46.0" type="line"/>
      <point x="367.4921875" y="46.0" type="line"/>
      <point x="914.904296875" y="1550.0" type="line"/>
    </contour>
    <contour>
      <point x="558.904296875" y="1550.0" type="line"/>
      <point x="536.703125" y="1489.0" type="line"/>
      <point x="848.703125" y="1489.0" type="line"/>
      <point x="870.904296875" y="1550.0" type="line"/>
    </contour>
    <contour>
      <point x="975.25" y="1496.0" type="line"/>
      <point x="890.80859375" y="1264.0" type="line"/>
      <point x="942.80859375" y="1264.0" type="line"/>
      <point x="1027.25" y="1496.0" type="line"/>
    </contour>
  </outline>
</glyph>
<glyph name="Lslash" format="2">
  <advance width="1024"/>
  <unicode hex="0141"/>
  <outline>
    <contour>
      <point x="644" y="1542" type="line"/>
      <point x="83" y="0" type="line"/>
      <point x="143" y="0" type="line"/>
      <point x="704" y="1542" type="line"/>
    </contour>
    <contour>
      <point x="130" y="64" type="line"/>
      <point x="107" y="0" type="line"/>
      <point x="918" y="0" type="line"/>
      <point x="941" y="64" type="line"/>
    </contour>
    <contour>
      <point x="256" y="902" type="line"/>
      <point x="323" y="866" type="line"/>
      <point x="831" y="1068" type="line"/>
      <point x="764" y="1104" type="line"/>
    </contour>
  </outline>
</glyph>
<glyph name="lslash" format="2">
  <advance width="1024"/>
  <unicode hex="0142"/>
  <outline>
    <contour>
      <point x="-16.244140625" y="60.0" type="line"/>
      <point x="-38.08203125" y="0.0" type="line"/>
      <point x="595.91796875" y="0.0" type="line"/>
      <point x="617.755859375" y="60.0" type="line"/>
    </contour>
    <contour>
      <point x="884.1640625" y="1553.0" type="line"/>
      <point x="326.92578125" y="22.0" type="line"/>
      <point x="386.92578125" y="22.0" type="line"/>
      <point x="944.1640625" y="1553.0" type="line"/>
    </contour>
    <contour>
      <point x="588.1640625" y="1553.0" type="line"/>
      <point x="566.32421875" y="1493.0" type="line"/>
      <point x="888.32421875" y="1493.0" type="line"/>
      <point x="910.1640625" y="1553.0" type="line"/>
    </contour>
    <contour>
      <point x="960.08203125" y="1039.0" type="line"/>
      <point x="258.423828125" y="702.0" type="line"/>
      <point x="360.423828125" y="702.0" type="line"/>
      <point x="1062.08203125" y="1039.0" type="line"/>
    </contour>
  </outline>
</glyph>
<glyph name="Eng" format="2">
  <advance width="2048"/>
  <unicode hex="014A"/>
  <outline>
    <contour>
      <point x="677.625" y="-211.0" type="line"/>
      <point x="605.922851562" y="-408.0" type="line"/>
      <point x="992.922851562" y="-408.0" type="line"/>
      <point x="1064.625" y="-211.0" type="line"/>
    </contour>
    <contour>
      <point x="884.73828125" y="1490.0" type="line"/>
      <point x="342.422851562" y="0.0" type="line"/>
      <point x="543.422851562" y="0.0" type="line"/>
      <point x="1085.73828125" y="1490.0" type="line"/>
    </contour>
    <contour>
      <point x="1478.64257812" y="1476.0" type="line"/>
      <point x="792.922851562" y="-408.0" type="line"/>
      <point x="993.922851562" y="-408.0" type="line"/>
      <point x="1679.64257812" y="1476.0" type="line"/>
    </contour>
    <contour>
      <point x="906.577148438" y="1550.0" type="line"/>
      <point x="834.875" y="1353.0" type="line"/>
      <point x="1633.875" y="1353.0" type="line"/>
      <point x="1705.57714844" y="1550.0" type="line"/>
    </contour>
  </outline>
</glyph>
<glyph name="eng" format="2">
  <advance width="1024"/>
  <unicode hex="014B"/>
  <anchor x="724" y="1094" name="top"/>
  <anchor x="228" y="-466" name="base"/>
  <outline>
    <contour>
      <point x="109.531" y="-366" type="line"/>
      <point x="89.8291" y="-408" type="line"/>
      <point x="476.829" y="-408" type="line"/>
      <point x="496.531" y="-366" type="line"/>
    </contour>
    <contour>
      <point x="386.659" y="990" type="line"/>
      <point x="26.3291" y="0" type="line"/>
      <point x="83.3291" y="0" type="line"/>
      <point x="443.659" y="990" type="line"/>
    </contour>
    <contour>
      <point x="921.564" y="976" type="line"/>
      <point x="417.829" y="-408" type="line"/>
      <point x="477.829" y="-408" type="line"/>
      <point x="981.564" y="976" type="line"/>
    </contour>
    <contour>
      <point x="219.671" y="1023" type="line"/>
      <point x="200.969" y="970" type="line"/>
      <point x="978.969" y="970" type="line"/>
      <point x="997.671" y="1023" type="line"/>
    </contour>
  </outline>
</glyph>
<glyph name="OE" format="2">
  <advance width="1024"/>
  <unicode hex="0152"/>
  <anchor x="731" y="1646" name="top"/>
  <anchor x="150" y="-71" name="base"/>
  <outline>
    <contour>
      <point x="410" y="1553" type="line"/>
      <point x="-156" y="0" type="line"/>
      <point x="-97" y="0" type="line"/>
      <point x="469" y="1553" type="line"/>
    </contour>
    <contour>
      <point x="874" y="1553" type="line"/>
      <point x="308" y="0" type="line"/>
      <point x="367" y="0" type="line"/>
      <point x="933" y="1553" type="line"/>
    </contour>
    <contour>
      <point x="448" y="1553" type="line"/>
      <point x="426" y="1493" type="line"/>
      <point x="1158" y="1493" type="line"/>
      <point x="1180" y="1553" type="line"/>
    </contour>
    <contour>
      <point x="-93" y="61" type="line"/>
      <point x="-116" y="0" type="line"/>
      <point x="622" y="0" type="line"/>
      <point x="645" y="61" type="line"/>
    </contour>
    <contour>
      <point x="653" y="859" type="line"/>
      <point x="631" y="798" type="line"/>
      <point x="854" y="798" type="line"/>
      <point x="876" y="859" type="line"/>
    </contour>
  </outline>
</glyph>
<glyph name="oe" format="2">
  <advance width="2048"/>
  <unicode hex="0153"/>
  <outline>
    <contour>
      <point x="1101.49804688" y="506.0" type="line"/>
      <point x="1079.66015625" y="446.0" type="line"/>
      <point x="1379.66015625" y="446.0" type="line"/>
      <point x="1401.49804688" y="506.0" type="line"/>
    </contour>
    <contour>
      <point x="1564.67089844" y="1023.0" type="line"/>
      <point x="1354.29589844" y="445.0" type="line"/>
      <point x="1413.29589844" y="445.0" type="line"/>
      <point x="1623.67089844" y="1023.0" type="line"/>
    </contour>
    <contour>
      <point x="795.670898438" y="1023.0" type="line"/>
      <point x="423.329101562" y="0.0" type="line"/>
      <point x="482.329101562" y="0.0" type="line"/>
      <point x="854.670898438" y="1023.0" type="line"/>
    </contour>
    <contour>
      <point x="1250.67089844" y="1023.0" type="line"/>
      <point x="878.329101562" y="0.0" type="line"/>
      <point x="939.329101562" y="0.0" type="line"/>
      <point x="1311.67089844" y="1023.0" type="line"/>
    </contour>
    <contour>
      <point x="850.670898438" y="1023.0" type="line"/>
      <point x="829.196289062" y="964.0" type="line"/>
      <point x="1603.19628906" y="964.0" type="line"/>
      <point x="1624.67089844" y="1023.0" type="line"/>
    </contour>
    <contour>
      <point x="491.895507812" y="62.0" type="line"/>
      <point x="469.329101562" y="0.0" type="line"/>
      <point x="1261.32910156" y="0.0" type="line"/>
      <point x="1283.89550781" y="62.0" type="line"/>
    </contour>
  </outline>
</glyph>
<glyph name="tcaron" format="2">
  <advance width="1024"/>
  <unicode hex="0165"/>
  <outline>
    <contour>
      <point x="670" y="1529" type="line"/>
      <point x="114" y="0" type="line"/>
      <point x="174" y="0" type="line"/>
      <point x="730" y="1529" type="line"/>
    </contour>
    <contour>
      <point x="148" y="60" type="line"/>
      <point x="126" y="0" type="line"/>
      <point x="518" y="0" type="line"/>
      <point x="540" y="60" type="line"/>
    </contour>
    <contour>
      <point x="178" y="1023" type="line"/>
      <point x="157" y="965" type="line"/>
      <point x="831" y="965" type="line"/>
      <point x="852" y="1023" type="line"/>
    </contour>
    <contour>
      <point x="848" y="1496" type="line"/>
      <point x="783" y="1317" type="line"/>
      <point x="845" y="1317" type="line"/>
      <point x="910" y="1496" type="line"/>
    </contour>
  </outline>
</glyph>
<glyph name="Btopbar" format="2">
  <advance width="1024"/>
  <unicode hex="0182"/>
  <anchor x="708.877" y="1645" name="top"/>
  <anchor x="68.877" y="-99" name="base"/>
  <outline>
    <contour>
      <point x="26.877" y="0" type="line"/>
      <point x="83.877" y="0" type="line"/>
      <point x="648.877" y="1553" type="line"/>
      <point x="591.877" y="1553" type="line"/>
    </contour>
    <contour>
      <point x="150.877" y="62" type="line"/>
      <point x="127.877" y="0" type="line"/>
      <point x="1153.88" y="434" type="line"/>
      <point x="1177.88" y="500" type="line"/>
    </contour>
    <contour>
      <point x="412.877" y="746" type="line"/>
      <point x="1153.88" y="430" type="line"/>
      <point x="1178.88" y="501" type="line"/>
      <point x="434.877" y="808" type="line"/>
    </contour>
    <contour>
      <point x="374.877" y="808" type="line"/>
      <point x="352.877" y="748" type="line"/>
      <point x="412.877" y="748" type="line"/>
      <point x="434.877" y="808" type="line"/>
    </contour>
    <contour>
      <point x="90.877" y="62" type="line"/>
      <point x="67.877" y="0" type="line"/>
      <point x="127.877" y="0" type="line"/>
      <point x="150.877" y="62" type="line"/>
    </contour>
    <contour>
      <point x="627.877" y="1553" type="line"/>
      <point x="606.877" y="1494" type="line"/>
      <point x="1329" y="1494" type="line"/>
      <point x="1350" y="1553" type="line"/>
    </contour>
  </outline>
</glyph>
<glyph name="uni018F" format="2">
  <advance width="1024"/>
  <unicode hex="018F"/>
  <anchor x="1161.27" y="1630" name="top"/>
  <anchor x="647.415" y="-117" name="base"/>
  <outline>
    <contour>
      <point x="804" y="0" type="line"/>
      <point x="833.117" y="80" type="line"/>
      <point x="294.117" y="80" type="line"/>
      <point x="265" y="0" type="line"/>
    </contour>
    <contour>
      <point x="854" y="0" type="line"/>
      <point x="1415.61" y="1543" type="line"/>
      <point x="1339.61" y="1543" type="line"/>
      <point x="778" y="0" type="line"/>
    </contour>
    <contour>
      <point x="1318.22" y="1465" type="line"/>
      <point x="1346.61" y="1543" type="line"/>
      <point x="731.606" y="1543" type="line"/>
      <point x="703.217" y="1465" type="line"/>
    </contour>
    <contour>
      <point x="1075.54" y="801" type="line"/>
      <point x="1099.93" y="868" type="line"/>
      <point x="445.926" y="868" type="line"/>
      <point x="421.54" y="801" type="line"/>
    </contour>
    <contour>
      <point x="354.919" y="30" type="line"/>
      <point x="500.29" y="869" type="line"/>
      <point x="423.29" y="869" type="line"/>
      <point x="277.919" y="30" type="line"/>
    </contour>
  </outline>
</glyph>
<glyph name="Eopen" format="2">
  <advance width="1024"/>
  <unicode hex="0190"/>
  <outline>
    <contour>
      <point x="518" y="1542" type="line"/>
      <point x="345" y="860" type="line"/>
      <point x="405" y="859" type="line"/>
      <point x="578" y="1541" type="line"/>
    </contour>
    <contour>
      <point x="561" y="1541" type="line"/>
      <point x="486" y="1481" type="line"/>
      <point x="1240" y="1481" type="line"/>
      <point x="1315" y="1541" type="line"/>
    </contour>
    <contour>
      <point x="244" y="60" type="line"/>
      <point x="170" y="0" type="line"/>
      <point x="916" y="0" type="line"/>
      <point x="990" y="60" type="line"/>
    </contour>
    <contour>
      <point x="408" y="861" type="line"/>
      <point x="335" y="801" type="line"/>
      <point x="840" y="801" type="line"/>
      <point x="913" y="861" type="line"/>
    </contour>
    <contour>
      <point x="275" y="804" type="line"/>
      <point x="97" y="2" type="line"/>
      <point x="156" y="1" type="line"/>
      <point x="335" y="803" type="line"/>
    </contour>
  </outline>
</glyph>
<glyph name="uni0192" format="2">
  <advance width="2048"/>
  <unicode hex="0192"/>
  <outline>
    <contour>
      <point x="1207.05664062" y="1023.0" type="line"/>
      <point x="686.943359375" y="-406.0" type="line"/>
      <point x="747.943359375" y="-406.0" type="line"/>
      <point x="1268.05664062" y="1023.0" type="line"/>
    </contour>
    <contour>
      <point x="1234.05664062" y="1023.0" type="line"/>
      <point x="1213.31054688" y="966.0" type="line"/>
      <point x="1658.31054688" y="966.0" type="line"/>
      <point x="1679.05664062" y="1023.0" type="line"/>
    </contour>
    <contour>
      <point x="782.173828125" y="559.0" type="line"/>
      <point x="760.700195312" y="500.0" type="line"/>
      <point x="1391.70019531" y="500.0" type="line"/>
      <point x="1413.17382812" y="559.0" type="line"/>
    </contour>
    <contour>
      <point x="391.145507812" y="-345.0" type="line"/>
      <point x="368.943359375" y="-406.0" type="line"/>
      <point x="740.943359375" y="-406.0" type="line"/>
      <point x="763.145507812" y="-345.0" type="line"/>
    </contour>
  </outline>
</glyph>
<glyph name="Gamma_latin" format="2">
  <advance width="1024"/>
  <unicode hex="0194"/>
  <outline>
    <contour>
      <point x="880" y="1543" type="line"/>
      <point x="770" y="-158" type="line"/>
      <point x="830" y="-158" type="line"/>
      <point x="940" y="1543" type="line"/>
    </contour>
    <contour>
      <point x="1400" y="1543" type="line"/>
      <point x="292" y="-158" type="line"/>
      <point x="352" y="-158" type="line"/>
      <point x="1461" y="1543" type="line"/>
    </contour>
    <contour>
      <point x="219" y="-217" type="line"/>
      <point x="757" y="-218" type="line"/>
      <point x="831" y="-158" type="line"/>
      <point x="293" y="-158" type="line"/>
    </contour>
  </outline>
</glyph>
<glyph name="Iota_latin" format="2">
  <advance width="1024"/>
  <unicode hex="0196"/>
  <outline>
    <contour>
      <point x="664" y="1543" type="line"/>
      <point x="333" y="107" type="line"/>
      <point x="393" y="107" type="line"/>
      <point x="724" y="1543" type="line"/>
    </contour>
    <contour>
      <point x="356" y="172" type="line"/>
      <point x="332" y="106" type="line"/>
      <point x="792" y="6" type="line"/>
      <point x="816" y="72" type="line"/>
    </contour>
  </outline>
</glyph>
<glyph name="Khook" format="2">
  <advance width="1024"/>
  <unicode hex="0198"/>
  <outline>
    <contour>
      <point x="731" y="1553" type="line"/>
      <point x="174" y="5" type="line"/>
      <point x="234" y="5" type="line"/>
      <point x="791" y="1553" type="line"/>
    </contour>
    <contour>
      <point x="594" y="1015" type="line"/>
      <point x="534" y="944" type="line"/>
      <point x="1375" y="1550" type="line"/>
      <point x="1305" y="1550" type="line"/>
    </contour>
    <contour>
      <point x="520" y="934" type="line"/>
      <point x="444" y="844" type="line"/>
      <point x="802" y="0" type="line"/>
      <point x="852" y="0" type="line"/>
    </contour>
    <contour>
      <point x="1717" y="1694" type="line"/>
      <point x="1728" y="1813" type="line"/>
      <point x="1487" y="1698" type="line"/>
      <point x="1478" y="1579" type="line"/>
    </contour>
    <contour>
      <point x="1573" y="1728" type="line"/>
      <point x="1486" y="1698" type="line"/>
      <point x="1302" y="1550" type="line"/>
      <point x="1375" y="1550" type="line"/>
    </contour>
  </outline>
</glyph>
<glyph name="Mturned" format="2">
  <advance width="1024"/>
  <unicode hex="019C"/>
  <anchor x="530.298" y="-108" name="base"/>
  <anchor x="938.298" y="1116" name="top"/>
  <outline>
    <contour>
      <point x="975" y="30" type="line"/>
      <point x="1336" y="1546" type="line"/>
      <point x="1276" y="1546" type="line"/>
      <point x="915" y="30" type="line"/>
    </contour>
    <contour>
      <point x="598" y="51" type="line"/>
      <point x="952" y="1546" type="line"/>
      <point x="892" y="1546" type="line"/>
      <point x="538" y="51" type="line"/>
    </contour>
    <contour>
      <point x="211" y="47" type="line"/>
      <point x="566" y="1546" type="line"/>
      <point x="506" y="1546" type="line"/>
      <point x="151" y="47" type="line"/>
    </contour>
    <contour>
      <point x="1038" y="0" type="line"/>
      <point x="1059" y="57" type="line"/>
      <point x="155" y="57" type="line"/>
      <point x="134" y="0" type="line"/>
    </contour>
  </outline>
</glyph>
<glyph name="Phook" format="2">
  <advance width="1024"/>
  <unicode hex="01A4"/>
  <anchor x="289.95900000000006" y="-80" name="base"/>
  <anchor x="1157.96" y="1634" name="top"/>
  <anchor x="883.6476143331042" y="1226.6213192002624" name="_top"/>
  <outline>
    <contour>
      <point x="831.959" y="1535" type="line"/>
      <point x="272.959" y="0" type="line"/>
      <point x="331.959" y="0" type="line"/>
      <point x="890.959" y="1535" type="line"/>
    </contour>
    <contour>
      <point x="836.959" y="1550" type="line"/>
      <point x="808.959" y="1472" type="line"/>
      <point x="1568.96" y="1472" type="line"/>
      <point x="1596.96" y="1550" type="line"/>
    </contour>
    <contour>
      <point x="1530.96" y="1536" type="line"/>
      <point x="1288.96" y="872" type="line"/>
      <point x="1349.96" y="872" type="line"/>
      <point x="1591.96" y="1536" type="line"/>
    </contour>
    <contour>
      <point x="656.959" y="931" type="line"/>
      <point x="634.9590000000001" y="871" type="line"/>
      <point x="1321.96" y="871" type="line"/>
      <point x="1343.96" y="931" type="line"/>
    </contour>
    <contour>
      <point x="622.1998297344687" y="1425.8449521569614" type="line"/>
      <point x="788.6984627036422" y="1442.9096882931135" type="line"/>
      <point x="728.8081452496044" y="1565.012718047721" type="line"/>
      <point x="562.3095122804311" y="1547.947981911569" type="line"/>
    </contour>
    <contour>
      <point x="616.9873129586856" y="1504.5966484489281" type="line"/>
      <point x="883.4437070520312" y="1492.7227254758036" type="line"/>
      <point x="912.9045010372704" y="1543.9287956019057" type="line"/>
      <point x="710.4456002286256" y="1561.5751403609588" type="line"/>
    </contour>
  </outline>
</glyph>
<glyph name="Esh" format="2">
  <advance width="1024"/>
  <unicode hex="01A9"/>
  <outline>
    <contour>
      <point x="1041.76" y="928" type="line"/>
      <point x="133.294" y="64" type="line"/>
      <point x="104.904" y="-14" type="line"/>
      <point x="1011.19" y="844" type="line"/>
    </contour>
    <contour>
      <point x="1041.22" y="921" type="line"/>
      <point x="688.15" y="1539" type="line"/>
      <point x="666.948" y="1478" type="line"/>
      <point x="1012.1" y="841" type="line"/>
    </contour>
    <contour>
      <point x="1387.58" y="1477" type="line"/>
      <point x="1409.42" y="1537" type="line"/>
      <point x="687.422" y="1537" type="line"/>
      <point x="665.584" y="1477" type="line"/>
    </contour>
    <contour>
      <point x="788" y="0" type="line"/>
      <point x="809.838" y="60" type="line"/>
      <point x="146.838" y="60" type="line"/>
      <point x="125" y="0" type="line"/>
    </contour>
  </outline>
</glyph>
<glyph name="Thook" format="2">
  <advance width="1024"/>
  <unicode hex="01AC"/>
  <anchor x="1175.01" y="1634" name="top"/>
  <anchor x="599.009" y="-70" name="base"/>
  <outline>
    <contour>
      <point x="793.009" y="1553" type="line"/>
      <point x="772.009" y="1494" type="line"/>
      <point x="1556.01" y="1494" type="line"/>
      <point x="1577.01" y="1553" type="line"/>
    </contour>
    <contour>
      <point x="1142.01" y="1512" type="line"/>
      <point x="596.009" y="12" type="line"/>
      <point x="654.009" y="12" type="line"/>
      <point x="1200.01" y="1512" type="line"/>
    </contour>
    <contour>
      <point x="959.852718" y="1548.577586" type="line"/>
      <point x="494.352071" y="1557.472085" type="line"/>
      <point x="519.057613" y="1503.8937720000001" type="line"/>
      <point x="982.7420460000001" y="1494.1617970000002" type="line"/>
    </contour>
    <contour>
      <point x="494.352071" y="1557.472085" type="line"/>
      <point x="618.2985189999999" y="1288.672413" type="line"/>
      <point x="703.352813" y="1247.5048820000002" type="line"/>
      <point x="579.4063649999999" y="1516.304554" type="line"/>
    </contour>
  </outline>
</glyph>
<glyph name="thook" format="2">
  <advance width="1024"/>
  <unicode hex="01AD"/>
  <anchor x="1088.09" y="1642" name="top"/>
  <anchor x="629.09" y="-121" name="base"/>
  <outline>
    <contour>
      <point x="1020.09" y="1529" type="line"/>
      <point x="464.09" y="0" type="line"/>
      <point x="524.09" y="0" type="line"/>
      <point x="1080.09" y="1529" type="line"/>
    </contour>
    <contour>
      <point x="498.0899999999999" y="60" type="line"/>
      <point x="476.09" y="0" type="line"/>
      <point x="868.09" y="0" type="line"/>
      <point x="890.09" y="60" type="line"/>
    </contour>
    <contour>
      <point x="528.09" y="1023" type="line"/>
      <point x="507.09" y="965" type="line"/>
      <point x="1181.09" y="965" type="line"/>
      <point x="1202.09" y="1023" type="line"/>
    </contour>
    <contour>
      <point x="1371.1709580000002" y="1307.062366" type="line"/>
      <point x="1024.356491" y="1617.690455" type="line"/>
      <point x="1008.093908" y="1560.975997" type="line"/>
      <point x="1352.985851" y="1250.899182" type="line"/>
    </contour>
    <contour>
      <point x="1024.356491" y="1617.690455" type="line"/>
      <point x="942.7679390000001" y="1333.156903" type="line"/>
      <point x="980.3221580000001" y="1246.446557" type="line"/>
      <point x="1061.91071" y="1530.980109" type="line"/>
    </contour>
  </outline>
</glyph>
<glyph name="Tretroflexhook" format="2">
  <advance width="1024"/>
  <unicode hex="01AE"/>
  <anchor x="1067.01" y="1634" name="top"/>
  <anchor x="491.009" y="-70" name="base"/>
  <outline>
    <contour>
      <point x="685.009" y="1553" type="line"/>
      <point x="664.009" y="1494" type="line"/>
      <point x="1448.01" y="1494" type="line"/>
      <point x="1469.01" y="1553" type="line"/>
    </contour>
    <contour>
      <point x="1034.01" y="1512" type="line"/>
      <point x="488.009" y="12" type="line"/>
      <point x="546.009" y="12" type="line"/>
      <point x="1092.01" y="1512" type="line"/>
    </contour>
    <contour>
      <point x="562" y="219" type="line"/>
      <point x="359" y="-200" type="line"/>
      <point x="418" y="-200" type="line"/>
      <point x="621" y="217" type="line"/>
    </contour>
    <contour>
      <point x="359" y="-200" type="line"/>
      <point x="655" y="-200" type="line"/>
      <point x="728" y="-140" type="line"/>
      <point x="432" y="-140" type="line"/>
    </contour>
  </outline>
</glyph>
<glyph name="uni01B1" format="2">
  <advance width="1024"/>
  <unicode hex="01B1"/>
  <anchor x="983" y="1632" name="top"/>
  <outline>
    <contour>
      <point x="686" y="1455" type="line"/>
      <point x="153" y="0" type="line"/>
      <point x="213" y="0" type="line"/>
      <point x="746" y="1455" type="line"/>
    </contour>
    <contour>
      <point x="1125" y="1455" type="line"/>
      <point x="871" y="0" type="line"/>
      <point x="931" y="0" type="line"/>
      <point x="1185" y="1455" type="line"/>
    </contour>
    <contour>
      <point x="224" y="56" type="line"/>
      <point x="200" y="0" type="line"/>
      <point x="881" y="0" type="line"/>
      <point x="908" y="63" type="line"/>
    </contour>
    <contour>
      <point x="1161" y="1455" type="line"/>
      <point x="1125" y="1395" type="line"/>
      <point x="1356" y="1395" type="line"/>
      <point x="1392" y="1455" type="line"/>
    </contour>
    <contour>
      <point x="475" y="1455" type="line"/>
      <point x="441" y="1395" type="line"/>
      <point x="679" y="1395" type="line"/>
      <point x="713" y="1455" type="line"/>
    </contour>
  </outline>
</glyph>
<glyph name="uni01B2" format="2">
  <advance width="1024"/>
  <unicode hex="01B2"/>
  <anchor x="930.171" y="1128" name="top"/>
  <anchor x="521.171" y="-50" name="base"/>
  <outline>
    <contour>
      <point x="475" y="1623" type="line"/>
      <point x="103.171" y="0" type="line"/>
      <point x="162.171" y="0" type="line"/>
      <point x="534" y="1623" type="line"/>
    </contour>
    <contour>
      <point x="1232" y="1623" type="line"/>
      <point x="860.171" y="0" type="line"/>
      <point x="921.171" y="0" type="line"/>
      <point x="1293" y="1623" type="line"/>
    </contour>
    <contour>
      <point x="895" y="1623" type="line"/>
      <point x="875" y="1567" type="line"/>
      <point x="1217" y="1567" type="line"/>
      <point x="1237" y="1623" type="line"/>
    </contour>
    <contour>
      <point x="171.171" y="62" type="line"/>
      <point x="149.171" y="0" type="line"/>
      <point x="868.171" y="0" type="line"/>
      <point x="890.171" y="62" type="line"/>
    </contour>
  </outline>
</glyph>
<glyph name="Ezh" format="2">
  <advance width="1024"/>
  <unicode hex="01B7"/>
  <outline>
    <contour>
      <point x="810" y="0" type="line"/>
      <point x="882" y="60" type="line"/>
      <point x="186" y="60" type="line"/>
      <point x="114" y="0" type="line"/>
    </contour>
    <contour>
      <point x="882" y="60" type="line"/>
      <point x="1186" y="889" type="line"/>
      <point x="1125" y="889" type="line"/>
      <point x="818" y="59" type="line"/>
    </contour>
    <contour>
      <point x="1098" y="829" type="line"/>
      <point x="1172" y="889" type="line"/>
      <point x="498" y="889" type="line"/>
      <point x="424" y="829" type="line"/>
    </contour>
    <contour>
      <point x="683" y="1544" type="line"/>
      <point x="611" y="1484" type="line"/>
      <point x="1439" y="1484" type="line"/>
      <point x="1511" y="1544" type="line"/>
    </contour>
    <contour>
      <point x="1367" y="1484" type="line"/>
      <point x="498" y="889" type="line"/>
      <point x="606" y="889" type="line"/>
      <point x="1439" y="1484" type="line"/>
    </contour>
  </outline>
</glyph>
<glyph name="uni01B9" format="2">
  <advance width="1024"/>
  <unicode hex="01B9"/>
  <outline>
    <contour>
      <point x="210" y="0" type="line"/>
      <point x="906" y="0" type="line"/>
      <point x="978" y="60" type="line"/>
      <point x="282" y="60" type="line"/>
    </contour>
    <contour>
      <point x="226" y="39" type="line"/>
      <point x="287" y="39" type="line"/>
      <point x="494" y="619" type="line"/>
      <point x="433" y="619" type="line"/>
    </contour>
    <contour>
      <point x="409" y="559" type="line"/>
      <point x="1048" y="559" type="line"/>
      <point x="1121" y="619" type="line"/>
      <point x="482" y="619" type="line"/>
    </contour>
    <contour>
      <point x="1413" y="1274" type="line"/>
      <point x="585" y="1274" type="line"/>
      <point x="513" y="1214" type="line"/>
      <point x="1341" y="1214" type="line"/>
    </contour>
    <contour>
      <point x="585" y="1214" type="line"/>
      <point x="513" y="1214" type="line"/>
      <point x="1018" y="619" type="line"/>
      <point x="1126" y="619" type="line"/>
    </contour>
  </outline>
</glyph>
<glyph name="uni021D" format="2">
  <advance width="1024"/>
  <unicode hex="021D"/>
  <outline>
    <contour>
      <point x="370" y="93" type="line"/>
      <point x="1172" y="327" type="line"/>
      <point x="923" y="-277" type="line"/>
      <point x="79" y="-511" type="line"/>
      <point x="66" y="-571" type="line"/>
      <point x="961" y="-337" type="line"/>
      <point x="1528" y="1097" type="line"/>
      <point x="654" y="912" type="line"/>
      <point x="633" y="855" type="line"/>
      <point x="1445" y="1040" type="line"/>
      <point x="1192" y="387" type="line"/>
      <point x="392" y="153" type="line"/>
    </contour>
  </outline>
</glyph>
<glyph name="uni0221" format="2">
  <advance width="1024"/>
  <unicode hex="0221"/>
  <anchor x="484.062" y="-69" name="base"/>
  <anchor x="1479.06" y="1648" name="top"/>
  <outline>
    <contour>
      <point x="1067" y="1527" type="line"/>
      <point x="511" y="0" type="line"/>
      <point x="571" y="0" type="line"/>
      <point x="1127" y="1527" type="line"/>
    </contour>
    <contour>
      <point x="417" y="1023" type="line"/>
      <point x="402" y="966" type="line"/>
      <point x="915" y="966" type="line"/>
      <point x="930" y="1023" type="line"/>
    </contour>
    <contour>
      <point x="378" y="1023" type="line"/>
      <point x="6" y="0" type="line"/>
      <point x="66" y="0" type="line"/>
      <point x="438" y="1023" type="line"/>
    </contour>
    <contour>
      <point x="74" y="59" type="line"/>
      <point x="46" y="0" type="line"/>
      <point x="953" y="0" type="line"/>
      <point x="981" y="59" type="line"/>
    </contour>
    <contour>
      <point x="564" y="-142" type="line"/>
      <point x="635" y="-145" type="line"/>
      <point x="1055" y="361" type="line"/>
      <point x="1098" y="479" type="line"/>
    </contour>
    <contour>
      <point x="1097" y="476" type="line"/>
      <point x="916" y="2" type="line"/>
      <point x="998" y="-3" type="line"/>
      <point x="1181" y="468" type="line"/>
    </contour>
  </outline>
</glyph>
<glyph name="uni0222" format="2">
  <advance width="1024"/>
  <unicode hex="0222"/>
  <outline>
    <contour>
      <point x="670" y="1548" type="line"/>
      <point x="437" y="838" type="line"/>
      <point x="497" y="838" type="line"/>
      <point x="730" y="1548" type="line"/>
    </contour>
    <contour>
      <point x="1414" y="1548" type="line"/>
      <point x="1187" y="842" type="line"/>
      <point x="1247" y="842" type="line"/>
      <point x="1474" y="1548" type="line"/>
    </contour>
    <contour>
      <point x="376" y="779" type="line"/>
      <point x="362" y="722" type="line"/>
      <point x="1144" y="719" type="line"/>
      <point x="1217" y="783" type="line"/>
    </contour>
    <contour>
      <point x="376" y="779" type="line"/>
      <point x="94" y="24" type="line"/>
      <point x="158" y="24" type="line"/>
      <point x="433" y="779" type="line"/>
    </contour>
    <contour>
      <point x="1157" y="780" type="line"/>
      <point x="879" y="0" type="line"/>
      <point x="942" y="3" type="line"/>
      <point x="1217" y="783" type="line"/>
    </contour>
    <contour>
      <point x="157" y="60" type="line"/>
      <point x="82" y="0" type="line"/>
      <point x="932" y="0" type="line"/>
      <point x="1005" y="60" type="line"/>
    </contour>
    <contour>
      <point x="1221" y="780" type="line"/>
      <point x="464" y="905" type="line"/>
      <point x="438" y="837" type="line"/>
      <point x="1144" y="719" type="line"/>
    </contour>
    <contour>
      <point x="363" y="722" type="line"/>
      <point x="1247" y="842" type="line"/>
      <point x="1265" y="925" type="line"/>
      <point x="376" y="780" type="line"/>
    </contour>
    <contour>
      <point x="962" y="1548" type="line"/>
      <point x="670" y="1548" type="line"/>
      <point x="651" y="1483" type="line"/>
      <point x="945" y="1482" type="line"/>
    </contour>
    <contour>
      <point x="1157" y="1481" type="line"/>
      <point x="1447" y="1480" type="line"/>
      <point x="1480" y="1548" type="line"/>
      <point x="1185" y="1546" type="line"/>
    </contour>
  </outline>
</glyph>
<glyph name="uni0223" format="2">
  <advance width="1024"/>
  <unicode hex="0223"/>
  <outline>
    <contour>
      <point x="680" y="1552" type="line"/>
      <point x="447" y="692" type="line"/>
      <point x="507" y="692" type="line"/>
      <point x="740" y="1552" type="line"/>
    </contour>
    <contour>
      <point x="1432" y="1552" type="line"/>
      <point x="1197" y="696" type="line"/>
      <point x="1257" y="696" type="line"/>
      <point x="1492" y="1552" type="line"/>
    </contour>
    <contour>
      <point x="386" y="637" type="line"/>
      <point x="367" y="581" type="line"/>
      <point x="1154" y="578" type="line"/>
      <point x="1227" y="641" type="line"/>
    </contour>
    <contour>
      <point x="386" y="637" type="line"/>
      <point x="104" y="24" type="line"/>
      <point x="167" y="24" type="line"/>
      <point x="442" y="637" type="line"/>
    </contour>
    <contour>
      <point x="1168" y="638" type="line"/>
      <point x="890" y="0" type="line"/>
      <point x="952" y="3" type="line"/>
      <point x="1227" y="641" type="line"/>
    </contour>
    <contour>
      <point x="122" y="60" type="line"/>
      <point x="92" y="0" type="line"/>
      <point x="942" y="0" type="line"/>
      <point x="970" y="60" type="line"/>
    </contour>
    <contour>
      <point x="1227" y="636" type="line"/>
      <point x="529" y="782" type="line"/>
      <point x="448" y="691" type="line"/>
      <point x="1154" y="578" type="line"/>
    </contour>
    <contour>
      <point x="368" y="581" type="line"/>
      <point x="1257" y="696" type="line"/>
      <point x="1276" y="759" type="line"/>
      <point x="386" y="633" type="line"/>
    </contour>
  </outline>
</glyph>
<glyph name="uni0223" format="2">
  <advance width="1024"/>
  <unicode hex="0223"/>
  <outline>
    <contour>
      <point x="680" y="1552" type="line"/>
      <point x="447" y="831" type="line"/>
      <point x="507" y="831" type="line"/>
      <point x="740" y="1552" type="line"/>
    </contour>
    <contour>
      <point x="1432" y="1552" type="line"/>
      <point x="1197" y="835" type="line"/>
      <point x="1257" y="835" type="line"/>
      <point x="1492" y="1552" type="line"/>
    </contour>
    <contour>
      <point x="386" y="779" type="line"/>
      <point x="365" y="723" type="line"/>
      <point x="1154" y="720" type="line"/>
      <point x="1227" y="783" type="line"/>
    </contour>
    <contour>
      <point x="386" y="779" type="line"/>
      <point x="104" y="24" type="line"/>
      <point x="168" y="24" type="line"/>
      <point x="443" y="779" type="line"/>
    </contour>
    <contour>
      <point x="1167" y="780" type="line"/>
      <point x="889" y="0" type="line"/>
      <point x="952" y="3" type="line"/>
      <point x="1227" y="783" type="line"/>
    </contour>
    <contour>
      <point x="167" y="60" type="line"/>
      <point x="92" y="0" type="line"/>
      <point x="942" y="0" type="line"/>
      <point x="1015" y="60" type="line"/>
    </contour>
    <contour>
      <point x="1227" y="781" type="line"/>
      <point x="529" y="897" type="line"/>
      <point x="448" y="830" type="line"/>
      <point x="1154" y="720" type="line"/>
    </contour>
    <contour>
      <point x="366" y="723" type="line"/>
      <point x="1257" y="835" type="line"/>
      <point x="1278" y="895" type="line"/>
      <point x="386" y="780" type="line"/>
    </contour>
  </outline>
</glyph>
<glyph name="lcurl" format="2">
  <advance width="1024"/>
  <unicode hex="0234"/>
  <anchor x="500.104" y="-87" name="base"/>
  <anchor x="1106.1" y="1630" name="top"/>
  <outline>
    <contour>
      <point x="585" y="129" type="line"/>
      <point x="559" y="57" type="line"/>
      <point x="843" y="340" type="line"/>
      <point x="869" y="412" type="line"/>
    </contour>
    <contour>
      <point x="1047.1" y="1553" type="line"/>
      <point x="503.104" y="57" type="line"/>
      <point x="560" y="57" type="line"/>
      <point x="1104" y="1553" type="line"/>
    </contour>
    <contour>
      <point x="821.104" y="1553" type="line"/>
      <point x="800.104" y="1494" type="line"/>
      <point x="1035.1" y="1494" type="line"/>
      <point x="1056.1" y="1553" type="line"/>
    </contour>
    <contour>
      <point x="203" y="362" type="line"/>
      <point x="177" y="290" type="line"/>
      <point x="846" y="352" type="line"/>
      <point x="872" y="424" type="line"/>
    </contour>
  </outline>
</glyph>
<glyph name="ncurl" format="2">
  <advance width="1024"/>
  <unicode hex="0235"/>
  <anchor x="570.171" y="-57" name="base"/>
  <anchor x="995.171" y="1113" name="top"/>
  <outline>
    <contour>
      <point x="583" y="990" type="line"/>
      <point x="223" y="0" type="line"/>
      <point x="284" y="0" type="line"/>
      <point x="644" y="990" type="line"/>
    </contour>
    <contour>
      <point x="1060" y="976" type="line"/>
      <point x="705" y="0" type="line"/>
      <point x="765" y="0" type="line"/>
      <point x="1120" y="976" type="line"/>
    </contour>
    <contour>
      <point x="415" y="1023" type="line"/>
      <point x="395" y="967" type="line"/>
      <point x="1115" y="967" type="line"/>
      <point x="1135" y="1023" type="line"/>
    </contour>
    <contour>
      <point x="489" y="56" type="line"/>
      <point x="469" y="0" type="line"/>
      <point x="962" y="198" type="line"/>
      <point x="982" y="254" type="line"/>
    </contour>
    <contour>
      <point x="756" y="59" type="line"/>
      <point x="751" y="3" type="line"/>
      <point x="955" y="3" type="line"/>
      <point x="960" y="59" type="line"/>
    </contour>
    <contour>
      <point x="981" y="254" type="line"/>
      <point x="896" y="10" type="line"/>
      <point x="954" y="4" type="line"/>
      <point x="1039" y="248" type="line"/>
    </contour>
  </outline>
</glyph>
<glyph name="tcurl" format="2">
  <advance width="1024"/>
  <unicode hex="0236"/>
  <anchor x="1088.09" y="1642" name="top"/>
  <anchor x="629.09" y="-121" name="base"/>
  <outline>
    <contour>
      <point x="1020.09" y="1529" type="line"/>
      <point x="464.09" y="0" type="line"/>
      <point x="524.09" y="0" type="line"/>
      <point x="1080.09" y="1529" type="line"/>
    </contour>
    <contour>
      <point x="498.09" y="60" type="line"/>
      <point x="476.09" y="0" type="line"/>
      <point x="803" y="0" type="line"/>
      <point x="823" y="61" type="line"/>
    </contour>
    <contour>
      <point x="528.09" y="1023" type="line"/>
      <point x="507.09" y="965" type="line"/>
      <point x="1181.09" y="965" type="line"/>
      <point x="1202.09" y="1023" type="line"/>
    </contour>
    <contour>
      <point x="259" y="45" type="line"/>
      <point x="238" y="-13" type="line"/>
      <point x="875" y="224" type="line"/>
      <point x="896" y="282" type="line"/>
    </contour>
    <contour>
      <point x="744" y="16" type="line"/>
      <point x="804" y="2" type="line"/>
      <point x="880" y="239" type="line"/>
      <point x="820" y="253" type="line"/>
    </contour>
  </outline>
</glyph>
<glyph name="uni0237" format="2">
  <advance width="2048"/>
  <unicode hex="0237"/>
  <outline>
    <contour>
      <point x="1540.05664062" y="1023.0" type="line"/>
      <point x="1018.12304688" y="-411.0" type="line"/>
      <point x="1076.12304688" y="-411.0" type="line"/>
      <point x="1598.05664062" y="1023.0" type="line"/>
    </contour>
    <contour>
      <point x="471.052734375" y="-348.0" type="line"/>
      <point x="449.943359375" y="-406.0" type="line"/>
      <point x="1039.94335938" y="-406.0" type="line"/>
      <point x="1061.05273438" y="-348.0" type="line"/>
    </contour>
    <contour>
      <point x="595.53125" y="-6.0" type="line"/>
      <point x="460.133789062" y="-378.0" type="line"/>
      <point x="520.133789062" y="-378.0" type="line"/>
      <point x="655.53125" y="-6.0" type="line"/>
    </contour>
  </outline>
</glyph>
<glyph name="uni0250" format="2">
  <advance width="1024"/>
  <unicode hex="0250"/>
  <anchor x="475.84" y="-103" name="top"/>
  <anchor x="838.84" y="1087" name="base"/>
  <outline>
    <contour>
      <point x="822.84" y="-11" type="line"/>
      <point x="847.84" y="56" type="line"/>
      <point x="198.84" y="56" type="line"/>
      <point x="174.84" y="-10" type="line"/>
    </contour>
    <contour>
      <point x="233" y="-10" type="line"/>
      <point x="605" y="1056" type="line"/>
      <point x="528" y="1056" type="line"/>
      <point x="156" y="-10" type="line"/>
    </contour>
    <contour>
      <point x="974.84" y="413" type="line"/>
      <point x="996.84" y="475" type="line"/>
      <point x="372.84" y="475" type="line"/>
      <point x="350.84" y="413" type="line"/>
    </contour>
    <contour>
      <point x="981.84" y="436" type="line"/>
      <point x="1191.84" y="1013" type="line"/>
      <point x="1120.84" y="1013" type="line"/>
      <point x="910.84" y="436" type="line"/>
    </contour>
    <contour>
      <point x="1155.84" y="939" type="line"/>
      <point x="1182.84" y="1013" type="line"/>
      <point x="518.84" y="1013" type="line"/>
      <point x="491.84" y="939" type="line"/>
    </contour>
  </outline>
</glyph>
<glyph name="uni0251" format="2">
  <advance width="1024"/>
  <unicode hex="0251"/>
  <anchor x="930.171" y="1128" name="top"/>
  <anchor x="521.171" y="-50" name="base"/>
  <outline>
    <contour>
      <point x="475.171" y="1023" type="line"/>
      <point x="103.171" y="0" type="line"/>
      <point x="162.171" y="0" type="line"/>
      <point x="534.171" y="1023" type="line"/>
    </contour>
    <contour>
      <point x="1232" y="1116" type="line"/>
      <point x="860" y="-127" type="line"/>
      <point x="921" y="-127" type="line"/>
      <point x="1293" y="1116" type="line"/>
    </contour>
    <contour>
      <point x="536.171" y="1023" type="line"/>
      <point x="516.171" y="967" type="line"/>
      <point x="1217.17" y="967" type="line"/>
      <point x="1237.17" y="1023" type="line"/>
    </contour>
    <contour>
      <point x="167" y="62" type="line"/>
      <point x="144" y="0" type="line"/>
      <point x="913" y="0" type="line"/>
      <point x="937" y="62" type="line"/>
    </contour>
  </outline>
</glyph>
<glyph name="oopen" format="2">
  <advance width="1024"/>
  <unicode hex="0254"/>
  <anchor x="448.15" y="-69" name="base"/>
  <anchor x="932.15" y="1114" name="top"/>
  <outline>
    <contour>
      <point x="862" y="0" type="line"/>
      <point x="882" y="56" type="line"/>
      <point x="186" y="56" type="line"/>
      <point x="166" y="0" type="line"/>
    </contour>
    <contour>
      <point x="874" y="39" type="line"/>
      <point x="1232" y="1023" type="line"/>
      <point x="1172" y="1023" type="line"/>
      <point x="814" y="39" type="line"/>
    </contour>
    <contour>
      <point x="1162" y="963" type="line"/>
      <point x="1184" y="1023" type="line"/>
      <point x="544" y="1023" type="line"/>
      <point x="522" y="963" type="line"/>
    </contour>
  </outline>
</glyph>
<glyph name="uni0259" format="2">
  <advance width="1024"/>
  <unicode hex="0259"/>
  <outline>
    <contour>
      <point x="804" y="0" type="line"/>
      <point x="843" y="107" type="line"/>
      <point x="303" y="174" type="line"/>
      <point x="264" y="67" type="line"/>
    </contour>
    <contour>
      <point x="854" y="0" type="line"/>
      <point x="1226" y="1023" type="line"/>
      <point x="1125" y="1023" type="line"/>
      <point x="753" y="0" type="line"/>
    </contour>
    <contour>
      <point x="1085" y="914" type="line"/>
      <point x="1124" y="1023" type="line"/>
      <point x="542" y="1023" type="line"/>
      <point x="503" y="914" type="line"/>
    </contour>
    <contour>
      <point x="964" y="494" type="line"/>
      <point x="994" y="577" type="line"/>
      <point x="404" y="577" type="line"/>
      <point x="374" y="494" type="line"/>
    </contour>
    <contour>
      <point x="353" y="97" type="line"/>
      <point x="457" y="578" type="line"/>
      <point x="381" y="578" type="line"/>
      <point x="277" y="97" type="line"/>
    </contour>
  </outline>
</glyph>
<glyph name="ramshorn" format="2">
  <advance width="1024"/>
  <unicode hex="0264"/>
  <outline>
    <contour>
      <point x="880" y="935" type="line"/>
      <point x="770" y="202" type="line"/>
      <point x="830" y="202" type="line"/>
      <point x="940" y="935" type="line"/>
    </contour>
    <contour>
      <point x="1400" y="965" type="line"/>
      <point x="292" y="202" type="line"/>
      <point x="352" y="202" type="line"/>
      <point x="1461" y="965" type="line"/>
    </contour>
    <contour>
      <point x="219" y="143" type="line"/>
      <point x="757" y="142" type="line"/>
      <point x="831" y="202" type="line"/>
      <point x="293" y="202" type="line"/>
    </contour>
  </outline>
</glyph>
<glyph name="iota_latin" format="2">
  <advance width="1024"/>
  <unicode hex="0269"/>
  <anchor x="912" y="1155" name="top"/>
  <outline>
    <contour>
      <point x="664" y="1018" type="line"/>
      <point x="333" y="107" type="line"/>
      <point x="393" y="107" type="line"/>
      <point x="724" y="1018" type="line"/>
    </contour>
    <contour>
      <point x="356" y="172" type="line"/>
      <point x="332" y="106" type="line"/>
      <point x="792" y="6" type="line"/>
      <point x="816" y="72" type="line"/>
    </contour>
  </outline>
</glyph>
<glyph name="uni026A" format="2">
  <advance width="1024"/>
  <unicode hex="026A"/>
  <anchor x="1042.1" y="1653" name="top"/>
  <anchor x="496.104" y="-82" name="base"/>
  <outline>
    <contour>
      <point x="718" y="1032" type="line"/>
      <point x="696" y="971" type="line"/>
      <point x="1397" y="971" type="line"/>
      <point x="1419" y="1032" type="line"/>
    </contour>
    <contour>
      <point x="1029" y="997" type="line"/>
      <point x="490.104" y="34" type="line"/>
      <point x="549.104" y="34" type="line"/>
      <point x="1088" y="997" type="line"/>
    </contour>
    <contour>
      <point x="158.104" y="66" type="line"/>
      <point x="136.104" y="6" type="line"/>
      <point x="892.104" y="6" type="line"/>
      <point x="914.104" y="66" type="line"/>
    </contour>
  </outline>
</glyph>
<glyph name="uni027F" format="2">
  <advance width="1024"/>
  <unicode hex="027F"/>
  <anchor x="968.059" y="1114" name="top"/>
  <anchor x="370.059" y="-91" name="base"/>
  <outline>
    <contour>
      <point x="518.059" y="1023" type="line"/>
      <point x="496.059" y="961" type="line"/>
      <point x="1228.06" y="961" type="line"/>
      <point x="1250.06" y="1023" type="line"/>
    </contour>
    <contour>
      <point x="1160" y="989" type="line"/>
      <point x="800" y="-492" type="line"/>
      <point x="860" y="-492" type="line"/>
      <point x="1220" y="989" type="line"/>
    </contour>
  </outline>
</glyph>
<glyph name="uni0283" format="2">
  <advance width="1024"/>
  <unicode hex="0283"/>
  <outline>
    <contour>
      <point x="1276" y="1641" type="line"/>
      <point x="311" y="-399" type="line"/>
      <point x="378" y="-399" type="line"/>
      <point x="1343" y="1641" type="line"/>
    </contour>
    <contour>
      <point x="152" y="-340" type="line"/>
      <point x="131" y="-398" type="line"/>
      <point x="377" y="-398" type="line"/>
      <point x="398" y="-340" type="line"/>
    </contour>
    <contour>
      <point x="1331" y="1641" type="line"/>
      <point x="1307" y="1575" type="line"/>
      <point x="1643" y="1575" type="line"/>
      <point x="1667" y="1641" type="line"/>
    </contour>
  </outline>
</glyph>
<glyph name="uni0285" format="2">
  <advance width="1024"/>
  <unicode hex="0285"/>
  <outline>
    <contour>
      <point x="937" y="1001" type="line"/>
      <point x="493" y="-408" type="line"/>
      <point x="560" y="-408" type="line"/>
      <point x="1004" y="1001" type="line"/>
    </contour>
    <contour>
      <point x="563" y="-350" type="line"/>
      <point x="542" y="-408" type="line"/>
      <point x="970" y="-408" type="line"/>
      <point x="991" y="-350" type="line"/>
    </contour>
    <contour>
      <point x="544" y="1001" type="line"/>
      <point x="520" y="935" type="line"/>
      <point x="975" y="935" type="line"/>
      <point x="999" y="1001" type="line"/>
    </contour>
  </outline>
</glyph>
<glyph name="tretroflexhook" format="2">
  <advance width="1024"/>
  <unicode hex="0288"/>
  <anchor x="1088.09" y="1642" name="top"/>
  <anchor x="650" y="-526" name="base"/>
  <outline>
    <contour>
      <point x="1020.09" y="1529" type="line"/>
      <point x="464" y="-423" type="line"/>
      <point x="524" y="-423" type="line"/>
      <point x="1080.09" y="1529" type="line"/>
    </contour>
    <contour>
      <point x="498" y="-363" type="line"/>
      <point x="476" y="-423" type="line"/>
      <point x="868" y="-423" type="line"/>
      <point x="890" y="-363" type="line"/>
    </contour>
    <contour>
      <point x="528.09" y="1023" type="line"/>
      <point x="507.09" y="965" type="line"/>
      <point x="1181.09" y="965" type="line"/>
      <point x="1202.09" y="1023" type="line"/>
    </contour>
  </outline>
</glyph>
<glyph name="upsilon-latin" format="2">
  <advance width="1024"/>
  <unicode hex="028A"/>
  <outline>
    <contour>
      <point x="686" y="1023" type="line"/>
      <point x="153" y="0" type="line"/>
      <point x="213" y="0" type="line"/>
      <point x="746" y="1023" type="line"/>
    </contour>
    <contour>
      <point x="1125" y="1023" type="line"/>
      <point x="871" y="0" type="line"/>
      <point x="931" y="0" type="line"/>
      <point x="1185" y="1023" type="line"/>
    </contour>
    <contour>
      <point x="224" y="56" type="line"/>
      <point x="200" y="0" type="line"/>
      <point x="881" y="0" type="line"/>
      <point x="908" y="63" type="line"/>
    </contour>
    <contour>
      <point x="1161" y="1023" type="line"/>
      <point x="1125" y="963" type="line"/>
      <point x="1356" y="963" type="line"/>
      <point x="1392" y="1023" type="line"/>
    </contour>
    <contour>
      <point x="475" y="1023" type="line"/>
      <point x="441" y="963" type="line"/>
      <point x="679" y="963" type="line"/>
      <point x="713" y="1023" type="line"/>
    </contour>
  </outline>
</glyph>
<glyph name="vhook" format="2">
  <advance width="1024"/>
  <unicode hex="028B"/>
  <anchor x="930.171" y="1128" name="top"/>
  <anchor x="521.171" y="-50" name="base"/>
  <outline>
    <contour>
      <point x="475.171" y="1023" type="line"/>
      <point x="103.171" y="0" type="line"/>
      <point x="162.171" y="0" type="line"/>
      <point x="534.171" y="1023" type="line"/>
    </contour>
    <contour>
      <point x="1232.17" y="1023" type="line"/>
      <point x="860.171" y="0" type="line"/>
      <point x="921.171" y="0" type="line"/>
      <point x="1293.17" y="1023" type="line"/>
    </contour>
    <contour>
      <point x="895" y="1023" type="line"/>
      <point x="875" y="967" type="line"/>
      <point x="1217.17" y="967" type="line"/>
      <point x="1237.17" y="1023" type="line"/>
    </contour>
    <contour>
      <point x="171.171" y="62" type="line"/>
      <point x="149.171" y="0" type="line"/>
      <point x="868.171" y="0" type="line"/>
      <point x="890.171" y="62" type="line"/>
    </contour>
  </outline>
</glyph>
<glyph name="ezh" format="2">
  <advance width="1024"/>
  <unicode hex="0292"/>
  <outline>
    <contour>
      <point x="806" y="0" type="line"/>
      <point x="878" y="60" type="line"/>
      <point x="236" y="60" type="line"/>
      <point x="164" y="0" type="line"/>
    </contour>
    <contour>
      <point x="877" y="58" type="line"/>
      <point x="1087" y="619" type="line"/>
      <point x="1026" y="619" type="line"/>
      <point x="816" y="58" type="line"/>
    </contour>
    <contour>
      <point x="1002" y="559" type="line"/>
      <point x="1075" y="619" type="line"/>
      <point x="399" y="619" type="line"/>
      <point x="326" y="559" type="line"/>
    </contour>
    <contour>
      <point x="585" y="1274" type="line"/>
      <point x="513" y="1214" type="line"/>
      <point x="1341" y="1214" type="line"/>
      <point x="1413" y="1274" type="line"/>
    </contour>
    <contour>
      <point x="1269" y="1214" type="line"/>
      <point x="399" y="619" type="line"/>
      <point x="502" y="619" type="line"/>
      <point x="1341" y="1214" type="line"/>
    </contour>
  </outline>
</glyph>
<glyph name="glottalstop" format="2">
  <advance width="1024"/>
  <unicode hex="0294"/>
  <outline>
    <contour>
      <point x="645" y="1543" type="line"/>
      <point x="573" y="1483" type="line"/>
      <point x="1101" y="1483" type="line"/>
      <point x="1173" y="1543" type="line"/>
    </contour>
    <contour>
      <point x="1113" y="1543" type="line"/>
      <point x="926" y="1028" type="line"/>
      <point x="986" y="1028" type="line"/>
      <point x="1173" y="1543" type="line"/>
    </contour>
    <contour>
      <point x="542" y="1073" type="line"/>
      <point x="508" y="1013" type="line"/>
      <point x="968" y="1013" type="line"/>
      <point x="1002" y="1073" type="line"/>
    </contour>
    <contour>
      <point x="529" y="1073" type="line"/>
      <point x="188" y="167" type="line"/>
      <point x="248" y="167" type="line"/>
      <point x="589" y="1073" type="line"/>
    </contour>
  </outline>
</glyph>
<glyph name="glottalstopreversed" format="2">
  <advance width="1024"/>
  <unicode hex="0295"/>
  <outline>
    <contour>
      <point x="1321" y="1543" type="line"/>
      <point x="793" y="1543" type="line"/>
      <point x="764" y="1483" type="line"/>
      <point x="1292" y="1483" type="line"/>
    </contour>
    <contour>
      <point x="853" y="1543" type="line"/>
      <point x="793" y="1543" type="line"/>
      <point x="605" y="1028" type="line"/>
      <point x="665" y="1028" type="line"/>
    </contour>
    <contour>
      <point x="1082" y="1073" type="line"/>
      <point x="622" y="1073" type="line"/>
      <point x="599" y="1013" type="line"/>
      <point x="1059" y="1013" type="line"/>
    </contour>
    <contour>
      <point x="1095" y="1073" type="line"/>
      <point x="1035" y="1073" type="line"/>
      <point x="705" y="167" type="line"/>
      <point x="765" y="167" type="line"/>
    </contour>
  </outline>
</glyph>
<glyph name="uni029D" format="2">
  <advance width="1024"/>
  <unicode hex="029D"/>
  <anchor x="1255.58" y="1348" name="top"/>
  <anchor x="348.579" y="-486" name="base"/>
  <outline>
    <contour>
      <point x="1140.58" y="1023" type="line"/>
      <point x="618.579" y="-411" type="line"/>
      <point x="676.579" y="-411" type="line"/>
      <point x="1198.58" y="1023" type="line"/>
    </contour>
    <contour>
      <point x="71.5791" y="-348" type="line"/>
      <point x="50.5791" y="-406" type="line"/>
      <point x="640.579" y="-406" type="line"/>
      <point x="661.579" y="-348" type="line"/>
    </contour>
    <contour>
      <point x="195.579" y="-6" type="line"/>
      <point x="60.5791" y="-378" type="line"/>
      <point x="120.579" y="-378" type="line"/>
      <point x="255.579" y="-6" type="line"/>
    </contour>
    <contour>
      <point x="1202.58" y="1201" type="line"/>
      <point x="1181.58" y="1142" type="line"/>
      <point x="1241.58" y="1142" type="line"/>
      <point x="1262.58" y="1201" type="line"/>
    </contour>
    <contour>
      <point x="192" y="-12" type="line"/>
      <point x="1018" y="-12" type="line"/>
      <point x="1048" y="68" type="line"/>
      <point x="222" y="68" type="line"/>
    </contour>
  </outline>
</glyph>
<glyph name="uni02C0" format="2">
  <advance width="1024"/>
  <unicode hex="02C0"/>
  <outline>
    <contour>
      <point x="645" y="1543" type="line"/>
      <point x="573" y="1483" type="line"/>
      <point x="1101" y="1483" type="line"/>
      <point x="1173" y="1543" type="line"/>
    </contour>
    <contour>
      <point x="1113" y="1543" type="line"/>
      <point x="926" y="1028" type="line"/>
      <point x="986" y="1028" type="line"/>
      <point x="1173" y="1543" type="line"/>
    </contour>
    <contour>
      <point x="542" y="1073" type="line"/>
      <point x="513" y="1013" type="line"/>
      <point x="973" y="1013" type="line"/>
      <point x="1002" y="1073" type="line"/>
    </contour>
    <contour>
      <point x="529" y="1073" type="line"/>
      <point x="347" y="572" type="line"/>
      <point x="407" y="572" type="line"/>
      <point x="589" y="1073" type="line"/>
    </contour>
  </outline>
</glyph>
<glyph name="circumflex" format="2">
  <advance width="1024"/>
  <unicode hex="02C6"/>
  <outline>
    <contour>
      <point x="624.559" y="2308" type="line"/>
      <point x="588.559" y="2308" type="line"/>
      <point x="343.729" y="1998" type="line"/>
      <point x="364.541" y="1981" type="line"/>
    </contour>
    <contour>
      <point x="592.287" y="2310" type="line"/>
      <point x="632.721" y="1976" type="line"/>
      <point x="680.271" y="1994" type="line"/>
      <point x="629.287" y="2310" type="line"/>
    </contour>
  </outline>
</glyph>
<glyph name="caron" format="2">
  <advance width="1024"/>
  <unicode hex="02C7"/>
  <outline>
    <contour>
      <point x="397.441" y="1068" type="line"/>
      <point x="375.459" y="1395" type="line"/>
      <point x="342.271" y="1378" type="line"/>
      <point x="361.441" y="1068" type="line"/>
    </contour>
    <contour>
      <point x="364.078" y="1067" type="line"/>
      <point x="401.078" y="1067" type="line"/>
      <point x="681.729" y="1382" type="line"/>
      <point x="647.279" y="1400" type="line"/>
    </contour>
  </outline>
</glyph>
<glyph name="verticallinemod" format="2">
  <advance width="1024"/>
  <unicode hex="02C8"/>
  <outline>
    <contour>
      <point x="762" y="1823" type="line"/>
      <point x="472" y="1025" type="line"/>
      <point x="535" y="1025" type="line"/>
      <point x="825" y="1823" type="line"/>
    </contour>
  </outline>
</glyph>
<glyph name="uni02C9" format="2">
  <advance width="1024"/>
  <unicode hex="02C9"/>
  <outline>
    <contour>
      <point x="246.55859375" y="1630.0" type="line"/>
      <point x="217.44140625" y="1550.0" type="line"/>
      <point x="777.44140625" y="1550.0" type="line"/>
      <point x="806.55859375" y="1630.0" type="line"/>
    </contour>
  </outline>
</glyph>
